<svg id="Group_1258" data-name="Group 1258" xmlns="http://www.w3.org/2000/svg" width="61" height="61" viewBox="0 0 61 61">
  <circle id="Ellipse_29" data-name="Ellipse 29" cx="30.5" cy="30.5" r="30.5" fill="#346715"/>
  <path id="Path_2770" data-name="Path 2770" d="M1205.271,6563.68a4.44,4.44,0,0,0-4.33-4.33H1183.53a4.44,4.44,0,0,0-4.33,4.33v17.411a4.44,4.44,0,0,0,4.33,4.33h8.769v-9.869h-3.248v-4.312h3.248v-1.749c0-2.979,2.165-5.54,4.872-5.54h3.5v4.313h-3.5c-.415,0-.812.415-.812,1.228v1.749h4.312v4.313h-4.312v9.869h4.583a4.44,4.44,0,0,0,4.33-4.33Z" transform="translate(-1161.158 -6541.308)" fill="#e7e7e7"/>
</svg>
