<svg id="Group_1258" data-name="Group 1258" xmlns="http://www.w3.org/2000/svg" width="61" height="61" viewBox="0 0 61 61">
  <circle id="Ellipse_29" data-name="Ellipse 29" cx="30.5" cy="30.5" r="30.5" fill="#e7e7e7"/>
  <path id="Path_2770" data-name="Path 2770" d="M1205.125,6563.656a4.415,4.415,0,0,0-4.306-4.306h-17.313a4.415,4.415,0,0,0-4.306,4.306v17.313a4.414,4.414,0,0,0,4.306,4.306h8.719v-9.813H1189v-4.288h3.229v-1.74c0-2.961,2.153-5.509,4.844-5.509h3.48v4.288h-3.48c-.413,0-.808.413-.808,1.221v1.74h4.288v4.288h-4.288v9.813h4.557a4.414,4.414,0,0,0,4.306-4.306Z" transform="translate(-1161.259 -6541.409)" fill="#346715"/>
</svg>
