<svg xmlns="http://www.w3.org/2000/svg" width="61" height="61" viewBox="0 0 61 61">
  <g id="Group_1254" data-name="Group 1254" transform="translate(-0.287)">
    <circle id="Ellipse_32" data-name="Ellipse 32" cx="30.5" cy="30.5" r="30.5" transform="translate(0.287)" fill="#346715"/>
    <path id="Path_2777" data-name="Path 2777" d="M1416,6562.292a10.919,10.919,0,0,0-7.848-2.941,12.276,12.276,0,0,0-9.039,3.554,10.16,10.16,0,0,0-3.067,7.218c0,3.3,1.353,5.755,3.681,6.729.108.127.361.127.487.127a1.051,1.051,0,0,0,.974-.866c.126-.235.235-.975.361-1.336a1.392,1.392,0,0,0-.361-1.353,4.471,4.471,0,0,1-.974-2.941,7.325,7.325,0,0,1,7.578-7.343c3.915,0,6.369,2.2,6.369,5.756a12.576,12.576,0,0,1-1.353,5.881,3.978,3.978,0,0,1-3.3,2.311,1.832,1.832,0,0,1-1.714-.849,2.13,2.13,0,0,1-.361-1.715,14.383,14.383,0,0,1,.614-2.2,17.5,17.5,0,0,0,.848-3.681,2.691,2.691,0,0,0-2.688-2.923c-2.075,0-3.663,2.074-3.663,4.637a7.062,7.062,0,0,0,.487,2.58c-.253,1.1-1.84,7.578-2.093,8.678-.108.74-1.209,6.37.487,6.73,1.84.487,3.554-5.016,3.68-5.63.126-.487.614-2.435.848-3.536a5.654,5.654,0,0,0,3.807,1.462,8.36,8.36,0,0,0,6.73-3.428,13.746,13.746,0,0,0,2.562-8.317A10.084,10.084,0,0,0,1416,6562.292Z" transform="translate(-1376.204 -6543.112)" fill="#e7e7e7"/>
  </g>
</svg>
