<svg xmlns="http://www.w3.org/2000/svg" width="71.584" height="96.265" viewBox="0 0 71.584 96.265">
  <g id="Group_1262" data-name="Group 1262" transform="translate(-1473.898 -6008.956)">
    <g id="Group_1263" data-name="Group 1263" transform="translate(1473.898 6008.956)">
      <path id="Path_2788" data-name="Path 2788" d="M1558.7,6559.73a13.156,13.156,0,0,0-9.346,22.464,13.414,13.414,0,0,0,6.763,3.6,13.259,13.259,0,0,0,7.612-.747,13.162,13.162,0,0,0-5.03-25.319Zm0,19.746a6.671,6.671,0,0,1-3.671-1.122,6.525,6.525,0,0,1-2.447-2.956,6.916,6.916,0,0,1-.374-3.808,6.794,6.794,0,0,1,1.8-3.363,6.872,6.872,0,0,1,3.4-1.8,6.648,6.648,0,0,1,3.807.373,7.061,7.061,0,0,1,2.957,2.413,6.728,6.728,0,0,1,1.087,3.671,6.614,6.614,0,0,1-6.559,6.593Z" transform="translate(-1522.889 -6537.079)" fill="#305624"/>
      <path id="Path_2789" data-name="Path 2789" d="M1599.937,6563.549a35.784,35.784,0,0,0-55.3,44.828l24.877,38.2a6.372,6.372,0,0,0,2.209,2.039,6.268,6.268,0,0,0,5.812,0,6.369,6.369,0,0,0,2.209-2.039l24.877-38.2a35.756,35.756,0,0,0-4.69-44.828Zm-.816,41.225-24.469,37.588-24.47-37.588a29.254,29.254,0,0,1,3.806-36.567,29.234,29.234,0,0,1,41.292,0A29.3,29.3,0,0,1,1599.121,6604.773Z" transform="translate(-1538.844 -6553.066)" fill="#305624"/>
    </g>
  </g>
</svg>
