<svg xmlns="http://www.w3.org/2000/svg" width="28.57" height="28.57" viewBox="0 0 28.57 28.57">
  <g id="Group_1247" data-name="Group 1247" transform="translate(0 0)">
    <circle id="Ellipse_171" data-name="Ellipse 171" cx="14.285" cy="14.285" r="14.285" transform="translate(0 0)" fill="#80a868"/>
    <path id="Path_2926" data-name="Path 2926" d="M1222.867,1900.332v4h-2.34v-3.753c0-.927-.34-1.558-1.167-1.558a1.243,1.243,0,0,0-1.174.826,1.979,1.979,0,0,0-.094.587v3.9h-2.34s.051-6.332,0-6.969h2.34v.978a2.282,2.282,0,0,1,2.094-1.174C1221.7,1897.166,1222.867,1898.188,1222.867,1900.332Zm-9.549-6.332a1.233,1.233,0,0,0-1.319,1.217,1.189,1.189,0,0,0,1.268,1.217,1.209,1.209,0,0,0,1.319-1.217A1.122,1.122,0,0,0,1213.319,1894Zm-1.174,10.331h2.34v-6.969h-2.34Z" transform="translate(-1202.979 -1885.341)" fill="#fff"/>
  </g>
</svg>
