<svg id="Group_1178" data-name="Group 1178" xmlns="http://www.w3.org/2000/svg" xmlns:xlink="http://www.w3.org/1999/xlink" width="46.969" height="43.771" viewBox="0 0 46.969 43.771">
  <defs>
    <clipPath id="clip-path">
      <rect id="Rectangle_872" data-name="Rectangle 872" width="46.969" height="43.771" fill="#80a868"/>
    </clipPath>
  </defs>
  <g id="Group_1178-2" data-name="Group 1178" clip-path="url(#clip-path)">
    <path id="Path_3282" data-name="Path 3282" d="M22.364,17.616a35.993,35.993,0,0,0,.26,4.037,5.82,5.82,0,0,0-.767-.486c.041-5.394-5.414-8.635-8.325-9.245-4.22-.884-7.351,2.488-10.373,2.287a24.476,24.476,0,0,1,1.709,1.845C11.7,24.937,17.3,23.62,21.715,21.844a7.407,7.407,0,0,1,1.043.834c.543,3.808,1.546,7.506,2.38,11.757.1.5.2,1.04.291,1.6A8.345,8.345,0,0,0,23.7,34.95c-.127-7.3-7.215-10.189-12.364-10.315C6.428,24.515,3.755,27.05,0,27.592a5.046,5.046,0,0,1,2.418,1.762c8.814,10.687,15.678,8.875,21.072,6.5A10.559,10.559,0,0,1,25.678,37.6c.271,1.805.507,3.725.673,5.461.058.612.408.741.733.708a.665.665,0,0,0,.655-.731c-.344-2.538-.669-5.249-1.171-7.743a14.707,14.707,0,0,1,1.489-4.744c3.5-.771,8.947-2.127,15.26-10.527,1.037-1.38,2.747-4.737,3.653-5.765-3.932.783-10.691-1.318-15.315,1.653C28.4,18,25.385,22.419,27.512,30.215a13.377,13.377,0,0,0-1.392,3.078c-1.175-4.957-2.554-9.8-3.128-15.665,1.878-1.879,4.68-4.91,5.278-12.576C28.369,3.778,28.1,1,28.261,0c-2.142,2.053-7.192,3.429-8.9,7.123-1.192,2.581-1.326,6.5,3,10.494M2.507,28.08h0a41.236,41.236,0,0,1,6.208,1.008,6.8,6.8,0,0,0-1.892-1.96,6.6,6.6,0,0,1,2.261,2.045c1.155.269,2.359.581,3.561.931a11.782,11.782,0,0,0-2.065-3.948,10.564,10.564,0,0,1,2.445,4.06c1.1.327,2.193.684,3.242,1.066a10.678,10.678,0,0,0-2.181-4.915,9.609,9.609,0,0,1,2.637,5.083c1.116.42,2.173.869,3.123,1.341A7.848,7.848,0,0,0,18,27.92a7.258,7.258,0,0,1,2.121,5.009,13.621,13.621,0,0,1,2.8,1.82,30.423,30.423,0,0,0-2.943-1.511,12.435,12.435,0,0,1-5.142,2.178,11.98,11.98,0,0,0,4.849-2.31c-1-.444-2.067-.871-3.166-1.276A14.193,14.193,0,0,1,9.776,34.2,14.709,14.709,0,0,0,16.1,31.679c-1.069-.385-2.165-.75-3.263-1.091a11.1,11.1,0,0,1-5.265,1.52,11.385,11.385,0,0,0,4.959-1.614c-1.275-.39-2.548-.746-3.78-1.064a7.651,7.651,0,0,1-3.383.888,7.229,7.229,0,0,0,3.052-.973c-2.2-.559-4.251-.992-5.911-1.265m5.97-13.7h0a5.321,5.321,0,0,1,1.766,1.708c.923.248,1.884.532,2.843.846A9.5,9.5,0,0,0,11.529,13.7a8.513,8.513,0,0,1,1.859,3.336c.877.293,1.748.61,2.582.947a8.61,8.61,0,0,0-1.623-4.018,7.745,7.745,0,0,1,1.986,4.166c.887.369,1.727.759,2.479,1.165a6.324,6.324,0,0,0-1.356-3.974,5.849,5.849,0,0,1,1.572,4.092,10.97,10.97,0,0,1,2.206,1.542,24.55,24.55,0,0,0-2.329-1.3,10.028,10.028,0,0,1-4.2,1.614,9.662,9.662,0,0,0,3.968-1.729c-.795-.386-1.641-.758-2.515-1.114a11.44,11.44,0,0,1-5.493,1.722A11.856,11.856,0,0,0,15.824,18.3c-.85-.339-1.724-.663-2.6-.967a8.953,8.953,0,0,1-4.282,1.081,9.176,9.176,0,0,0,4.038-1.165c-1.016-.349-2.032-.67-3.016-.96a6.161,6.161,0,0,1-2.749.623,5.826,5.826,0,0,0,2.485-.7c-1.757-.511-3.4-.915-4.727-1.18a33.191,33.191,0,0,1,4.973.98,5.486,5.486,0,0,0-1.471-1.63M24.717,2.969h0a4.744,4.744,0,0,0,.45,2.847c.775-1.642,1.581-3.113,2.208-4.155-.6,1.283-1.279,2.712-1.935,4.214a2.736,2.736,0,0,0,1.483-1.321,2.649,2.649,0,0,1-1.587,1.562c-.3.693-.593,1.4-.87,2.115a4.613,4.613,0,0,0,2.049-1.806,4.3,4.3,0,0,1-2.131,2.022c-.3.792-.583,1.592-.828,2.39a6.273,6.273,0,0,0,2.8-2.422,5.667,5.667,0,0,1-2.881,2.695,24.307,24.307,0,0,0-.583,2.37,8.3,8.3,0,0,0,3.221-2.91,7.9,7.9,0,0,1-3.285,3.263,15.494,15.494,0,0,0-.219,2.069,6.941,6.941,0,0,1-.058-2.04A7.731,7.731,0,0,1,20,9.491a8.183,8.183,0,0,0,2.6,3.995,16.962,16.962,0,0,1,.529-2.416,7.252,7.252,0,0,1-2.374-4.818c.4,1.764,1.283,3.684,2.467,4.506.232-.764.509-1.542.813-2.313a6.021,6.021,0,0,1-1.433-3.706,6.39,6.39,0,0,0,1.542,3.432c.291-.721.6-1.434.922-2.119a4.339,4.339,0,0,1-.34-3.083m16.057,12.1h0a6.406,6.406,0,0,0-1.551,3.573c2.075-1.308,4.062-2.4,5.532-3.132-1.613,1.027-3.426,2.162-5.263,3.4a3.7,3.7,0,0,0,2.649-.428A3.579,3.579,0,0,1,39.2,19.1c-.844.572-1.692,1.165-2.526,1.778a6.228,6.228,0,0,0,3.646-.57,5.81,5.81,0,0,1-3.9.756c-.919.683-1.819,1.391-2.677,2.123a8.469,8.469,0,0,0,4.949-.727,7.65,7.65,0,0,1-5.24.978,32.763,32.763,0,0,0-2.385,2.278,11.213,11.213,0,0,0,5.784-.976,10.659,10.659,0,0,1-6.113,1.332,20.877,20.877,0,0,0-1.751,2.2A9.373,9.373,0,0,1,30.4,25.908a10.452,10.452,0,0,1,.258-6.839,11.061,11.061,0,0,0,.066,6.441,22.815,22.815,0,0,1,2.355-2.369c-.893-2.48-.132-5.267.785-7.217-.824,2.3-1.207,5.132-.454,6.929.818-.7,1.7-1.388,2.6-2.046a8.134,8.134,0,0,1,1.053-5.266,8.634,8.634,0,0,0-.73,5.033c.854-.611,1.727-1.2,2.588-1.745a5.855,5.855,0,0,1,1.848-3.761" fill="#80a868"/>
  </g>
</svg>
