<svg xmlns="http://www.w3.org/2000/svg" xmlns:xlink="http://www.w3.org/1999/xlink" width="126" height="117.422" viewBox="0 0 126 117.422">
  <defs>
    <clipPath id="clip-path">
      <rect id="Rectangle_872" data-name="Rectangle 872" width="126" height="117.422" fill="#346715"/>
    </clipPath>
  </defs>
  <g id="Group_1178" data-name="Group 1178" clip-path="url(#clip-path)">
    <path id="Path_3282" data-name="Path 3282" d="M59.993,47.258a96.557,96.557,0,0,0,.7,10.83,15.614,15.614,0,0,0-2.058-1.3c.11-14.47-14.523-23.164-22.333-24.8-11.319-2.371-19.719,6.673-27.826,6.136,1.936,2.243,2.355,2.051,4.586,4.949C31.4,66.9,46.4,63.364,58.252,58.6a19.869,19.869,0,0,1,2.8,2.237c1.456,10.214,4.148,20.135,6.385,31.54.265,1.352.526,2.791.78,4.287a22.385,22.385,0,0,0-4.625-2.9c-.342-19.576-19.354-27.334-33.168-27.671C17.243,65.763,10.072,72.564,0,74.019c2.514,1.265,3.6,1.227,6.487,4.728,23.645,28.669,42.057,23.808,56.528,17.437a28.326,28.326,0,0,1,5.87,4.677c.728,4.843,1.36,9.994,1.8,14.649.157,1.642,1.1,1.988,1.966,1.9a1.784,1.784,0,0,0,1.756-1.961c-.923-6.808-1.794-14.081-3.142-20.772A39.453,39.453,0,0,1,75.263,81.95c9.392-2.07,24-5.706,40.937-28.238,2.782-3.7,7.369-12.707,9.8-15.465-10.549,2.1-28.679-3.536-41.084,4.435C76.187,48.29,68.1,60.141,73.8,81.056a35.885,35.885,0,0,0-3.735,8.257c-3.152-13.3-6.85-26.281-8.391-42.024,5.038-5.041,12.554-13.172,14.159-33.737C76.1,10.134,75.39,2.687,75.812,0,70.065,5.507,56.518,9.2,51.943,19.108c-3.2,6.925-3.558,17.441,8.05,28.151M6.724,75.328h0a110.619,110.619,0,0,1,16.654,2.7A18.252,18.252,0,0,0,18.3,72.775a17.713,17.713,0,0,1,6.067,5.485c3.1.721,6.327,1.559,9.552,2.5a31.605,31.605,0,0,0-5.54-10.591,28.338,28.338,0,0,1,6.558,10.89c2.95.876,5.883,1.834,8.7,2.861a28.645,28.645,0,0,0-5.852-13.184,25.778,25.778,0,0,1,7.074,13.637c2.993,1.127,5.83,2.332,8.378,3.6.222-4.241-2.024-9.479-4.956-13.067C51.1,77.64,54.366,83.5,53.968,88.336a36.54,36.54,0,0,1,7.514,4.883,81.612,81.612,0,0,0-7.9-4.052c-2.858,2.469-9.321,5.152-13.795,5.843a32.138,32.138,0,0,0,13.007-6.2c-2.689-1.192-5.546-2.336-8.494-3.423-5.131,3.91-12.578,5.767-18.081,6.347,6.383-1.125,13.394-3.7,16.962-6.755-2.867-1.034-5.808-2.012-8.754-2.925-3.212,2.458-9.886,3.879-14.124,4.078,4.91-.584,10.455-2.155,13.3-4.33-3.42-1.045-6.836-2-10.139-2.855-2.219,1.495-6.358,2.255-9.076,2.382a19.393,19.393,0,0,0,8.188-2.61c-5.9-1.5-11.4-2.66-15.858-3.394M22.739,38.582h0a14.273,14.273,0,0,1,4.737,4.583c2.476.666,5.054,1.428,7.626,2.271a25.483,25.483,0,0,0-4.174-8.681,22.838,22.838,0,0,1,4.986,8.95c2.352.786,4.689,1.637,6.927,2.54a23.1,23.1,0,0,0-4.355-10.778,20.778,20.778,0,0,1,5.327,11.176c2.38.99,4.633,2.037,6.65,3.126.295-3.41-1.372-7.69-3.636-10.66,2.2,2.285,4.669,7.1,4.217,10.978a29.429,29.429,0,0,1,5.919,4.137,65.858,65.858,0,0,0-6.248-3.478c-2.369,1.911-7.649,3.9-11.271,4.331a25.918,25.918,0,0,0,10.645-4.637c-2.133-1.034-4.4-2.033-6.748-2.988-4.24,3.01-10.288,4.3-14.736,4.62,5.172-.733,10.888-2.613,13.846-4.98-2.281-.91-4.624-1.779-6.972-2.594-2.655,1.892-8.068,2.855-11.488,2.9,3.971-.336,8.48-1.452,10.833-3.126-2.727-.935-5.452-1.8-8.09-2.576-1.829,1.144-5.183,1.644-7.376,1.672a15.63,15.63,0,0,0,6.666-1.879c-4.714-1.37-9.114-2.453-12.681-3.165a89.039,89.039,0,0,1,13.341,2.63,14.717,14.717,0,0,0-3.946-4.372M66.307,7.965h0A12.726,12.726,0,0,0,67.516,15.6c2.08-4.4,4.242-8.352,5.923-11.146-1.606,3.442-3.432,7.276-5.191,11.3a7.341,7.341,0,0,0,3.977-3.543,7.107,7.107,0,0,1-4.259,4.189c-.8,1.859-1.591,3.756-2.334,5.673,2.072-.722,4.1-2.752,5.5-4.846a11.537,11.537,0,0,1-5.718,5.423c-.811,2.124-1.564,4.27-2.22,6.411,2.781-.944,5.646-3.711,7.508-6.5A15.2,15.2,0,0,1,62.969,29.8,65.2,65.2,0,0,0,61.4,36.16c2.984-1.234,6.382-4.453,8.641-7.805-1.7,3.051-4.788,6.887-8.812,8.754a41.564,41.564,0,0,0-.589,5.551,18.62,18.62,0,0,1-.157-5.471c-3.823-2.866-5.969-7.865-6.848-11.727,1.4,4.3,4.073,8.741,6.967,10.716A45.5,45.5,0,0,1,62.025,29.7c-4.135-3.2-5.828-8.679-6.369-12.924,1.07,4.731,3.443,9.883,6.617,12.088.622-2.049,1.366-4.137,2.18-6.206-2.613-2.7-3.651-6.817-3.843-9.942.551,3.526,2.091,7.28,4.137,9.208.779-1.935,1.617-3.846,2.474-5.684a11.64,11.64,0,0,1-.912-8.271m43.075,32.454h0c-2.31,2.774-4.091,6.536-4.161,9.585,5.567-3.509,10.9-6.437,14.839-8.4-4.328,2.756-9.19,5.8-14.118,9.112a9.916,9.916,0,0,0,7.106-1.148,9.6,9.6,0,0,1-7.9,1.681c-2.265,1.534-4.538,3.124-6.776,4.769,2.887.685,6.673-.157,9.782-1.529A15.587,15.587,0,0,1,97.7,56.515c-2.465,1.832-4.879,3.73-7.181,5.694,3.857.946,9.131-.127,13.275-1.95-3.484,1.958-8.72,3.793-14.057,2.623a87.889,87.889,0,0,0-6.4,6.112c4.3.762,10.508-.437,15.516-2.618-4.154,2.241-10.455,4.371-16.4,3.575a56.006,56.006,0,0,0-4.7,5.9,25.143,25.143,0,0,1,3.789-6.35c-2.283-6.046-1.105-13.3.693-18.346-1.528,5.917-1.692,12.924.177,17.279a61.2,61.2,0,0,1,6.318-6.356c-2.4-6.654-.355-14.129,2.105-19.361-2.21,6.171-3.239,13.768-1.218,18.588,2.195-1.882,4.557-3.723,6.987-5.489-1.021-4.979.779-10.425,2.825-14.127-1.929,4.419-2.893,9.819-1.958,13.5,2.291-1.639,4.633-3.208,6.943-4.681.157-4.137,2.636-7.827,4.957-10.09" fill="#346715" fill-rule="evenodd"/>
  </g>
</svg>
