<svg xmlns="http://www.w3.org/2000/svg" width="117.212" height="117.211" viewBox="0 0 117.212 117.211">
  <path id="Icon_awesome-phone-alt" data-name="Icon awesome-phone-alt" d="M102.178,74.322,79.17,64.461a4.93,4.93,0,0,0-5.752,1.417L63.229,78.328a76.143,76.143,0,0,1-36.4-36.4L39.278,31.739A4.918,4.918,0,0,0,40.7,25.987L30.835,2.979A4.963,4.963,0,0,0,25.185.124L3.821,5.054A4.93,4.93,0,0,0,0,9.859a95.307,95.307,0,0,0,95.318,95.318,4.93,4.93,0,0,0,4.807-3.821l4.93-21.364a4.99,4.99,0,0,0-2.878-5.67Z" transform="translate(12.818) rotate(7)" fill="#346715"/>
</svg>
