<svg xmlns="http://www.w3.org/2000/svg" width="117.212" height="79.121" viewBox="0 0 117.212 79.121">
  <path id="Icon_zocial-email" data-name="Icon zocial-email" d="M.072,76.181v-65.1q0-.113.339-2.148L38.728,41.707.524,78.441a9.579,9.579,0,0,1-.452-2.261ZM5.158,4.407A4.871,4.871,0,0,1,7.08,4.068h103.2a6.4,6.4,0,0,1,2.035.339L73.88,37.3l-5.086,4.069-10.06,8.251-10.06-8.251L43.588,37.3ZM5.271,82.85,43.814,45.889l14.92,12.094,14.92-12.094L112.2,82.85a5.427,5.427,0,0,1-1.922.339H7.08a5.119,5.119,0,0,1-1.808-.339ZM78.741,41.707l38.2-32.779a6.746,6.746,0,0,1,.339,2.148v65.1a8.663,8.663,0,0,1-.339,2.261Z" transform="translate(-0.072 -4.068)" fill="#305624"/>
</svg>
