<svg xmlns="http://www.w3.org/2000/svg" width="61" height="61" viewBox="0 0 61 61">
  <g id="Group_1256" data-name="Group 1256" transform="translate(-0.144)">
    <circle id="Ellipse_28" data-name="Ellipse 28" cx="30.5" cy="30.5" r="30.5" transform="translate(0.144)" fill="#346715"/>
    <path id="Path_2769" data-name="Path 2769" d="M1311.054,6573.6v8.462h-4.944v-7.938c0-1.966-.722-3.3-2.49-3.3a2.628,2.628,0,0,0-2.472,1.751,3.729,3.729,0,0,0-.2,1.244v8.245h-4.962s.108-13.4,0-14.74h4.962v2.057a4.859,4.859,0,0,1,4.438-2.472C1308.582,6566.912,1311.054,6569.078,1311.054,6573.6Zm-20.226-13.4a2.608,2.608,0,0,0-2.778,2.579,2.521,2.521,0,0,0,2.688,2.581,2.548,2.548,0,0,0,2.778-2.581C1293.625,6561.229,1292.6,6560.2,1290.828,6560.2Zm-2.472,21.866h4.962v-14.74h-4.962Z" transform="translate(-1268.204 -6540.354)" fill="#e7e7e7"/>
  </g>
</svg>
