<svg xmlns="http://www.w3.org/2000/svg" width="234.924" height="57" viewBox="0 0 234.924 57">
  <g id="Path_1" data-name="Path 1" transform="translate(117.462 28.5)">
    <path id="Path_1-2" data-name="Path 1" d="M148.914.019v17.5a91.407,91.407,0,0,1,17.15-1.343V11.448h7.825v5.145a57.81,57.81,0,0,1,7.864,1.391c-1.264,1.407-5.405,2.558-7.864,3.137v2.553c.718.2,1.437.433,2.15.689,4.864,1.746,9.192,5.016,13.6,8.253,0,0,4.805,13.181,1.662,18.138a65.1,65.1,0,0,1-11.568-4.539c-1.942-.983-3.89-1.913-5.843-2.808V56.982h20.578V51.561c-.477-.108-.954-.216-1.436-.34.585-2.449,1.274-8.336-1.806-17.868,1.013.709,2.09,1.461,3.242,2.262V33.944c-6.359-4.544-12.044-9.727-18.905-11.223,3.685-.089,7.363-3.2,8.392-4.141a56.367,56.367,0,0,1,10.511,4.291V11.453h18.414l-8.115,19.033c.255.26.526.531.821.816a5.965,5.965,0,0,1-2.341,2.754l-1.3,3.052a19.729,19.729,0,0,0,5.538-4.482,147.52,147.52,0,0,0,12.742,11.434l14.687-32.608V.019Zm77.594,48.286c-.551-.059-3.051-.32-3.826-.358-4.077-.191-17.3-7.54-21.158-9.851l-.763,1.8a74.412,74.412,0,0,0,21.891,9.074c1.621.265,7.584.777,7.584.777a68.53,68.53,0,0,1-33.227,2.346v4.9h37.914V45.556h-12.7a40.766,40.766,0,0,0,4.284,2.75ZM147.8,23.159l-.447-1a163.062,163.062,0,0,0-16.673,3.767c-2.4.674-4.8,1.293-7.161,2.1,0,0-.581.231-1.5.6a62.407,62.407,0,0,1,23.563-10.437L137.484.019h-17.15V30.093a25.357,25.357,0,0,1,3.305-1.062C133.274,26.7,141.065,24.452,147.8,23.159ZM162.459,20.4c-4.569.281-9.074.8-13.542,1.505v1.049a54.978,54.978,0,0,1,7.677-.9c1.662,1.4,9.831,8.78,7.426,17.243a92.85,92.85,0,0,0-25.594-5.922l9.727,23.608h17.913V40.083c-.113-.044-.226-.095-.34-.137a4.91,4.91,0,0,0,.34-.732V33.768c-.709-2.833-2.489-6.676-6.359-11.76,1.614-.039,4.51.133,6.359.281V20.414a28.437,28.437,0,0,0-3.607-.015ZM120.334,34.864V46.785l-2.326-11.263a48.2,48.2,0,0,0-14.17,7.082,73.732,73.732,0,0,1-6.344,4.106h2.991L101.629,57h35.858V33.325A56.283,56.283,0,0,0,120.334,34.864ZM42.37,48.911c7.176,2.75,13.637,4.309,17.819,4.068,14.105-.816,28.013-5.459,40.86-11.641,5.627-2.711,10.629-6.925,16.142-9.793L110.679.019H81.053L72.716,45.556H62.948V.019H42.37V5.655A9.617,9.617,0,0,0,40.5,3.721,16.553,16.553,0,0,0,33.7.972,66.92,66.92,0,0,0,20.755.019H0V56.986H20.578V43.471a53.8,53.8,0,0,1-5.769-4.456C13.107,37.5,3.7,27.448,1.741,24.954c.871-.59-.866-3.452,0-4.018a91.238,91.238,0,0,0,17.3,15.9c.506.34,1.023.674,1.539,1.008V34.125h5.537A36.948,36.948,0,0,0,37.069,32.79a10.936,10.936,0,0,0,5.3-3.208ZM96.721,12.619Q98.366,26.96,99.8,36.6H92.87Q93.69,29.134,96.721,12.619ZM27.247,19.187c0,2.13-.374,3.537-1.121,4.21S24.04,24.41,22.12,24.41c-.433,0-.953-.009-1.544-.034V9.738q4.08,0,5.376.89c.866.59,1.293,1.869,1.293,3.837v4.723Zm17.15,34.8c-.667-.191-1.348-.381-2.027-.586v3.586H91.818l.858-7.736A68.746,68.746,0,0,1,44.4,53.986Z" transform="translate(-117.462 -28.5)" fill="#305624"/>
  </g>
</svg>
