<svg id="Group_1248" data-name="Group 1248" xmlns="http://www.w3.org/2000/svg" width="29.669" height="28.57" viewBox="0 0 29.669 28.57">
  <ellipse id="Ellipse_172" data-name="Ellipse 172" cx="14.835" cy="14.285" rx="14.835" ry="14.285" fill="#80a868"/>
  <path id="Path_2927" data-name="Path 2927" d="M1166.425,1895.384a5.189,5.189,0,0,0-3.7-1.384,5.841,5.841,0,0,0-4.282,1.674,4.85,4.85,0,0,0-1.442,3.412,3.2,3.2,0,0,0,1.732,3.18.349.349,0,0,0,.232.058.492.492,0,0,0,.464-.406c.058-.116.116-.464.174-.638a.636.636,0,0,0-.174-.63,2.115,2.115,0,0,1-.464-1.391,3.47,3.47,0,0,1,3.586-3.47c1.847,0,3.007,1.043,3.007,2.717a5.921,5.921,0,0,1-.637,2.775,1.888,1.888,0,0,1-1.558,1.1.877.877,0,0,1-.811-.406,1.006,1.006,0,0,1-.174-.812,6.919,6.919,0,0,1,.29-1.036,8.147,8.147,0,0,0,.406-1.739,1.279,1.279,0,0,0-1.275-1.384,1.992,1.992,0,0,0-1.732,2.2,3.335,3.335,0,0,0,.232,1.217c-.116.514-.869,3.579-.985,4.1-.058.348-.579,3.007.232,3.181.869.232,1.674-2.369,1.731-2.659.058-.232.29-1.159.406-1.673a2.677,2.677,0,0,0,1.8.688,3.921,3.921,0,0,0,3.173-1.615,6.489,6.489,0,0,0,1.217-3.934A4.776,4.776,0,0,0,1166.425,1895.384Z" transform="translate(-1147.167 -1886.44)" fill="#fff"/>
</svg>
