<svg xmlns="http://www.w3.org/2000/svg" width="61" height="61" viewBox="0 0 61 61">
  <g id="Group_1254" data-name="Group 1254" transform="translate(-0.471)">
    <circle id="Ellipse_32" data-name="Ellipse 32" cx="30.5" cy="30.5" r="30.5" transform="translate(0.471)" fill="#e7e7e7"/>
    <path id="Path_2777" data-name="Path 2777" d="M1415.893,6562.274a10.86,10.86,0,0,0-7.8-2.924,12.2,12.2,0,0,0-8.989,3.534,10.1,10.1,0,0,0-3.05,7.176c0,3.284,1.346,5.724,3.66,6.692.108.126.359.126.484.126a1.045,1.045,0,0,0,.969-.861c.125-.233.233-.969.359-1.328a1.384,1.384,0,0,0-.359-1.345,4.445,4.445,0,0,1-.969-2.925,7.285,7.285,0,0,1,7.536-7.3c3.893,0,6.333,2.188,6.333,5.724a12.5,12.5,0,0,1-1.346,5.848,3.955,3.955,0,0,1-3.283,2.3,1.822,1.822,0,0,1-1.7-.844,2.117,2.117,0,0,1-.359-1.705,14.313,14.313,0,0,1,.61-2.188,17.4,17.4,0,0,0,.843-3.66,2.677,2.677,0,0,0-2.673-2.906c-2.063,0-3.642,2.063-3.642,4.611a7.012,7.012,0,0,0,.484,2.564c-.251,1.1-1.83,7.536-2.081,8.63-.108.736-1.2,6.334.484,6.692,1.83.484,3.534-4.987,3.66-5.6.126-.484.61-2.422.844-3.517a5.622,5.622,0,0,0,3.785,1.453,8.311,8.311,0,0,0,6.692-3.408,13.668,13.668,0,0,0,2.548-8.271A10.031,10.031,0,0,0,1415.893,6562.274Z" transform="translate(-1376.315 -6543.204)" fill="#346715"/>
  </g>
</svg>
