<svg xmlns="http://www.w3.org/2000/svg" width="21.153" height="21.152" viewBox="0 0 21.153 21.152">
  <path id="Path_2704" data-name="Path 2704" d="M-557.289-1701.682l5.737,5.363a1.885,1.885,0,0,1,.221.255,1.617,1.617,0,0,1,.171.3l0,.006a1.707,1.707,0,0,1,.1.32,1.718,1.718,0,0,1,.036.335,1.751,1.751,0,0,1-.023.33,1.642,1.642,0,0,1-.1.329,1.69,1.69,0,0,1-.158.3,1.693,1.693,0,0,1-.217.265l-.774.772a1.737,1.737,0,0,1-.258.212,1.676,1.676,0,0,1-.3.162l-.009,0a1.7,1.7,0,0,1-.32.089,1.772,1.772,0,0,1-.333.026,1.685,1.685,0,0,1-.335-.038,1.6,1.6,0,0,1-.324-.105,1.522,1.522,0,0,1-.3-.169,1.669,1.669,0,0,1-.259-.225l-5.364-5.738a7.937,7.937,0,0,1-1.649.741,8.021,8.021,0,0,1-2.435.381,8.014,8.014,0,0,1-3.062-.609,7.978,7.978,0,0,1-2.591-1.734l0,0a7.988,7.988,0,0,1-1.734-2.589,8.039,8.039,0,0,1-.61-3.065,8.011,8.011,0,0,1,.61-3.062,7.983,7.983,0,0,1,1.733-2.595,8,8,0,0,1,2.592-1.734,8.036,8.036,0,0,1,3.065-.61,7.976,7.976,0,0,1,5.657,2.342,8.022,8.022,0,0,1,1.734,2.6,8.011,8.011,0,0,1,.61,3.062,7.992,7.992,0,0,1-1.122,4.086Zm4.719,6.457-6.679-6.24.38-.533a6.486,6.486,0,0,0,1.2-3.77,6.518,6.518,0,0,0-.493-2.494,6.487,6.487,0,0,0-1.41-2.1,6.49,6.49,0,0,0-4.6-1.9,6.519,6.519,0,0,0-2.491.492,6.5,6.5,0,0,0-2.1,1.409,6.513,6.513,0,0,0-1.411,2.1,6.518,6.518,0,0,0-.493,2.494,6.531,6.531,0,0,0,.491,2.491,6.512,6.512,0,0,0,1.409,2.1l0,0a6.461,6.461,0,0,0,2.1,1.408,6.517,6.517,0,0,0,2.494.493,6.515,6.515,0,0,0,1.984-.306,6.437,6.437,0,0,0,1.785-.9l.533-.38,6.242,6.677a.188.188,0,0,0,.135.062l.051,0,.062-.026c.268-.229.554-.549.809-.8l.024-.03.018-.033.014-.079-.018-.08a.266.266,0,0,0-.042-.06Z" transform="translate(572.167 1713.767)" fill="#203e1b"/>
</svg>
