<svg xmlns="http://www.w3.org/2000/svg" width="61" height="61" viewBox="0 0 61 61">
  <g id="Group_1411" data-name="Group 1411" transform="translate(-487)">
    <circle id="Ellipse_33" data-name="Ellipse 33" cx="30.5" cy="30.5" r="30.5" transform="translate(487)" fill="#346715"/>
    <g id="Group_1253" data-name="Group 1253" transform="translate(505.183 18.042)">
      <path id="Path_2779" data-name="Path 2779" d="M1452.514,6569.64a2.787,2.787,0,0,0-2.283.936,3.135,3.135,0,0,0-.951,2.3,2.755,2.755,0,0,0,.951,2.283,3.147,3.147,0,0,0,2.283.935,2.8,2.8,0,0,0,2.3-.935,3.179,3.179,0,0,0,.935-2.283,3.195,3.195,0,0,0-3.234-3.233Z" transform="translate(-1449.153 -6551.981)" fill="#e7e7e7"/>
      <path id="Path_2781" data-name="Path 2781" d="M1460.249,6568.548a16.583,16.583,0,0,0-4.455-3.092,13.883,13.883,0,0,0-5.247-1.347h-.143a2.031,2.031,0,0,0-.809.27,1.153,1.153,0,0,0-.4.809v2.3a.956.956,0,0,0,.27.666c.127.269.4.269.666.4a10.654,10.654,0,0,1,6.737,3.25,10.947,10.947,0,0,1,3.234,6.736.729.729,0,0,0,.412.665,1.361,1.361,0,0,0,.809.27h2.282a1.18,1.18,0,0,0,.809-.411.96.96,0,0,0,.269-.793,16.384,16.384,0,0,0-1.347-5.262A15.578,15.578,0,0,0,1460.249,6568.548Z" transform="translate(-1449.2 -6555.217)" fill="#e7e7e7"/>
      <path id="Path_2783" data-name="Path 2783" d="M1471.424,6572.909a22.73,22.73,0,0,0-5.12-7.261,27.029,27.029,0,0,0-7.276-5.119,23.749,23.749,0,0,0-8.623-2.028,1.813,1.813,0,0,0-.809.27,1.15,1.15,0,0,0-.4.809V6562a1.813,1.813,0,0,0,.27.81c.127.27.4.27.666.27a17.771,17.771,0,0,1,7.006,1.744,19.644,19.644,0,0,1,5.8,4.042,20.373,20.373,0,0,1,4.042,5.8,17.773,17.773,0,0,1,1.744,7.007,1.031,1.031,0,0,0,.27.666,1.414,1.414,0,0,0,.808.269h2.426a1.154,1.154,0,0,0,.808-.4.99.99,0,0,0,.27-.809A21.462,21.462,0,0,0,1471.424,6572.909Z" transform="translate(-1449.2 -6558.5)" fill="#e7e7e7"/>
    </g>
  </g>
</svg>
