<svg xmlns="http://www.w3.org/2000/svg" width="61" height="61" viewBox="0 0 61 61">
  <g id="Group_1412" data-name="Group 1412" transform="translate(-484)">
    <circle id="Ellipse_33" data-name="Ellipse 33" cx="30.5" cy="30.5" r="30.5" transform="translate(484)" fill="#e7e7e7"/>
    <g id="Group_1253" data-name="Group 1253" transform="translate(504.147 18.442)">
      <path id="Path_2779" data-name="Path 2779" d="M1452.5,6569.64a2.772,2.772,0,0,0-2.27.93,3.121,3.121,0,0,0-.946,2.286,2.736,2.736,0,0,0,.946,2.27,3.13,3.13,0,0,0,2.27.93,2.783,2.783,0,0,0,2.285-.93,3.158,3.158,0,0,0,.93-2.27,3.175,3.175,0,0,0-3.215-3.216Z" transform="translate(-1449.154 -6552.081)" fill="#346715"/>
      <path id="Path_2781" data-name="Path 2781" d="M1460.187,6568.524a16.46,16.46,0,0,0-4.429-3.074,13.81,13.81,0,0,0-5.217-1.34h-.142a2.026,2.026,0,0,0-.8.269,1.146,1.146,0,0,0-.394.8v2.286a.95.95,0,0,0,.268.662c.126.268.394.268.662.394a10.6,10.6,0,0,1,6.7,3.231,10.888,10.888,0,0,1,3.215,6.7.723.723,0,0,0,.41.661,1.354,1.354,0,0,0,.8.269h2.27a1.176,1.176,0,0,0,.8-.409.955.955,0,0,0,.268-.789,16.3,16.3,0,0,0-1.34-5.232A15.5,15.5,0,0,0,1460.187,6568.524Z" transform="translate(-1449.2 -6555.267)" fill="#346715"/>
      <path id="Path_2783" data-name="Path 2783" d="M1471.3,6572.828a22.588,22.588,0,0,0-5.091-7.22,26.866,26.866,0,0,0-7.235-5.091,23.613,23.613,0,0,0-8.575-2.018,1.8,1.8,0,0,0-.8.269,1.142,1.142,0,0,0-.394.8v2.411a1.8,1.8,0,0,0,.268.8c.126.269.394.269.662.269a17.665,17.665,0,0,1,6.967,1.734,19.537,19.537,0,0,1,5.769,4.02,20.271,20.271,0,0,1,4.02,5.769,17.676,17.676,0,0,1,1.734,6.967,1.023,1.023,0,0,0,.268.662,1.4,1.4,0,0,0,.8.268h2.412a1.146,1.146,0,0,0,.8-.394.984.984,0,0,0,.268-.8A21.337,21.337,0,0,0,1471.3,6572.828Z" transform="translate(-1449.2 -6558.5)" fill="#346715"/>
    </g>
  </g>
</svg>
