<svg xmlns="http://www.w3.org/2000/svg" width="62" height="61" viewBox="0 0 62 61">
  <g id="Group_1257" data-name="Group 1257" transform="translate(0.428)">
    <ellipse id="Ellipse_31" data-name="Ellipse 31" cx="31" cy="30.5" rx="31" ry="30.5" transform="translate(-0.428)" fill="#346715"/>
    <path id="Path_3328" data-name="Path 3328" d="M1262.408,6563.956a12.777,12.777,0,0,1-3.536.92,6.523,6.523,0,0,0,2.76-3.375,11.19,11.19,0,0,1-3.987,1.534,6.007,6.007,0,0,0-4.438-1.984,6.153,6.153,0,0,0-6.134,6.135,4.442,4.442,0,0,0,.144,1.371,18.075,18.075,0,0,1-12.72-6.441,6.9,6.9,0,0,0-.776,3.066,5.973,5.973,0,0,0,2.76,5.07,5.269,5.269,0,0,1-2.76-.775,6.108,6.108,0,0,0,4.907,5.99,5.99,5.99,0,0,1-1.678.145,3.52,3.52,0,0,1-1.227-.145,6.114,6.114,0,0,0,5.828,4.294,12.265,12.265,0,0,1-7.668,2.6,6.057,6.057,0,0,1-1.534-.145,18.207,18.207,0,0,0,9.508,2.761c11.349,0,17.483-9.363,17.483-17.482v-.776A6.626,6.626,0,0,0,1262.408,6563.956Z" transform="translate(-1216.112 -6541.728)" fill="#e7e7e7"/>
  </g>
</svg>
