<svg xmlns="http://www.w3.org/2000/svg" width="28.57" height="28.57" viewBox="0 0 28.57 28.57">
  <g id="Group_1249" data-name="Group 1249" transform="translate(0 0)">
    <circle id="Ellipse_170" data-name="Ellipse 170" cx="14.285" cy="14.285" r="14.285" transform="translate(0 0)" fill="#80a868"/>
    <path id="Path_2925" data-name="Path 2925" d="M1114.2,1896.377a6.262,6.262,0,0,1-1.666.435,3.134,3.134,0,0,0,1.3-1.594,5.372,5.372,0,0,1-1.884.724,2.85,2.85,0,0,0-2.1-.942,2.906,2.906,0,0,0-2.9,2.9,2.008,2.008,0,0,0,.072.652,8.54,8.54,0,0,1-6.013-3.043,3.3,3.3,0,0,0-.362,1.449,2.8,2.8,0,0,0,1.3,2.391,2.5,2.5,0,0,1-1.3-.362,2.88,2.88,0,0,0,2.318,2.825,2.713,2.713,0,0,1-.8.073,1.594,1.594,0,0,1-.58-.073,2.892,2.892,0,0,0,2.753,2.029,5.764,5.764,0,0,1-3.622,1.232A2.716,2.716,0,0,1,1100,1905a8.575,8.575,0,0,0,4.492,1.3,8.186,8.186,0,0,0,8.259-8.259v-.362A3.13,3.13,0,0,0,1114.2,1896.377Z" transform="translate(-1091.903 -1885.616)" fill="#fff"/>
  </g>
</svg>
