<svg xmlns="http://www.w3.org/2000/svg" width="61" height="61" viewBox="0 0 61 61">
  <g id="Group_1257" data-name="Group 1257" transform="translate(-0.118)">
    <circle id="Ellipse_31" data-name="Ellipse 31" cx="30.5" cy="30.5" r="30.5" transform="translate(0.118)" fill="#e7e7e7"/>
    <path id="Path_3328" data-name="Path 3328" d="M1262.24,6563.939a12.708,12.708,0,0,1-3.516.915,6.484,6.484,0,0,0,2.745-3.355,11.132,11.132,0,0,1-3.965,1.525,5.974,5.974,0,0,0-4.414-1.974,6.118,6.118,0,0,0-6.1,6.1,4.417,4.417,0,0,0,.144,1.363,17.976,17.976,0,0,1-12.648-6.405,6.858,6.858,0,0,0-.771,3.05,5.938,5.938,0,0,0,2.745,5.041,5.242,5.242,0,0,1-2.745-.771,6.073,6.073,0,0,0,4.88,5.956,5.962,5.962,0,0,1-1.668.144,3.5,3.5,0,0,1-1.22-.144,6.08,6.08,0,0,0,5.795,4.27,12.193,12.193,0,0,1-7.625,2.584,6.028,6.028,0,0,1-1.525-.144,18.107,18.107,0,0,0,9.455,2.745c11.285,0,17.385-9.312,17.385-17.385v-.771A6.588,6.588,0,0,0,1262.24,6563.939Z" transform="translate(-1216.203 -6541.836)" fill="#346715"/>
  </g>
</svg>
