<svg xmlns="http://www.w3.org/2000/svg" width="61" height="61" viewBox="0 0 61 61">
  <g id="Group_1255" data-name="Group 1255" transform="translate(-0.353)">
    <circle id="Ellipse_30" data-name="Ellipse 30" cx="30.5" cy="30.5" r="30.5" transform="translate(0.353)" fill="#e7e7e7"/>
    <path id="Path_2773" data-name="Path 2773" d="M1367.37,6569.4c0-.592-.108-1.292-.108-2.081-.09-.79-.2-1.579-.287-2.261a3.352,3.352,0,0,0-1.094-1.884,3.291,3.291,0,0,0-1.866-.879,85.2,85.2,0,0,0-10.155-.4,84.257,84.257,0,0,0-10.155.4,3.29,3.29,0,0,0-1.866.879,3.958,3.958,0,0,0-1.095,1.884,7.866,7.866,0,0,0-.287,2.261,14.811,14.811,0,0,0-.108,2.081v4.521c0,.592.108,1.291.108,2.08.09.79.2,1.58.287,2.262a3.348,3.348,0,0,0,1.095,1.883,3.3,3.3,0,0,0,1.866.88,89.224,89.224,0,0,0,10.155.395,88.2,88.2,0,0,0,10.155-.395,3.3,3.3,0,0,0,1.866-.88,3.948,3.948,0,0,0,1.094-1.883,7.86,7.86,0,0,0,.287-2.262,14.8,14.8,0,0,0,.108-2.08V6569.4Zm-8.289,3.05-7.787,4.827a.676.676,0,0,1-.484.2,1,1,0,0,1-.5-.09,1.064,1.064,0,0,1-.485-.9v-9.76a1.031,1.031,0,0,1,.485-.878.9.9,0,0,1,.987,0l7.787,4.825a1.008,1.008,0,0,1,.5.79A1.363,1.363,0,0,1,1359.081,6572.45Z" transform="translate(-1324.203 -6540.371)" fill="#346715"/>
  </g>
</svg>
