<svg width="98" height="98" fill="none" xmlns="http://www.w3.org/2000/svg"><g filter="url(#a)"><path opacity=".24" d="M26.542 71.458C11.76 66.978 1 53.245 1 37 1 17.118 17.118 1 37 1c16.245 0 29.977 10.76 34.458 25.542C86.24 31.022 97 44.755 97 61c0 19.882-16.118 36-36 36-16.245 0-29.977-10.76-34.458-25.542Z" fill="#9DB7D1"/><g filter="url(#b)"><path fill-rule="evenodd" clip-rule="evenodd" d="M72 59a2 2 0 0 0-2-2h-4a2 2 0 0 0-2 2v1H51a3 3 0 0 0-3 3v10a3 3 0 0 0 3 3h22a3 3 0 0 0 3-3V63a3 3 0 0 0-3-3h-1v-1Z" fill="#F2EFFD"/></g><g filter="url(#c)"><path fill-rule="evenodd" clip-rule="evenodd" d="M34 59a2 2 0 0 0-2-2h-4a2 2 0 0 0-2 2v1h-1a3 3 0 0 0-3 3v10a3 3 0 0 0 3 3h20a3 3 0 0 0 3-3V63a3 3 0 0 0-3-3H34v-1Z" fill="#F2EFFD"/></g><g filter="url(#d)"><path fill-rule="evenodd" clip-rule="evenodd" d="M59 46a2 2 0 0 0-2-2h-4a2 2 0 0 0-2 2v1h-4v-1a2 2 0 0 0-2-2h-4a2 2 0 0 0-2 2v1h-1a3 3 0 0 0-3 3v7a3 3 0 0 0 3 3h22a3 3 0 0 0 3-3v-7a3 3 0 0 0-3-3h-1v-1Z" fill="#F2EFFD"/></g><g filter="url(#e)"><path fill-rule="evenodd" clip-rule="evenodd" d="M43.133 21a2 2 0 0 0-2.732-.732l-3.464 2A2 2 0 0 0 36.205 25l.5.866-3.464 2-.5-.866a2 2 0 0 0-2.732-.732l-3.464 2A2 2 0 0 0 25.813 31l.5.866-.866.5a3 3 0 0 0-1.098 4.098l4 6.928a3 3 0 0 0 4.098 1.098l19.052-11a3 3 0 0 0 1.099-4.098l-4-6.928a3 3 0 0 0-4.099-1.098l-.866.5-.5-.866Z" fill="#F2EFFD"/></g><path fill-rule="evenodd" clip-rule="evenodd" d="M40.401 20.268a2 2 0 0 1 2.732.732l.5.866.866-.5a3 3 0 0 1 4.099 1.098l4 6.928a3 3 0 0 1-1.099 4.098l-19.052 11a3 3 0 0 1-4.098-1.098l-4-6.928a3 3 0 0 1 1.098-4.098l.866-.5-.5-.866a2 2 0 0 1 .732-2.732l3.464-2a2 2 0 0 1 2.732.732l.5.866 3.464-2-.5-.866a2 2 0 0 1 .732-2.732l3.464-2Zm1 1.732-3.464 2 1 1.732a1 1 0 0 1-.366 1.366l-5.196 3a1 1 0 0 1-1.366-.366l-1-1.732-3.464 2 1 1.732a1 1 0 0 1-.366 1.366l-1.732 1a1 1 0 0 0-.366 1.366l4 6.928a1 1 0 0 0 1.366.366l19.052-11a1 1 0 0 0 .366-1.366l-4-6.928a1 1 0 0 0-1.366-.366l-1.732 1a1 1 0 0 1-1.366-.366l-1-1.732ZM59 46a2 2 0 0 0-2-2h-4a2 2 0 0 0-2 2v1h-4v-1a2 2 0 0 0-2-2h-4a2 2 0 0 0-2 2v1h-1a3 3 0 0 0-3 3v9c0 .35.06.687.17 1H34v-1a2 2 0 0 0-2-2h-4a2 2 0 0 0-2 2v1h-1a3 3 0 0 0-3 3v10a3 3 0 0 0 3 3h22c.768 0 1.47-.289 2-.764.53.475 1.232.764 2 .764h22a3 3 0 0 0 3-3V63a3 3 0 0 0-3-3h-1v-1a2 2 0 0 0-2-2h-4a2 2 0 0 0-2 2v1h-1.17c.11-.313.17-.65.17-1v-9a3 3 0 0 0-3-3h-1v-1ZM38 60a1 1 0 0 1-1-1v-9a1 1 0 0 1 1-1h2a1 1 0 0 0 1-1v-2h4v2a1 1 0 0 0 1 1h6a1 1 0 0 0 1-1v-2h4v2a1 1 0 0 0 1 1h2a1 1 0 0 1 1 1v9a1 1 0 0 1-1 1H38Zm13 2h14a1 1 0 0 0 1-1v-2h4v2a1 1 0 0 0 1 1h2a1 1 0 0 1 1 1v10a1 1 0 0 1-1 1H51a1 1 0 0 1-1-1V63a1 1 0 0 1 1-1Zm-4 0a1 1 0 0 1 1 1v10a1 1 0 0 1-1 1H25a1 1 0 0 1-1-1V63a1 1 0 0 1 1-1h2a1 1 0 0 0 1-1v-2h4v2a1 1 0 0 0 1 1h14Z" fill="#002838"/></g><defs><filter id="a" x=".5" y=".5" width="97" height="97" filterUnits="userSpaceOnUse" color-interpolation-filters="sRGB"><feFlood flood-opacity="0" result="BackgroundImageFix"/><feBlend in="SourceGraphic" in2="BackgroundImageFix" result="shape"/><feGaussianBlur stdDeviation=".25" result="effect1_foregroundBlur_230:995"/></filter><filter id="b" x="48" y="57" width="30" height="21" filterUnits="userSpaceOnUse" color-interpolation-filters="sRGB"><feFlood flood-opacity="0" result="BackgroundImageFix"/><feColorMatrix in="SourceAlpha" values="0 0 0 0 0 0 0 0 0 0 0 0 0 0 0 0 0 0 127 0" result="hardAlpha"/><feOffset dx="2" dy="2"/><feColorMatrix values="0 0 0 0 0 0 0 0 0 0 0 0 0 0 0 0 0 0 0.16 0"/><feBlend in2="BackgroundImageFix" result="effect1_dropShadow_230:995"/><feBlend in="SourceGraphic" in2="effect1_dropShadow_230:995" result="shape"/><feColorMatrix in="SourceAlpha" values="0 0 0 0 0 0 0 0 0 0 0 0 0 0 0 0 0 0 127 0" result="hardAlpha"/><feOffset dx="4" dy="4"/><feComposite in2="hardAlpha" operator="arithmetic" k2="-1" k3="1"/><feColorMatrix values="0 0 0 0 1 0 0 0 0 1 0 0 0 0 1 0 0 0 1 0"/><feBlend in2="shape" result="effect2_innerShadow_230:995"/></filter><filter id="c" x="22" y="57" width="28" height="21" filterUnits="userSpaceOnUse" color-interpolation-filters="sRGB"><feFlood flood-opacity="0" result="BackgroundImageFix"/><feColorMatrix in="SourceAlpha" values="0 0 0 0 0 0 0 0 0 0 0 0 0 0 0 0 0 0 127 0" result="hardAlpha"/><feOffset dx="2" dy="2"/><feColorMatrix values="0 0 0 0 0 0 0 0 0 0 0 0 0 0 0 0 0 0 0.16 0"/><feBlend in2="BackgroundImageFix" result="effect1_dropShadow_230:995"/><feBlend in="SourceGraphic" in2="effect1_dropShadow_230:995" result="shape"/><feColorMatrix in="SourceAlpha" values="0 0 0 0 0 0 0 0 0 0 0 0 0 0 0 0 0 0 127 0" result="hardAlpha"/><feOffset dx="4" dy="4"/><feComposite in2="hardAlpha" operator="arithmetic" k2="-1" k3="1"/><feColorMatrix values="0 0 0 0 1 0 0 0 0 1 0 0 0 0 1 0 0 0 1 0"/><feBlend in2="shape" result="effect2_innerShadow_230:995"/></filter><filter id="d" x="35" y="44" width="30" height="18" filterUnits="userSpaceOnUse" color-interpolation-filters="sRGB"><feFlood flood-opacity="0" result="BackgroundImageFix"/><feColorMatrix in="SourceAlpha" values="0 0 0 0 0 0 0 0 0 0 0 0 0 0 0 0 0 0 127 0" result="hardAlpha"/><feOffset dx="2" dy="2"/><feColorMatrix values="0 0 0 0 0 0 0 0 0 0 0 0 0 0 0 0 0 0 0.16 0"/><feBlend in2="BackgroundImageFix" result="effect1_dropShadow_230:995"/><feBlend in="SourceGraphic" in2="effect1_dropShadow_230:995" result="shape"/><feColorMatrix in="SourceAlpha" values="0 0 0 0 0 0 0 0 0 0 0 0 0 0 0 0 0 0 127 0" result="hardAlpha"/><feOffset dx="4" dy="4"/><feComposite in2="hardAlpha" operator="arithmetic" k2="-1" k3="1"/><feColorMatrix values="0 0 0 0 1 0 0 0 0 1 0 0 0 0 1 0 0 0 1 0"/><feBlend in2="shape" result="effect2_innerShadow_230:995"/></filter><filter id="e" x="23.946" y="20" width="31.054" height="26.893" filterUnits="userSpaceOnUse" color-interpolation-filters="sRGB"><feFlood flood-opacity="0" result="BackgroundImageFix"/><feColorMatrix in="SourceAlpha" values="0 0 0 0 0 0 0 0 0 0 0 0 0 0 0 0 0 0 127 0" result="hardAlpha"/><feOffset dx="2" dy="2"/><feColorMatrix values="0 0 0 0 0 0 0 0 0 0 0 0 0 0 0 0 0 0 0.16 0"/><feBlend in2="BackgroundImageFix" result="effect1_dropShadow_230:995"/><feBlend in="SourceGraphic" in2="effect1_dropShadow_230:995" result="shape"/><feColorMatrix in="SourceAlpha" values="0 0 0 0 0 0 0 0 0 0 0 0 0 0 0 0 0 0 127 0" result="hardAlpha"/><feOffset dx="4" dy="4"/><feComposite in2="hardAlpha" operator="arithmetic" k2="-1" k3="1"/><feColorMatrix values="0 0 0 0 1 0 0 0 0 1 0 0 0 0 1 0 0 0 1 0"/><feBlend in2="shape" result="effect2_innerShadow_230:995"/></filter></defs></svg>