<svg width="98" height="98" fill="none" xmlns="http://www.w3.org/2000/svg"><g filter="url(#a)"><circle opacity=".24" cx="49" cy="49" r="48" fill="#9DB7D1"/><g filter="url(#b)"><path fill-rule="evenodd" clip-rule="evenodd" d="M19 28a3 3 0 0 1 3-3h54a3 3 0 0 1 3 3v42a3 3 0 0 1-3 3H22a3 3 0 0 1-3-3V28Z" fill="#F2EFFD"/></g><path d="M30 37a1 1 0 0 1 1-1h19a1 1 0 1 1 0 2H31a1 1 0 0 1-1-1ZM59 36a1 1 0 1 0 0 2h8a1 1 0 1 0 0-2h-8ZM30 45a1 1 0 0 1 1-1h30a1 1 0 1 1 0 2H31a1 1 0 0 1-1-1ZM31 52a1 1 0 1 0 0 2h17a1 1 0 1 0 0-2H31ZM55 53a1 1 0 0 1 1-1h11a1 1 0 1 1 0 2H56a1 1 0 0 1-1-1ZM31 60a1 1 0 1 0 0 2h8a1 1 0 1 0 0-2h-8Z" fill="#002838"/><path fill-rule="evenodd" clip-rule="evenodd" d="M19 28a3 3 0 0 1 3-3h54a3 3 0 0 1 3 3v42a3 3 0 0 1-3 3H22a3 3 0 0 1-3-3V28Zm3-1a1 1 0 0 0-1 1v42a1 1 0 0 0 1 1h54a1 1 0 0 0 1-1V28a1 1 0 0 0-1-1H22Z" fill="#002838"/></g><defs><filter id="a" x=".5" y=".5" width="97" height="97" filterUnits="userSpaceOnUse" color-interpolation-filters="sRGB"><feFlood flood-opacity="0" result="BackgroundImageFix"/><feBlend in="SourceGraphic" in2="BackgroundImageFix" result="shape"/><feGaussianBlur stdDeviation=".25" result="effect1_foregroundBlur_550:3029"/></filter><filter id="b" x="19" y="25" width="62" height="50" filterUnits="userSpaceOnUse" color-interpolation-filters="sRGB"><feFlood flood-opacity="0" result="BackgroundImageFix"/><feColorMatrix in="SourceAlpha" values="0 0 0 0 0 0 0 0 0 0 0 0 0 0 0 0 0 0 127 0" result="hardAlpha"/><feOffset dx="2" dy="2"/><feColorMatrix values="0 0 0 0 0 0 0 0 0 0 0 0 0 0 0 0 0 0 0.16 0"/><feBlend in2="BackgroundImageFix" result="effect1_dropShadow_550:3029"/><feBlend in="SourceGraphic" in2="effect1_dropShadow_550:3029" result="shape"/><feColorMatrix in="SourceAlpha" values="0 0 0 0 0 0 0 0 0 0 0 0 0 0 0 0 0 0 127 0" result="hardAlpha"/><feOffset dx="4" dy="4"/><feComposite in2="hardAlpha" operator="arithmetic" k2="-1" k3="1"/><feColorMatrix values="0 0 0 0 1 0 0 0 0 1 0 0 0 0 1 0 0 0 1 0"/><feBlend in2="shape" result="effect2_innerShadow_550:3029"/></filter></defs></svg>