<svg width="98" height="98" fill="none" xmlns="http://www.w3.org/2000/svg"><g filter="url(#a)"><path opacity=".24" d="M26.542 71.458C11.76 66.978 1 53.245 1 37 1 17.118 17.118 1 37 1c16.245 0 29.977 10.76 34.458 25.542C86.24 31.022 97 44.755 97 61c0 19.882-16.118 36-36 36-16.245 0-29.977-10.76-34.458-25.542Z" fill="#9DB7D1"/><g filter="url(#b)" fill-rule="evenodd" clip-rule="evenodd" fill="#F2EFFD"><path d="M41.06 39.22a1 1 0 0 0-1.2.627l-1.315 3.659c-1.99.13-3.91.656-5.658 1.52l-2.97-2.514a1 1 0 0 0-1.354.056l-4.95 4.95a1 1 0 0 0-.056 1.353l2.512 2.969a15.065 15.065 0 0 0-1.035 2.756c-.259.967-.418 1.94-.482 2.904l-3.66 1.315a1 1 0 0 0-.627 1.2l1.811 6.761a1 1 0 0 0 1.144.725l3.83-.691a14.985 14.985 0 0 0 4.14 4.145l-.69 3.826a1 1 0 0 0 .725 1.144l6.761 1.811a1 1 0 0 0 1.2-.627l1.315-3.66c1.99-.129 3.91-.656 5.658-1.519l2.971 2.514a1 1 0 0 0 1.353-.056l4.95-4.95a1 1 0 0 0 .056-1.353l-2.512-2.969c.427-.867.776-1.788 1.035-2.756.26-.968.418-1.94.482-2.904l3.66-1.315a1 1 0 0 0 .628-1.2L56.97 50.18a1 1 0 0 0-1.144-.726l-3.83.692A14.984 14.984 0 0 0 47.856 46l.69-3.826a1 1 0 0 0-.724-1.144L41.06 39.22Zm-5.4 18.223a4 4 0 1 1 7.727 2.07 4 4 0 0 1-7.727-2.07Z"/><path d="M55.21 22.855a1 1 0 0 1 .726-1.141l5.41-1.45a1 1 0 0 1 1.199.626l.95 2.624c1.46.119 2.87.504 4.166 1.12l2.138-1.8a1 1 0 0 1 1.35.057l3.96 3.96a1 1 0 0 1 .059 1.351l-1.8 2.136a12.068 12.068 0 0 1 1.118 4.168l2.625.95a1 1 0 0 1 .626 1.2l-1.45 5.409a1 1 0 0 1-1.14.725l-2.752-.49a11.991 11.991 0 0 1-3.049 3.053l.49 2.748a1 1 0 0 1-.726 1.141l-5.41 1.45a1 1 0 0 1-1.198-.626l-.95-2.625a11.99 11.99 0 0 1-4.167-1.119l-2.137 1.8a1 1 0 0 1-1.351-.058l-3.96-3.96a1 1 0 0 1-.058-1.35l1.798-2.136a12.063 12.063 0 0 1-1.116-4.168l-2.626-.95a1 1 0 0 1-.625-1.2l1.449-5.409a1 1 0 0 1 1.141-.726l2.751.49a11.988 11.988 0 0 1 3.05-3.052l-.49-2.748Zm4.415 13.4a3 3 0 1 1 5.796-1.554 3 3 0 0 1-5.796 1.553Z"/></g><path fill-rule="evenodd" clip-rule="evenodd" d="M61.23 30.648a5 5 0 1 0 2.587 9.66 5 5 0 0 0-2.588-9.66Zm-1.605 5.606a3 3 0 1 1 5.796-1.553 3 3 0 0 1-5.796 1.553Z" fill="#002838"/><path fill-rule="evenodd" clip-rule="evenodd" d="M55.936 21.714a1 1 0 0 0-.725 1.141l.49 2.748a11.988 11.988 0 0 0-3.05 3.052l-2.75-.49a1 1 0 0 0-1.142.726l-1.45 5.41a1 1 0 0 0 .626 1.198l2.626.95a12.06 12.06 0 0 0 1.116 4.169l-1.798 2.135a1 1 0 0 0 .058 1.352l3.96 3.96a1 1 0 0 0 1.35.057l2.138-1.8c1.296.615 2.707 1 4.167 1.12l.95 2.624a1 1 0 0 0 1.199.625l5.41-1.449a1 1 0 0 0 .725-1.141l-.49-2.748a11.991 11.991 0 0 0 3.05-3.053l2.75.49a1 1 0 0 0 1.141-.725l1.45-5.41a1 1 0 0 0-.626-1.199l-2.625-.95a12.07 12.07 0 0 0-1.117-4.168l1.799-2.136a1 1 0 0 0-.058-1.35l-3.96-3.96a1 1 0 0 0-1.351-.058l-2.138 1.8c-1.296-.616-2.706-1.001-4.166-1.12l-.95-2.624a1 1 0 0 0-1.2-.626l-5.409 1.45Zm1.85 4.19-.445-2.496 3.635-.974.864 2.384a1 1 0 0 0 .917.66 9.988 9.988 0 0 1 4.562 1.225 1 1 0 0 0 1.124-.113l1.942-1.635 2.661 2.661-1.633 1.94a1 1 0 0 0-.113 1.123c.373.684.671 1.423.882 2.21.212.788.322 1.578.341 2.356a1 1 0 0 0 .66.916l2.384.864-.974 3.635-2.5-.445a1 1 0 0 0-1.03.465 9.989 9.989 0 0 1-3.337 3.341 1 1 0 0 0-.465 1.03l.445 2.497-3.636.974-.863-2.385a1 1 0 0 0-.918-.659 9.988 9.988 0 0 1-4.561-1.225 1 1 0 0 0-1.124.112l-1.942 1.636L52 43.339l1.634-1.94a1 1 0 0 0 .113-1.123 10.026 10.026 0 0 1-.883-2.21 10.028 10.028 0 0 1-.34-2.355 1 1 0 0 0-.66-.917l-2.385-.863.974-3.636 2.5.446a1 1 0 0 0 1.03-.465 9.99 9.99 0 0 1 3.338-3.342 1 1 0 0 0 .464-1.03ZM41.076 52.682a6 6 0 1 0-3.106 11.592 6 6 0 0 0 3.106-11.592Zm-5.416 4.76a4 4 0 1 1 7.727 2.071 4 4 0 0 1-7.727-2.07Z" fill="#002838"/><path fill-rule="evenodd" clip-rule="evenodd" d="M39.86 39.847a1 1 0 0 1 1.2-.628l6.761 1.812a1 1 0 0 1 .726 1.144L47.856 46a14.984 14.984 0 0 1 4.14 4.145l3.83-.692a1 1 0 0 1 1.144.726l1.812 6.761a1 1 0 0 1-.628 1.2l-3.66 1.315a15.069 15.069 0 0 1-.482 2.904c-.26.968-.608 1.889-1.035 2.756l2.512 2.969a1 1 0 0 1-.056 1.353l-4.95 4.95a1 1 0 0 1-1.353.056l-2.97-2.514a14.985 14.985 0 0 1-5.66 1.52l-1.314 3.659a1 1 0 0 1-1.2.627l-6.761-1.811a1 1 0 0 1-.725-1.144l.69-3.826a14.985 14.985 0 0 1-4.14-4.145l-3.83.691a1 1 0 0 1-1.143-.725l-1.812-6.761a1 1 0 0 1 .627-1.2l3.66-1.315c.064-.965.223-1.937.482-2.904.26-.968.608-1.89 1.035-2.756l-2.512-2.97a1 1 0 0 1 .056-1.352l4.95-4.95a1 1 0 0 1 1.353-.056l2.971 2.514a14.985 14.985 0 0 1 5.658-1.52l1.315-3.659Zm1.571 1.542-1.23 3.426a1 1 0 0 1-.923.662c-2.143.039-4.212.612-6.04 1.621a1 1 0 0 1-1.13-.111l-2.781-2.354-3.649 3.648 2.351 2.78a1 1 0 0 1 .113 1.128 13.026 13.026 0 0 0-1.176 2.924 13.028 13.028 0 0 0-.444 3.12 1 1 0 0 1-.662.922l-3.425 1.23 1.335 4.985 3.586-.648a1 1 0 0 1 1.034.468 12.985 12.985 0 0 0 4.42 4.425 1 1 0 0 1 .468 1.034l-.647 3.582 4.984 1.335 1.231-3.425a1 1 0 0 1 .923-.662 12.985 12.985 0 0 0 6.04-1.622 1 1 0 0 1 1.13.112l2.78 2.354 3.65-3.648-2.352-2.78a1 1 0 0 1-.112-1.128 13.03 13.03 0 0 0 1.175-2.924c.28-1.044.424-2.09.444-3.12a1 1 0 0 1 .662-.922l3.426-1.231-1.336-4.984-3.586.648a1 1 0 0 1-1.034-.468 12.986 12.986 0 0 0-4.42-4.425 1 1 0 0 1-.468-1.034l.647-3.582-4.984-1.336Z" fill="#002838"/></g><defs><filter id="a" x=".5" y=".5" width="97" height="97" filterUnits="userSpaceOnUse" color-interpolation-filters="sRGB"><feFlood flood-opacity="0" result="BackgroundImageFix"/><feBlend in="SourceGraphic" in2="BackgroundImageFix" result="shape"/><feGaussianBlur stdDeviation=".25" result="effect1_foregroundBlur_230:990"/></filter><filter id="b" x="20.23" y="20.23" width="59.541" height="59.541" filterUnits="userSpaceOnUse" color-interpolation-filters="sRGB"><feFlood flood-opacity="0" result="BackgroundImageFix"/><feColorMatrix in="SourceAlpha" values="0 0 0 0 0 0 0 0 0 0 0 0 0 0 0 0 0 0 127 0" result="hardAlpha"/><feOffset dx="2" dy="2"/><feColorMatrix values="0 0 0 0 0 0 0 0 0 0 0 0 0 0 0 0 0 0 0.16 0"/><feBlend in2="BackgroundImageFix" result="effect1_dropShadow_230:990"/><feBlend in="SourceGraphic" in2="effect1_dropShadow_230:990" result="shape"/><feColorMatrix in="SourceAlpha" values="0 0 0 0 0 0 0 0 0 0 0 0 0 0 0 0 0 0 127 0" result="hardAlpha"/><feOffset dx="4" dy="4"/><feComposite in2="hardAlpha" operator="arithmetic" k2="-1" k3="1"/><feColorMatrix values="0 0 0 0 1 0 0 0 0 1 0 0 0 0 1 0 0 0 1 0"/><feBlend in2="shape" result="effect2_innerShadow_230:990"/></filter></defs></svg>