<svg width="98" height="98" fill="none" xmlns="http://www.w3.org/2000/svg"><g filter="url(#a)"><circle opacity=".24" cx="49" cy="49" r="48" fill="#9DB7D1"/><g filter="url(#b)"><path fill-rule="evenodd" clip-rule="evenodd" d="M54.337 25.5a1 1 0 0 0-1.654-.115L28.419 56.458l-8.479.509a1 1 0 0 0-.806 1.498l8 13.83a1 1 0 0 0 1.7.051l4.681-7.074 7.882-1.105c-.802 1.073-1.063 2.375-.859 3.819.287 2.018 1.874 3.42 3.82 4.198 1.958.782 4.456 1.02 7.02.636h.009c2.573-.389 4.906-1.356 6.566-2.684 1.643-1.315 2.77-3.12 2.484-5.133-.194-1.368-.738-2.488-1.72-3.264l13.869-1.944a1 1 0 0 0 .727-1.491L54.337 25.499Zm13.494 2.477a1 1 0 1 0-1.668-1.103l-3.696 5.587a1 1 0 0 0 1.668 1.104l3.696-5.588Zm6.898 8.825a1 1 0 1 0-.999-1.733l-6.062 3.493a1 1 0 1 0 .999 1.733l6.062-3.493Zm3.328 10.638a1 1 0 1 0-.12-1.997l-6.695.401a1 1 0 1 0 .12 1.997l6.695-.401ZM48.14 63.222c-2.377.333-3.87.936-4.71 1.68-.772.682-1.087 1.56-.91 2.803.146 1.03.989 1.986 2.58 2.621 1.575.629 3.713.859 6.003.513 2.285-.346 4.267-1.197 5.601-2.265 1.354-1.083 1.9-2.256 1.754-3.29-.178-1.25-.69-1.946-1.598-2.34-1.021-.445-2.673-.566-5.238-.202l-3.482.48Z" fill="#F2EFFD"/></g><path fill-rule="evenodd" clip-rule="evenodd" d="M54.337 25.5a1 1 0 0 0-1.654-.115L28.419 56.458l-8.479.509a1 1 0 0 0-.806 1.498l8 13.83a1 1 0 0 0 1.7.051l4.681-7.074 7.882-1.105c-.802 1.073-1.063 2.375-.859 3.819.287 2.018 1.874 3.42 3.82 4.198 1.958.782 4.456 1.02 7.02.636h.009c2.573-.389 4.906-1.356 6.566-2.684 1.643-1.315 2.77-3.12 2.484-5.133-.194-1.368-.738-2.488-1.72-3.264l13.869-1.944a1 1 0 0 0 .727-1.491L54.337 25.499ZM47.86 61.24h-.003l-15.067 2.113a1 1 0 0 0-.695.438l-4.039 6.104-6.38-11.03 7.313-.439a1 1 0 0 0 .728-.383l23.63-30.26 17.49 30.236-22.977 3.221Zm19.97-33.264a1 1 0 1 0-1.668-1.103l-3.696 5.587a1 1 0 0 0 1.668 1.104l3.696-5.588Zm6.898 8.825a1 1 0 1 0-.999-1.733l-6.062 3.493a1 1 0 1 0 .999 1.733l6.062-3.493Zm3.328 10.638a1 1 0 1 0-.12-1.997l-6.695.401a1 1 0 1 0 .12 1.997l6.695-.401ZM48.14 63.222c-2.377.333-3.87.936-4.71 1.68-.772.682-1.087 1.56-.91 2.803.146 1.03.989 1.986 2.58 2.621 1.575.629 3.713.859 6.003.513 2.285-.346 4.267-1.197 5.601-2.265 1.354-1.083 1.9-2.256 1.754-3.29-.178-1.25-.69-1.946-1.598-2.34-1.021-.445-2.673-.566-5.238-.202l-3.482.48Z" fill="#002838"/></g><defs><filter id="a" x=".5" y=".5" width="97" height="97" filterUnits="userSpaceOnUse" color-interpolation-filters="sRGB"><feFlood flood-opacity="0" result="BackgroundImageFix"/><feBlend in="SourceGraphic" in2="BackgroundImageFix" result="shape"/><feGaussianBlur stdDeviation=".25" result="effect1_foregroundBlur_550:2976"/></filter><filter id="b" x="19" y="25" width="61.998" height="50" filterUnits="userSpaceOnUse" color-interpolation-filters="sRGB"><feFlood flood-opacity="0" result="BackgroundImageFix"/><feColorMatrix in="SourceAlpha" values="0 0 0 0 0 0 0 0 0 0 0 0 0 0 0 0 0 0 127 0" result="hardAlpha"/><feOffset dx="2" dy="2"/><feColorMatrix values="0 0 0 0 0 0 0 0 0 0 0 0 0 0 0 0 0 0 0.16 0"/><feBlend in2="BackgroundImageFix" result="effect1_dropShadow_550:2976"/><feBlend in="SourceGraphic" in2="effect1_dropShadow_550:2976" result="shape"/><feColorMatrix in="SourceAlpha" values="0 0 0 0 0 0 0 0 0 0 0 0 0 0 0 0 0 0 127 0" result="hardAlpha"/><feOffset dx="4" dy="4"/><feComposite in2="hardAlpha" operator="arithmetic" k2="-1" k3="1"/><feColorMatrix values="0 0 0 0 1 0 0 0 0 1 0 0 0 0 1 0 0 0 1 0"/><feBlend in2="shape" result="effect2_innerShadow_550:2976"/></filter></defs></svg>