<svg width="98" height="98" fill="none" xmlns="http://www.w3.org/2000/svg"><g filter="url(#a)"><circle opacity=".24" cx="49" cy="49" r="48" fill="#9DB7D1"/><g filter="url(#b)"><path fill-rule="evenodd" clip-rule="evenodd" d="M19 28a3 3 0 0 1 3-3h54a3 3 0 0 1 3 3v42a3 3 0 0 1-3 3H22a3 3 0 0 1-3-3V28Z" fill="#F2EFFD"/></g><g filter="url(#c)"><path fill-rule="evenodd" clip-rule="evenodd" d="M64.707 35.293a1 1 0 0 1 .096 1.304L50.35 56.033l-.002.003c-.9 1.198-2.122 1.839-3.371 1.947.015.17.023.343.023.517 0 3.008-2.373 5.5-5.364 5.5H34a1 1 0 0 1-.868-1.496l3.894-6.815c.928-1.6 2.638-2.689 4.61-2.689.128 0 .255.005.381.014.111-1.246.752-2.465 1.947-3.362l.003-.002 19.436-14.453a1 1 0 0 1 1.304.096Z" fill="#F2EFFD"/></g><path d="M25 32a1 1 0 0 1 1-1h8a1 1 0 1 1 0 2h-8a1 1 0 0 1-1-1ZM71 31a1 1 0 1 0 0 2h1a1 1 0 1 0 0-2h-1Z" fill="#002838"/><path fill-rule="evenodd" clip-rule="evenodd" d="M64.707 35.293a1 1 0 0 1 .096 1.304L50.35 56.033l-.002.003c-.9 1.198-2.122 1.839-3.371 1.947.015.17.023.343.023.517 0 3.008-2.373 5.5-5.364 5.5H34a1 1 0 0 1-.868-1.496l3.894-6.815c.928-1.6 2.638-2.689 4.61-2.689.128 0 .255.005.381.014.111-1.246.752-2.465 1.947-3.362l.003-.002 19.436-14.453a1 1 0 0 1 1.304.096ZM44.005 53.564a5.45 5.45 0 0 1 2.407 2.43c.806.059 1.675-.277 2.334-1.157l.002-.001L59.14 40.86 45.164 51.252l-.001.002c-.871.653-1.209 1.51-1.158 2.31Zm-5.248 3.126-.002.003L35.723 62h5.913C43.466 62 45 60.462 45 58.5c0-.448-.08-.874-.226-1.265A3.443 3.443 0 0 0 42.76 55.2c-.35-.13-.729-.2-1.125-.2-1.209 0-2.283.666-2.88 1.69Z" fill="#002838"/><path d="M49 62a1 1 0 1 0 0 2h4a1 1 0 1 0 0-2h-4ZM57 62a1 1 0 1 0 0 2h12a1 1 0 1 0 0-2H57Z" fill="#002838"/><path fill-rule="evenodd" clip-rule="evenodd" d="M19 28a3 3 0 0 1 3-3h54a3 3 0 0 1 3 3v42a3 3 0 0 1-3 3H22a3 3 0 0 1-3-3V28Zm3-1a1 1 0 0 0-1 1v42a1 1 0 0 0 1 1h54a1 1 0 0 0 1-1V28a1 1 0 0 0-1-1H22Z" fill="#002838"/></g><defs><filter id="a" x=".5" y=".5" width="97" height="97" filterUnits="userSpaceOnUse" color-interpolation-filters="sRGB"><feFlood flood-opacity="0" result="BackgroundImageFix"/><feBlend in="SourceGraphic" in2="BackgroundImageFix" result="shape"/><feGaussianBlur stdDeviation=".25" result="effect1_foregroundBlur_550:2573"/></filter><filter id="b" x="19" y="25" width="62" height="50" filterUnits="userSpaceOnUse" color-interpolation-filters="sRGB"><feFlood flood-opacity="0" result="BackgroundImageFix"/><feColorMatrix in="SourceAlpha" values="0 0 0 0 0 0 0 0 0 0 0 0 0 0 0 0 0 0 127 0" result="hardAlpha"/><feOffset dx="2" dy="2"/><feColorMatrix values="0 0 0 0 0 0 0 0 0 0 0 0 0 0 0 0 0 0 0.16 0"/><feBlend in2="BackgroundImageFix" result="effect1_dropShadow_550:2573"/><feBlend in="SourceGraphic" in2="effect1_dropShadow_550:2573" result="shape"/><feColorMatrix in="SourceAlpha" values="0 0 0 0 0 0 0 0 0 0 0 0 0 0 0 0 0 0 127 0" result="hardAlpha"/><feOffset dx="4" dy="4"/><feComposite in2="hardAlpha" operator="arithmetic" k2="-1" k3="1"/><feColorMatrix values="0 0 0 0 1 0 0 0 0 1 0 0 0 0 1 0 0 0 1 0"/><feBlend in2="shape" result="effect2_innerShadow_550:2573"/></filter><filter id="c" x="33" y="35" width="34" height="31" filterUnits="userSpaceOnUse" color-interpolation-filters="sRGB"><feFlood flood-opacity="0" result="BackgroundImageFix"/><feColorMatrix in="SourceAlpha" values="0 0 0 0 0 0 0 0 0 0 0 0 0 0 0 0 0 0 127 0" result="hardAlpha"/><feOffset dx="2" dy="2"/><feColorMatrix values="0 0 0 0 0 0 0 0 0 0 0 0 0 0 0 0 0 0 0.16 0"/><feBlend in2="BackgroundImageFix" result="effect1_dropShadow_550:2573"/><feBlend in="SourceGraphic" in2="effect1_dropShadow_550:2573" result="shape"/><feColorMatrix in="SourceAlpha" values="0 0 0 0 0 0 0 0 0 0 0 0 0 0 0 0 0 0 127 0" result="hardAlpha"/><feOffset dx="4" dy="4"/><feComposite in2="hardAlpha" operator="arithmetic" k2="-1" k3="1"/><feColorMatrix values="0 0 0 0 1 0 0 0 0 1 0 0 0 0 1 0 0 0 1 0"/><feBlend in2="shape" result="effect2_innerShadow_550:2573"/></filter></defs></svg>