<svg width="98" height="98" fill="none" xmlns="http://www.w3.org/2000/svg"><g filter="url(#a)"><circle opacity=".24" cx="49" cy="49" r="48" fill="#9DB7D1"/><g filter="url(#b)"><path fill-rule="evenodd" clip-rule="evenodd" d="M22 30a5 5 0 0 1 5-5h44a5 5 0 0 1 5 5v32a5 5 0 0 1-5 5H27a5 5 0 0 1-5-5V30Z" fill="#F2EFFD"/></g><g filter="url(#c)"><path fill-rule="evenodd" clip-rule="evenodd" d="M22.142 66.34A2.977 2.977 0 0 1 24.625 65h48.75c1.001 0 1.933.505 2.484 1.34l2.64 4c1.307 1.98-.088 4.66-2.484 4.66h-54.03c-2.395 0-3.79-2.68-2.484-4.66l2.64-4Z" fill="#F2EFFD"/></g><path d="M68 32a1 1 0 1 1 2 0 1 1 0 0 1-2 0ZM28 32a1 1 0 0 1 1-1h36a1 1 0 1 1 0 2H29a1 1 0 0 1-1-1Z" fill="#002838"/><path fill-rule="evenodd" clip-rule="evenodd" d="M27 25a5 5 0 0 0-5 5v32c0 1.278.48 2.444 1.269 3.328-.45.232-.84.577-1.127 1.012l-2.64 4c-1.307 1.98.088 4.66 2.483 4.66h54.03c2.396 0 3.791-2.68 2.484-4.66l-2.64-4a2.987 2.987 0 0 0-1.127-1.012A4.981 4.981 0 0 0 76 62V30a5 5 0 0 0-5-5H27Zm44 40H27a3 3 0 0 1-3-3V30a3 3 0 0 1 3-3h44a3 3 0 0 1 3 3v32a3 3 0 0 1-3 3Zm-11.766 8H38.766l.91-1.514a1 1 0 0 1 .857-.486h16.935a1 1 0 0 1 .857.486l.91 1.514Zm-22.8 0 1.526-2.543A3 3 0 0 1 40.533 69h16.935a3 3 0 0 1 2.572 1.457L61.566 73h14.45c.768 0 1.262-.88.814-1.558l-2.64-4a.977.977 0 0 0-.815-.442h-48.75a.977.977 0 0 0-.814.442l-2.64 4c-.448.678.045 1.558.814 1.558h14.45Z" fill="#002838"/></g><defs><filter id="a" x=".5" y=".5" width="97" height="97" filterUnits="userSpaceOnUse" color-interpolation-filters="sRGB"><feFlood flood-opacity="0" result="BackgroundImageFix"/><feBlend in="SourceGraphic" in2="BackgroundImageFix" result="shape"/><feGaussianBlur stdDeviation=".25" result="effect1_foregroundBlur_549:3043"/></filter><filter id="b" x="22" y="25" width="56" height="44" filterUnits="userSpaceOnUse" color-interpolation-filters="sRGB"><feFlood flood-opacity="0" result="BackgroundImageFix"/><feColorMatrix in="SourceAlpha" values="0 0 0 0 0 0 0 0 0 0 0 0 0 0 0 0 0 0 127 0" result="hardAlpha"/><feOffset dx="2" dy="2"/><feColorMatrix values="0 0 0 0 0 0 0 0 0 0 0 0 0 0 0 0 0 0 0.16 0"/><feBlend in2="BackgroundImageFix" result="effect1_dropShadow_549:3043"/><feBlend in="SourceGraphic" in2="effect1_dropShadow_549:3043" result="shape"/><feColorMatrix in="SourceAlpha" values="0 0 0 0 0 0 0 0 0 0 0 0 0 0 0 0 0 0 127 0" result="hardAlpha"/><feOffset dx="4" dy="4"/><feComposite in2="hardAlpha" operator="arithmetic" k2="-1" k3="1"/><feColorMatrix values="0 0 0 0 1 0 0 0 0 1 0 0 0 0 1 0 0 0 1 0"/><feBlend in2="shape" result="effect2_innerShadow_549:3043"/></filter><filter id="c" x="19" y="65" width="62.001" height="12" filterUnits="userSpaceOnUse" color-interpolation-filters="sRGB"><feFlood flood-opacity="0" result="BackgroundImageFix"/><feColorMatrix in="SourceAlpha" values="0 0 0 0 0 0 0 0 0 0 0 0 0 0 0 0 0 0 127 0" result="hardAlpha"/><feOffset dx="2" dy="2"/><feColorMatrix values="0 0 0 0 0 0 0 0 0 0 0 0 0 0 0 0 0 0 0.16 0"/><feBlend in2="BackgroundImageFix" result="effect1_dropShadow_549:3043"/><feBlend in="SourceGraphic" in2="effect1_dropShadow_549:3043" result="shape"/><feColorMatrix in="SourceAlpha" values="0 0 0 0 0 0 0 0 0 0 0 0 0 0 0 0 0 0 127 0" result="hardAlpha"/><feOffset dx="4" dy="4"/><feComposite in2="hardAlpha" operator="arithmetic" k2="-1" k3="1"/><feColorMatrix values="0 0 0 0 1 0 0 0 0 1 0 0 0 0 1 0 0 0 1 0"/><feBlend in2="shape" result="effect2_innerShadow_549:3043"/></filter></defs></svg>