<?xml version="1.0" encoding="utf-8"?>
<!-- Generator: Adobe Illustrator 24.3.0, SVG Export Plug-In . SVG Version: 6.00 Build 0)  -->
<svg version="1.1" id="Layer_1" focusable="false" xmlns="http://www.w3.org/2000/svg" xmlns:xlink="http://www.w3.org/1999/xlink"
	 x="0px" y="0px" viewBox="0 0 576 512" style="enable-background:new 0 0 576 512;" xml:space="preserve">
<style type="text/css">
	.st0{fill:#0066CC;}
</style>
<path class="st0" d="M576,240c0-23.6-13-44-32-55.1V32c0-8.7-7-32-32-32c-7.1,0-14.2,2.4-20,7l-85,68c-42.7,34.1-96.3,53-151,53H64
	c-35.3,0-64,28.6-64,64v96c0,35.4,28.6,64,64,64h33.7c-1.4,10.5-2.2,21.1-2.2,32c0,39.8,9.3,77.4,25.6,110.9
	c5.2,10.7,16.5,17.1,28.4,17.1h74.3c26.1,0,41.7-29.8,25.9-50.6c-16.4-21.5-26.1-48.4-26.1-77.4c0-11.1,1.6-21.8,4.4-32H256
	c54.7,0,108.3,18.8,151,53l85,68c5.7,4.5,12.7,7,20,7c24.9,0,32-22.8,32-32V295.1C563,284,576,263.6,576,240z M480,381.4L447,355
	c-54-43.2-121.8-67-191-67v-96c69.1,0,137-23.8,191-67l33-26.4V381.4z"/>
</svg>
