<?xml version="1.0" encoding="UTF-8" standalone="no"?>
<!DOCTYPE svg PUBLIC "-//W3C//DTD SVG 1.1//EN" "http://www.w3.org/Graphics/SVG/1.1/DTD/svg11.dtd">
<svg width="100%" height="100%" viewBox="0 0 1144 863" version="1.1" xmlns="http://www.w3.org/2000/svg" xmlns:xlink="http://www.w3.org/1999/xlink" xml:space="preserve" xmlns:serif="http://www.serif.com/" style="fill-rule:evenodd;clip-rule:evenodd;stroke-miterlimit:10;">
    <ellipse cx="1023.75" cy="834.07" rx="100.11" ry="24.73" style="fill:rgb(236,239,241);"/>
    <ellipse cx="140.04" cy="838.19" rx="100.11" ry="24.73" style="fill:rgb(236,239,241);"/>
    <g transform="matrix(1,0,0,1,-28.43,-18.54)">
        <path d="M713.17,251.41C713.17,251.41 699.1,245.7 654.36,266.23C609.62,286.76 604,284.14 592.44,281C580.88,277.86 574.44,277.12 561.98,260C561.98,260 553.22,212.52 544.75,205.16C536.28,197.8 500.25,209.35 500.25,209.35C500.25,209.35 457.06,219.26 448.83,161.54C448.83,161.54 454.67,118.03 446.72,104.68C446.72,104.68 462.72,111.61 489.26,100.43C515.8,89.25 536.95,112.43 536.95,112.43C536.95,112.43 543.63,129.73 542.95,140.04C542.27,150.35 546.48,154.22 559.12,149.24C559.12,149.24 565.32,140.41 556.53,125.82C547.74,111.23 541.47,100.35 543.93,89.02C546.39,77.69 553.43,62.02 576.09,54.12C598.75,46.22 629.53,44.74 644.31,38.59C659.09,32.44 662.66,28.44 662.66,28.44C662.66,28.44 653.55,37.58 675,76.19C696.45,114.8 682.77,131.57 682.77,131.57C682.77,131.57 671.37,158.73 621.07,156.57C621.07,156.57 572.6,158.34 599.07,178.9C599.07,178.9 616,175.45 641.3,167.41C666.6,159.37 684.87,192.56 689.4,215.66C693.93,238.76 713.17,251.41 713.17,251.41Z" style="fill:rgb(78,176,211);fill-rule:nonzero;"/>
    </g>
    <g transform="matrix(1,0,0,1,-28.43,-18.54)">
        <path d="M648,57.75L648.27,57.68C650.21,65.05 628.54,94.68 610.03,118.21L609.81,118.04C635.94,84.83 649.51,63.42 648,57.75Z" style="fill:rgb(68,64,83);fill-rule:nonzero;"/>
    </g>
    <g transform="matrix(1,0,0,1,-28.43,-18.54)">
        <path d="M610.2,117.55L610.31,117.85C595.52,136.66 576.92,159.1 562.03,175.72C560.61,177.31 559.2,178.97 557.84,180.67L557.42,180.32C558.78,178.62 560.2,176.95 561.62,175.32C576.5,158.75 595.42,136.35 610.2,117.55Z" style="fill:rgb(68,64,83);fill-rule:nonzero;"/>
    </g>
    <g transform="matrix(1,0,0,1,-28.43,-18.54)">
        <path d="M557.78,179.88L558.07,180.38C530.97,214.21 529.18,266.74 529.07,267.2L523.35,260.6C523.47,260.14 530.49,213.94 557.78,179.88Z" style="fill:rgb(68,64,83);fill-rule:nonzero;"/>
    </g>
    <g transform="matrix(1,0,0,1,-28.43,-18.54)">
        <path d="M681.74,233.06C681.74,233.06 649.74,216.45 624.89,222.41C600.04,228.37 543.89,201.35 543.89,201.35C543.89,201.35 520.08,191.67 515.3,180.65C515.3,180.65 498.97,163.39 498.04,154.45C497.11,145.51 481.21,123.05 470.84,122.18" style="fill:none;fill-rule:nonzero;stroke:rgb(68,64,83);stroke-width:1px;"/>
    </g>
    <g transform="matrix(1,0,0,1,-28.43,-18.54)">
        <path d="M677.12,249.05C677.12,249.05 661,238.21 662.9,225.58" style="fill:none;fill-rule:nonzero;stroke:rgb(68,64,83);stroke-width:1px;"/>
    </g>
    <g transform="matrix(1,0,0,1,-28.43,-18.54)">
        <path d="M652.43,263.06C652.43,263.06 629.43,254.7 627.11,221.95" style="fill:none;fill-rule:nonzero;stroke:rgb(68,64,83);stroke-width:1px;"/>
    </g>
    <g transform="matrix(1,0,0,1,-28.43,-18.54)">
        <path d="M615.3,271.54C615.3,271.54 593.3,253.29 600.61,221.41" style="fill:none;fill-rule:nonzero;stroke:rgb(68,64,83);stroke-width:1px;"/>
    </g>
    <g transform="matrix(1,0,0,1,-28.43,-18.54)">
        <path d="M570.68,262.62C570.68,262.62 556.03,231.91 569.06,211.93" style="fill:none;fill-rule:nonzero;stroke:rgb(68,64,83);stroke-width:1px;"/>
    </g>
    <g transform="matrix(1,0,0,1,-28.43,-18.54)">
        <path d="M682.12,212.82C682.12,212.82 665.47,218.1 669.04,226.82" style="fill:none;fill-rule:nonzero;stroke:rgb(68,64,83);stroke-width:1px;"/>
    </g>
    <g transform="matrix(1,0,0,1,-28.43,-18.54)">
        <path d="M662,182.61C662,182.61 639.73,189.68 639.2,221.18" style="fill:none;fill-rule:nonzero;stroke:rgb(68,64,83);stroke-width:1px;"/>
    </g>
    <g transform="matrix(1,0,0,1,-28.43,-18.54)">
        <path d="M631,175.34C631,175.34 610.74,200.34 612.23,223.09" style="fill:none;fill-rule:nonzero;stroke:rgb(68,64,83);stroke-width:1px;"/>
    </g>
    <g transform="matrix(1,0,0,1,-28.43,-18.54)">
        <path d="M595.48,185.15C595.48,185.15 575.35,204.39 577.92,215.1" style="fill:none;fill-rule:nonzero;stroke:rgb(68,64,83);stroke-width:1px;"/>
    </g>
    <g transform="matrix(1,0,0,1,-28.43,-18.54)">
        <path d="M583.34,178.35C583.34,178.35 564.46,181.74 561.82,175.54" style="fill:none;fill-rule:nonzero;stroke:rgb(68,64,83);stroke-width:1px;"/>
    </g>
    <g transform="matrix(1,0,0,1,-28.43,-18.54)">
        <path d="M558.81,155.56C558.81,155.56 568.35,168.19 570.81,165.36" style="fill:none;fill-rule:nonzero;stroke:rgb(68,64,83);stroke-width:1px;"/>
    </g>
    <g transform="matrix(1,0,0,1,-28.43,-18.54)">
        <path d="M653.36,147.57C653.36,147.57 605.78,151 595,136.68" style="fill:none;fill-rule:nonzero;stroke:rgb(68,64,83);stroke-width:1px;"/>
    </g>
    <g transform="matrix(1,0,0,1,-28.43,-18.54)">
        <path d="M548.8,91.91C548.8,91.91 571.13,139.84 587.34,145.91" style="fill:none;fill-rule:nonzero;stroke:rgb(68,64,83);stroke-width:1px;"/>
    </g>
    <g transform="matrix(1,0,0,1,-28.43,-18.54)">
        <path d="M572.22,69.08C572.22,69.08 585.94,113.17 602.93,126.93" style="fill:none;fill-rule:nonzero;stroke:rgb(68,64,83);stroke-width:1px;"/>
    </g>
    <g transform="matrix(1,0,0,1,-28.43,-18.54)">
        <path d="M673.39,111.19C673.39,111.19 637.2,126.72 615.47,111.01" style="fill:none;fill-rule:nonzero;stroke:rgb(68,64,83);stroke-width:0.75px;"/>
    </g>
    <g transform="matrix(1,0,0,1,-28.43,-18.54)">
        <path d="M604.46,59.68C604.46,59.68 612.73,92.09 623.87,99.92" style="fill:none;fill-rule:nonzero;stroke:rgb(68,64,83);stroke-width:0.75px;"/>
    </g>
    <g transform="matrix(1,0,0,1,-28.43,-18.54)">
        <path d="M667.92,74.89C667.92,74.89 647.59,82.59 639.99,76.69" style="fill:none;fill-rule:nonzero;stroke:rgb(68,64,83);stroke-width:0.75px;"/>
    </g>
    <g transform="matrix(1,0,0,1,-28.43,-18.54)">
        <path d="M541.39,166.15C541.39,166.15 541.39,194.4 533.7,196.41" style="fill:none;fill-rule:nonzero;stroke:rgb(68,64,83);stroke-width:1px;"/>
    </g>
    <g transform="matrix(1,0,0,1,-28.43,-18.54)">
        <path d="M478.52,202.75C478.52,202.75 509.06,205.37 523.15,189.61" style="fill:none;fill-rule:nonzero;stroke:rgb(68,64,83);stroke-width:1px;"/>
    </g>
    <g transform="matrix(1,0,0,1,-28.43,-18.54)">
        <path d="M533.51,132.78C533.51,132.78 526.12,161.43 505.73,169.15" style="fill:none;fill-rule:nonzero;stroke:rgb(68,64,83);stroke-width:1px;"/>
    </g>
    <g transform="matrix(1,0,0,1,-28.43,-18.54)">
        <path d="M460.2,172.57C460.2,172.57 481.82,180.09 500.41,160.95" style="fill:none;fill-rule:nonzero;stroke:rgb(68,64,83);stroke-width:1px;"/>
    </g>
    <g transform="matrix(1,0,0,1,-28.43,-18.54)">
        <path d="M509.47,108.15C509.47,108.15 507.47,132.48 494.2,143.87" style="fill:none;fill-rule:nonzero;stroke:rgb(68,64,83);stroke-width:1px;"/>
    </g>
    <g transform="matrix(1,0,0,1,-28.43,-18.54)">
        <path d="M461,135.49C461,135.49 478.94,135.62 483.14,129.77" style="fill:none;fill-rule:nonzero;stroke:rgb(68,64,83);stroke-width:1px;"/>
    </g>
    <g transform="matrix(1,0,0,1,-28.43,-18.54)">
        <path d="M620.4,156C549,167.91 477.49,161.5 408.65,152.62C339.81,143.74 271.13,132.4 199.58,134.62C153.58,136.06 102.41,145.1 70.58,172.84C39.96,199.53 35.58,236.02 35.87,269.02C36.09,293.84 38.42,319.55 55.23,339.51C66.9,353.36 84.74,363.42 98.23,376.23C145.23,420.81 131.9,489.87 102.14,548.35C88.14,575.79 71.03,602.72 61.64,630.85C52.25,658.98 51.32,689.28 69,712.57C86.54,735.66 120.09,748.96 155,756.09C225.89,770.56 304.57,763.09 380.67,752.7C549.11,729.59 715.67,692.21 881.75,654.9C943.22,641.1 1004.96,627.22 1064.1,606.9C1096.94,595.64 1130.35,581.47 1151.38,559.06C1178.07,530.61 1178.31,491.34 1151.94,467.52C1107.7,427.52 1008.73,435.04 974.34,389.52C955.4,364.52 963.11,330.9 977.58,301.35C1008.58,237.95 1069.33,175.7 1060.58,111.99C1054.58,68.23 1012.2,31.59 955.9,21.46C896.9,10.85 821.49,28.57 788.12,72.08C753.76,117 683.44,145.5 620.4,156Z" style="fill:rgb(236,239,241);fill-rule:nonzero;"/>
    </g>
    <path d="M1026.62,162.6C1026.62,155.707 1021.02,150.11 1014.13,150.11L88.78,150.11C81.887,150.11 76.29,155.707 76.29,162.6L76.29,675.95C76.29,682.843 81.887,688.44 88.78,688.44L1014.13,688.44C1021.02,688.44 1026.62,682.843 1026.62,675.95L1026.62,162.6Z" style="fill:url(#_Linear1);"/>
    <path d="M1025.22,170.17C1025.22,163.277 1019.62,157.68 1012.73,157.68L90.29,157.68C83.397,157.68 77.8,163.277 77.8,170.17L77.8,674.16C77.8,681.053 83.397,686.65 90.29,686.65L1012.73,686.65C1019.62,686.65 1025.22,681.053 1025.22,674.16L1025.22,170.17Z" style="fill:white;"/>
    <path d="M1025.22,170.17C1025.22,163.277 1019.62,157.68 1012.73,157.68L90.29,157.68C83.397,157.68 77.8,163.277 77.8,170.17L77.8,674.16C77.8,681.053 83.397,686.65 90.29,686.65L1012.73,686.65C1019.62,686.65 1025.22,681.053 1025.22,674.16L1025.22,170.17Z" style="fill:white;"/>
    <path d="M1025.22,170.17C1025.22,163.277 1019.62,157.68 1012.73,157.68L90.29,157.68C83.397,157.68 77.8,163.277 77.8,170.17L77.8,674.16C77.8,681.053 83.397,686.65 90.29,686.65L1012.73,686.65C1019.62,686.65 1025.22,681.053 1025.22,674.16L1025.22,170.17Z" style="fill:rgb(90,87,115);fill-opacity:0.04;"/>
    <g transform="matrix(1,0,0,1,-28.43,-18.54)">
        <path d="M1048.84,170.15L111,170.15C108.361,170.15 106.19,172.321 106.19,174.96L106.19,195.3L1053.61,195.3L1053.61,175C1053.61,174.987 1053.61,174.973 1053.61,174.96C1053.61,172.336 1051.46,170.172 1048.84,170.15Z" style="fill:rgb(84,110,122);fill-rule:nonzero;"/>
    </g>
    <g id="_83eb5f8b-b68b-4721-b047-6100bc74156f" serif:id="83eb5f8b-b68b-4721-b047-6100bc74156f">
        <circle cx="96.72" cy="164.18" r="6.5" style="fill:white;"/>
        <circle cx="114.22" cy="164.18" r="6.5" style="fill:white;"/>
        <circle cx="131.72" cy="164.18" r="6.5" style="fill:white;"/>
    </g>
    <path d="M931.22,304.05C931.22,298.426 926.654,293.86 921.03,293.86L151.41,293.86C145.786,293.86 141.22,298.426 141.22,304.05L141.22,676.45C141.22,682.074 145.786,686.64 151.41,686.64L921.03,686.64C926.654,686.64 931.22,682.074 931.22,676.45L931.22,304.05Z" style="fill:white;"/>
    <path d="M334.96,207.31C334.96,205.18 333.23,203.45 331.1,203.45L111.58,203.45C109.45,203.45 107.72,205.18 107.72,207.31L107.72,223.44C107.72,225.57 109.45,227.3 111.58,227.3L331.1,227.3C333.23,227.3 334.96,225.57 334.96,223.44L334.96,207.31Z" style="fill:rgb(90,87,115);fill-opacity:0.2;"/>
    <path d="M763.46,343.31C763.46,341.18 761.73,339.45 759.6,339.45L540.08,339.45C537.95,339.45 536.22,341.18 536.22,343.31L536.22,359.44C536.22,361.57 537.95,363.3 540.08,363.3L759.6,363.3C761.73,363.3 763.46,361.57 763.46,359.44L763.46,343.31Z" style="fill:rgb(236,239,241);"/>
    <path d="M891.05,410.09C891.05,407.96 889.32,406.23 887.19,406.23L540.08,406.23C537.95,406.23 536.22,407.96 536.22,410.09L536.22,426.22C536.22,428.35 537.95,430.08 540.08,430.08L887.19,430.08C889.32,430.08 891.05,428.35 891.05,426.22L891.05,410.09Z" style="fill:rgb(236,239,241);"/>
    <path d="M891.05,449.09C891.05,446.96 889.32,445.23 887.19,445.23L540.08,445.23C537.95,445.23 536.22,446.96 536.22,449.09L536.22,465.22C536.22,467.35 537.95,469.08 540.08,469.08L887.19,469.08C889.32,469.08 891.05,467.35 891.05,465.22L891.05,449.09Z" style="fill:rgb(236,239,241);"/>
    <path d="M891.05,488.09C891.05,485.96 889.32,484.23 887.19,484.23L540.08,484.23C537.95,484.23 536.22,485.96 536.22,488.09L536.22,504.22C536.22,506.35 537.95,508.08 540.08,508.08L887.19,508.08C889.32,508.08 891.05,506.35 891.05,504.22L891.05,488.09Z" style="fill:rgb(236,239,241);"/>
    <path d="M891.05,527.09C891.05,524.96 889.32,523.23 887.19,523.23L540.08,523.23C537.95,523.23 536.22,524.96 536.22,527.09L536.22,543.22C536.22,545.35 537.95,547.08 540.08,547.08L887.19,547.08C889.32,547.08 891.05,545.35 891.05,543.22L891.05,527.09Z" style="fill:rgb(236,239,241);"/>
    <path d="M891.05,570.09C891.05,567.96 889.32,566.23 887.19,566.23L187.91,566.23C185.78,566.23 184.05,567.96 184.05,570.09L184.05,586.22C184.05,588.35 185.78,590.08 187.91,590.08L887.19,590.08C889.32,590.08 891.05,588.35 891.05,586.22L891.05,570.09Z" style="fill:rgb(236,239,241);"/>
    <path d="M891.05,609.09C891.05,606.96 889.32,605.23 887.19,605.23L187.91,605.23C185.78,605.23 184.05,606.96 184.05,609.09L184.05,625.22C184.05,627.35 185.78,629.08 187.91,629.08L887.19,629.08C889.32,629.08 891.05,627.35 891.05,625.22L891.05,609.09Z" style="fill:rgb(236,239,241);"/>
    <path d="M891.05,648.09C891.05,645.96 889.32,644.23 887.19,644.23L187.91,644.23C185.78,644.23 184.05,645.96 184.05,648.09L184.05,664.22C184.05,666.35 185.78,668.08 187.91,668.08L887.19,668.08C889.32,668.08 891.05,666.35 891.05,664.22L891.05,648.09Z" style="fill:rgb(236,239,241);"/>
    <g transform="matrix(1,0,0,1,-28.43,-18.54)">
        <path d="M757.73,678.54C757.73,678.54 763.66,686.29 754.99,698C746.32,709.71 739.18,719.59 742.07,726.89C742.07,726.89 755.14,705.15 765.79,704.89C776.44,704.63 769.44,691.61 757.73,678.54Z" style="fill:rgb(78,176,211);fill-rule:nonzero;"/>
    </g>
    <g transform="matrix(1,0,0,1,-28.43,-18.54)">
        <path d="M757.73,678.54C758.246,679.289 758.654,680.107 758.94,680.97C769.33,693.17 774.86,704.56 764.88,704.84C755.58,705.11 744.42,721.74 741.75,725.93C741.834,726.27 741.941,726.604 742.07,726.93C742.199,727.256 755.14,705.19 765.79,704.93C776.44,704.67 769.44,691.61 757.73,678.54Z" style="fill:rgb(54,0,204);fill-opacity:0.1;fill-rule:nonzero;"/>
    </g>
    <g transform="matrix(1,0,0,1,-28.43,-18.54)">
        <path d="M768.75,688.42C768.75,691.15 768.45,693.36 768.07,693.36C767.69,693.36 767.39,691.15 767.39,688.42C767.39,685.69 767.77,686.98 768.15,686.98C768.53,686.98 768.75,685.69 768.75,688.42Z" style="fill:rgb(255,208,55);fill-rule:nonzero;"/>
    </g>
    <g transform="matrix(1,0,0,1,-28.43,-18.54)">
        <path d="M772.54,691.68C770.14,692.98 768.05,693.77 767.87,693.44C767.69,693.11 769.49,691.78 771.87,690.44C774.25,689.1 773.32,690.08 773.5,690.44C773.68,690.8 774.93,690.37 772.54,691.68Z" style="fill:rgb(255,208,55);fill-rule:nonzero;"/>
    </g>
    <g transform="matrix(1,0,0,1,-28.43,-18.54)">
        <path d="M726.41,678.54C726.41,678.54 720.48,686.29 729.14,698C737.8,709.71 744.96,719.59 742.07,726.89C742.07,726.89 728.99,705.15 718.35,704.89C707.71,704.63 714.7,691.61 726.41,678.54Z" style="fill:rgb(78,176,211);fill-rule:nonzero;"/>
    </g>
    <g transform="matrix(1,0,0,1,-28.43,-18.54)">
        <path d="M726.41,678.54C725.888,679.287 725.477,680.105 725.19,680.97C714.81,693.17 709.28,704.56 719.26,704.84C728.56,705.11 739.71,721.74 742.38,725.93C742.3,726.27 742.196,726.604 742.07,726.93C741.944,727.256 728.99,705.19 718.35,704.93C707.71,704.67 714.7,691.61 726.41,678.54Z" style="fill-opacity:0.1;fill-rule:nonzero;"/>
    </g>
    <g transform="matrix(1,0,0,1,-28.43,-18.54)">
        <path d="M715.38,688.42C715.38,691.15 715.69,693.36 716.07,693.36C716.45,693.36 716.75,691.15 716.75,688.42C716.75,685.69 716.37,687 716,687C715.63,687 715.38,685.69 715.38,688.42Z" style="fill:rgb(255,208,55);fill-rule:nonzero;"/>
    </g>
    <g transform="matrix(1,0,0,1,-28.43,-18.54)">
        <path d="M711.6,691.68C714,692.98 716.09,693.77 716.27,693.44C716.45,693.11 714.65,691.78 712.27,690.44C709.89,689.1 710.82,690.08 710.64,690.44C710.46,690.8 709.2,690.37 711.6,691.68Z" style="fill:rgb(255,208,55);fill-rule:nonzero;"/>
    </g>
    <ellipse cx="713.64" cy="758.15" rx="62" ry="9.51" style="fill:rgb(108,99,255);fill-opacity:0.1;"/>
    <g transform="matrix(1,0,0,1,-28.43,-18.54)">
        <path d="M774,716.44L773.7,718.86L773.29,722.28L773.11,723.71L772.7,727.13L772.52,728.56L772.1,731.97L767.36,770.87C766.93,774.34 761.26,777.05 754.36,777.05L729.74,777.05C722.89,777.05 717.23,774.34 716.81,770.87L712.05,732L711.64,728.59L711.46,727.16L711.04,723.74L710.87,722.31L710.45,718.89L710.15,716.47C709.92,714.47 712.99,712.85 716.86,712.85L767.28,712.85C771.15,712.82 774.22,714.47 774,716.44Z" style="fill:rgb(101,97,125);fill-rule:nonzero;"/>
    </g>
    <path d="M745.25,700.32L744.84,703.74L682.44,703.74L682.02,700.32L745.25,700.32Z" style="fill:rgb(157,156,181);fill-rule:nonzero;"/>
    <path d="M744.66,705.16L744.25,708.58L683.03,708.58L682.61,705.16L744.66,705.16Z" style="fill:rgb(157,156,181);fill-rule:nonzero;"/>
    <path d="M744.07,710.01L743.65,713.43L683.62,713.43L683.21,710.01L744.07,710.01Z" style="fill:rgb(157,156,181);fill-rule:nonzero;"/>
    <path d="M486.05,334.72C486.05,330.029 482.241,326.22 477.55,326.22L192.55,326.22C187.859,326.22 184.05,330.029 184.05,334.72L184.05,539.26C184.05,543.951 187.859,547.76 192.55,547.76L477.55,547.76C482.241,547.76 486.05,543.951 486.05,539.26L486.05,334.72Z" style="fill:rgb(236,239,241);"/>
    <g transform="matrix(1,0,0,1,-28.43,-18.54)">
        <path d="M1153.48,591.15C1153.86,590.15 1151.04,584.43 1151.04,584.15C1151.04,583.87 1148.13,580.7 1148.13,578.93C1148.13,577.16 1144.28,573.33 1144.28,573.33C1144.28,573.33 1139.11,571.19 1138.55,566.52C1137.99,561.85 1132.36,561.77 1132.35,561.77C1132.34,561.77 1132.35,561.35 1132.35,560.7C1132.46,558.856 1132.23,557.007 1131.66,555.25C1131,553.961 1129.85,552.986 1128.47,552.54C1127.09,552.094 1127.9,548.9 1126.78,547.78C1125.51,546.452 1125.01,544.561 1125.46,542.78C1126.03,541.02 1124.71,536.54 1121.99,535.88C1119.27,535.22 1116.16,534.2 1116.16,534.2L1115.41,534.33L1115.04,534.2C1114.38,534.326 1113.71,534.41 1113.04,534.45C1112.47,534.467 1111.9,534.283 1111.45,533.93C1110.51,532.93 1102.9,530.93 1101.45,530.93C1100,530.93 1096,529.06 1096,529.06C1096,529.06 1093.18,526.92 1092,525.98C1090.82,525.04 1088.77,521.63 1088.46,521.11L1088.46,521.04C1088.12,520.246 1087.83,519.427 1087.61,518.59C1088.99,517.151 1090.16,515.533 1091.1,513.78C1091.2,513.6 1091.29,513.42 1091.38,513.23C1091.59,513.23 1091.79,513.2 1091.99,513.14L1092.24,513.04C1093.2,512.544 1093.92,511.687 1094.24,510.66C1094.31,510.457 1094.37,510.25 1094.42,510.04L1094.42,509.83L1094.51,509.41C1094.51,509.33 1094.51,509.25 1094.51,509.17L1094.57,508.75L1094.57,508.51C1094.57,508.33 1094.57,508.16 1094.64,507.98C1094.7,507.309 1094.8,506.641 1094.93,505.98C1095.49,503.45 1097.02,501.31 1098.09,498.98C1098.24,498.65 1098.39,498.31 1098.52,497.98C1098.65,497.65 1098.78,497.23 1098.89,496.85L1098.98,496.5C1099.05,496.22 1099.11,495.94 1099.17,495.66C1099.23,495.38 1099.17,495.41 1099.24,495.28C1099.3,494.9 1099.35,494.51 1099.39,494.11C1099.57,491.879 1099.23,489.636 1098.39,487.56C1097.69,485.81 1096.64,484.23 1095.93,482.48C1094.85,479.83 1094.56,476.82 1093.25,474.29C1091.05,470.068 1086.07,468.041 1081.55,469.53C1079.55,470.29 1077.73,471.76 1075.66,472.42C1072.88,473.31 1069.92,472.64 1067.04,472.25C1064.16,471.86 1061.04,471.81 1058.68,473.69C1056.02,475.85 1055.3,479.91 1052.8,482.28C1051.8,483.28 1050.45,483.91 1049.34,484.83C1048.56,485.455 1047.96,486.277 1047.6,487.21L1047.54,487.4C1047.51,487.482 1047.49,487.565 1047.48,487.65C1047.46,487.742 1047.44,487.836 1047.43,487.93C1047.42,487.993 1047.42,488.057 1047.43,488.12C1047.41,488.286 1047.41,488.454 1047.43,488.62C1047.44,488.778 1047.47,488.935 1047.5,489.09L1047.5,489.22C1047.5,489.35 1047.57,489.48 1047.62,489.61C1047.67,489.74 1047.62,489.66 1047.62,489.68C1047.62,489.7 1047.73,489.97 1047.79,490.11L1047.88,490.32C1047.88,490.38 1047.88,490.44 1047.96,490.49C1048.32,491.184 1048.61,491.911 1048.83,492.66C1048.95,493.135 1048.91,493.634 1048.74,494.09C1048.5,494.61 1048.16,495.076 1047.74,495.46C1045.87,497.403 1044.42,499.716 1043.5,502.25C1043.39,502.543 1043.29,502.833 1043.2,503.12L1043.33,503.12C1043.6,503.197 1043.87,503.254 1044.15,503.29C1044.31,503.299 1044.46,503.299 1044.62,503.29C1045.26,503.328 1045.91,503.281 1046.54,503.15L1047.02,503.03C1047.67,502.86 1048.31,502.629 1048.92,502.34L1048.92,503.23C1048.93,511.634 1053.72,519.338 1061.25,523.07C1061.25,523.27 1061.3,523.47 1061.33,523.67L1061.39,524.18L1061.14,523.94C1061.14,523.94 1059.45,523.1 1057.85,525.52C1056.68,527.108 1055.08,528.337 1053.25,529.07C1051.42,529.803 1036.15,531.77 1035.49,534.01L1027.49,534.48C1027.49,534.48 1024.67,534.85 1024.39,540.73C1024.11,546.61 1022.61,547.16 1022.61,547.16C1022.61,547.16 1019.32,552.95 1019.61,555.93C1019.68,557.781 1018.7,559.521 1017.07,560.41L1016.7,565.73C1016.7,565.73 1013.6,565.26 1012.7,568.9C1012.34,570.827 1011.54,572.645 1010.36,574.21C1009.18,575.775 1005.19,578.51 1004.91,582.14L1001.71,584.14C1001.71,584.14 994.29,582.46 992.6,579.48C992.6,579.48 992.4,579.28 992.08,578.99L992.08,578.92C990.97,577.92 988.62,575.68 988.98,576.19C989.201,576.658 989.254,577.188 989.13,577.69L988.58,577.08L987.1,575.44C987.1,575.44 975.1,564.2 968.1,563.31C968.01,563.13 967.55,561.31 966.35,562.46C964.33,564.315 963.179,566.935 963.179,569.677C963.179,572.387 964.303,574.978 966.28,576.83L977.52,587.32L977.81,587.53L980.22,590.63C979.81,591.63 979.47,592.55 979.22,593.41L979.22,593.5L979.04,594.04C979.019,594.099 979.002,594.159 978.99,594.22C978.93,594.4 978.88,594.57 978.83,594.74L978.74,595.04L978.74,595.22C978.47,596.16 978.3,596.88 978.22,597.28L977.59,597.08L978.2,597.35L978.2,597.64L978.78,597.89C982.07,599.32 998.49,606.53 999.33,607.62C1000.17,608.71 1006.47,612.38 1012.11,609.39C1017.75,606.4 1018.96,601.84 1018.96,601.84C1018.96,601.84 1024.41,594.28 1024.6,593.16C1024.79,592.04 1029.01,590.74 1029.01,590.74C1029.01,590.74 1029.39,603.23 1027.23,607.81C1025.07,612.39 1021.03,632.62 1021.03,632.62C1021.3,632.583 1021.57,632.583 1021.83,632.62L1021.59,633.79C1021.92,633.728 1022.26,633.728 1022.59,633.79C1022.29,636.09 1020.59,646.79 1020.59,646.79C1020.59,646.79 1020.03,651.64 1019.09,653.32C1018.15,655 1018.09,663.77 1018.09,663.77L1016.58,670.11C1016.58,670.11 1016.78,670.55 1017.15,671.2C1018.16,673.358 1019.64,675.267 1021.47,676.79C1021.35,677.787 1021.09,678.762 1020.71,679.69C1020.13,681.108 1019.87,682.639 1019.96,684.17C1020.05,685.701 1018.37,691.35 1018.55,693.4C1018.73,695.45 1017.55,700.49 1017.55,700.49L1015.86,716.72C1015.86,716.72 1014.74,730.8 1015.3,734.63C1015.57,737.634 1015.44,740.66 1014.92,743.63C1014.4,746.6 1016.05,754.73 1015.77,755.94C1015.49,757.15 1014.08,762.38 1014.92,765.27C1015.76,768.16 1015.3,776.09 1015.3,776.09C1015.3,776.09 1015.86,786.54 1016.52,789.9C1016.87,792.443 1016.81,795.027 1016.33,797.55C1015.85,800.073 1015.67,804.73 1015.39,804.73C1015.11,804.73 1012.67,809.67 1017.64,814.52C1022.61,819.37 1019.53,818.62 1019.53,818.62C1019.53,818.62 1015.53,816.62 1016.05,820.68C1016.49,824.49 1017.11,823.5 1017.17,823.39L1016.23,826.46L1016.89,826.55L1016.35,827.2C1015.78,827.927 1015.15,828.597 1014.45,829.2C1013.72,829.915 1013.28,830.879 1013.23,831.9C1013.18,832.921 1006.28,839.46 999.8,843.28C996.39,845.28 993.45,846.99 992.17,848.41C991.01,849.67 991.17,850.69 993.6,851.49C998.67,853.17 1007.6,854.01 1013.98,851.86C1017.8,850.596 1021.24,848.383 1023.98,845.43C1026.72,842.477 1027.98,843.37 1031.98,844.12C1035.98,844.87 1043.82,839.74 1043.82,839.74L1043.67,838.42L1043.26,834.6C1042.72,833.953 1042.49,833.111 1042.6,832.28C1042.65,831.15 1042.54,830.019 1042.27,828.92C1042.2,828.55 1042.13,828.18 1042.06,827.84L1042.78,827.7C1042.78,827.7 1041.85,822.95 1043.54,822.01C1045.23,821.07 1044.75,808.86 1044.75,808.86C1044.75,808.86 1042.6,806.06 1041.47,805.6C1040.34,805.14 1041.37,799.34 1041.57,798.6C1041.77,797.86 1043.26,783.39 1043.26,783.39C1043.26,783.39 1042.69,778.83 1043.44,776.87C1044.19,774.91 1042.5,767.35 1042.5,767.35C1042.18,766.641 1042.37,765.799 1042.97,765.3C1043.97,764.18 1043.63,754.2 1043.63,754.2C1043.63,754.2 1043.54,749.2 1043.54,747.85C1043.54,746.5 1044.66,741.79 1045.7,740.21C1046.74,738.63 1046.07,733.68 1046.07,733.68L1046.13,733.31C1046.13,733.17 1046.13,732.99 1046.21,732.78L1046.29,732.28C1046.75,729.547 1047.36,726.843 1048.13,724.18C1049.35,720.27 1050.76,713.37 1050.76,713.37L1059.49,690.59L1059.59,690.32C1059.59,690.32 1063.59,697.78 1063.59,704.69C1063.59,704.69 1064.59,712.99 1064.35,715.23C1064.11,717.47 1065,728 1065,728C1065,728 1066.22,743.11 1066.22,743.76C1066.22,744.41 1067.73,756.07 1068.67,757.85C1069.61,759.63 1067.73,765.03 1067.16,765.59C1066.59,766.15 1067.35,779.86 1067.35,779.86C1067.35,779.86 1065.94,790.68 1065.66,792.92C1065.38,795.16 1064.25,803.74 1065.19,807.1C1066.13,810.46 1065.75,810.92 1065.75,810.92C1065.75,810.92 1069.14,814.38 1067.16,814.66C1064.8,815.177 1063.1,817.29 1063.1,819.711C1063.1,820.307 1063.2,820.899 1063.4,821.46C1064.58,824.874 1065.96,828.213 1067.54,831.46L1069.1,831.13L1069.1,832.24L1069.21,837.8C1069.21,837.8 1069.87,843.11 1069.49,844.33C1069.22,845.21 1068.84,849.39 1068.66,851.58C1068.59,852.38 1068.55,852.91 1068.55,852.91C1068.55,852.91 1068.55,857.85 1078.98,856.36C1089.41,854.87 1091.28,850.76 1091.28,850.76L1091.36,850.25C1091.51,849.31 1091.85,847.31 1092.13,846.19C1092.5,844.7 1089.13,837.98 1089.13,837.98C1089.13,837.98 1088.57,833.41 1087.63,832.39C1087.24,831.786 1086.98,831.104 1086.87,830.39C1086.79,830.01 1086.71,829.62 1086.65,829.24C1086.88,829.268 1087.12,829.308 1087.35,829.36C1087.58,829.412 1086.78,826.1 1088.95,825.07C1091.12,824.04 1090.54,821.9 1090.26,820.97C1089.98,820.04 1091.1,814.81 1091.1,814.81C1090.78,813.75 1091.07,812.593 1091.85,811.81C1093.17,810.5 1094.2,801.36 1094.2,801.36L1094.39,766.1C1094.39,766.1 1095.05,759.85 1094.3,757.33C1093.55,754.81 1092.8,749.96 1093.83,748.65C1094.86,747.34 1093.92,741.29 1093.92,741.29C1093.92,741.29 1093.92,728.51 1095.33,725.29C1096.74,722.07 1096.27,702.06 1096.27,702.06L1096.64,688.91C1096.64,688.91 1099.71,686.01 1098.99,670.91C1102.26,670.7 1105.99,670.58 1106.51,671.04C1107.51,671.88 1114.21,676.17 1118.16,673.46C1119.79,672.34 1121.36,671.128 1122.85,669.83L1121.19,641.83C1122.19,643.39 1122.85,644.42 1122.85,644.42C1122.85,640.51 1133.94,627.82 1133.94,627.82C1133.94,627.82 1144.27,614.48 1146.52,612.9C1148.77,611.32 1153.19,602.9 1153.19,602.9C1153.84,601.3 1154.6,599.744 1155.45,598.24C1156.49,596.65 1153.11,592.17 1153.48,591.15ZM1129.25,600.94C1126.43,601.22 1120.51,607.66 1120.42,609.06C1120.21,609.983 1119.79,610.842 1119.17,611.56C1119.17,611 1119.08,610.43 1119.03,609.85C1118.37,601.6 1117.65,591.56 1118.03,590.59C1118.59,588.91 1118.4,581.35 1118.4,581.35L1118.51,581.2C1120.4,587.06 1126.28,593.96 1126.28,593.96C1126.28,593.96 1127.28,596.96 1128.54,597.03C1129.8,597.1 1129.25,600.94 1129.25,600.94Z" style="fill:url(#_Linear2);fill-rule:nonzero;"/>
    </g>
    <g transform="matrix(1,0,0,1,-28.43,-18.54)">
        <path d="M978.65,598.81C978.65,598.81 982.08,580.81 993.09,580.81L1001.15,597.38L995.78,601.08C995.78,601.08 984.11,601.4 978.65,598.81Z" style="fill:rgb(101,97,125);fill-rule:nonzero;"/>
    </g>
    <g transform="matrix(1,0,0,1,-28.43,-18.54)">
        <path d="M1001.15,597.33L995.78,601.03C995.78,601.03 987.57,601.29 981.7,599.85C980.653,599.618 979.631,599.283 978.65,598.85L978.71,598.56L978.71,598.5C979.211,596.244 979.907,594.036 980.79,591.9C981.13,591.09 981.51,590.26 981.93,589.43C983.54,586.33 985.81,583.28 988.93,581.78C990.073,581.202 991.322,580.862 992.6,580.78L993.09,580.78L993.27,581.15L995.99,586.75L1001.15,597.33Z" style="fill-opacity:0.1;fill-rule:nonzero;"/>
    </g>
    <g transform="matrix(1,0,0,1,-28.43,-18.54)">
        <path d="M1092.61,671.94C1092.61,671.94 1104.18,670.83 1105.2,671.67C1106.22,672.51 1112.79,676.76 1116.67,674.07C1120.55,671.38 1117.97,662.07 1117.97,661.67C1117.97,661.27 1117.6,648.06 1117.6,648.06L1110.66,638.71L1101.96,622.33L1084.18,620.57L1084.64,646.57L1084.55,659.9L1092.61,671.94Z" style="fill:rgb(101,97,125);fill-rule:nonzero;"/>
    </g>
    <g transform="matrix(1,0,0,1,-28.43,-18.54)">
        <path d="M1092.61,671.94C1092.61,671.94 1104.18,670.83 1105.2,671.67C1106.22,672.51 1112.79,676.76 1116.67,674.07C1120.55,671.38 1117.97,662.07 1117.97,661.67C1117.97,661.27 1117.6,648.06 1117.6,648.06L1110.66,638.71L1101.96,622.33L1084.18,620.57L1084.64,646.57L1084.55,659.9L1092.61,671.94Z" style="fill-opacity:0.1;fill-rule:nonzero;"/>
    </g>
    <g transform="matrix(1,0,0,1,-28.43,-18.54)">
        <path d="M990.78,580.3C990.78,580.3 989.85,591.59 982.78,591.78C982.78,591.78 980.78,590.58 978.1,588.57C971.92,583.94 962.1,575.05 964.82,566.78C968.71,554.93 987.59,576.78 987.59,576.78L989.05,578.41L990.78,580.3Z" style="fill:rgb(251,190,190);fill-rule:nonzero;"/>
    </g>
    <g transform="matrix(1,0,0,1,-28.43,-18.54)">
        <path d="M990.78,580.3C990.78,580.3 989.85,591.59 982.78,591.78C982.78,591.78 980.78,590.58 978.1,588.57L977.5,587.8C978.698,588.411 980.016,588.753 981.36,588.8C983.519,588.885 985.516,587.618 986.36,585.63C987.118,584.176 987.786,582.676 988.36,581.14C988.691,580.243 988.928,579.315 989.07,578.37L990.78,580.3Z" style="fill-opacity:0.1;fill-rule:nonzero;"/>
    </g>
    <g transform="matrix(1,0,0,1,-28.43,-18.54)">
        <path d="M987.72,600.76L986.14,598.76L980.81,591.9L978.1,588.39C979.294,589.002 980.609,589.344 981.95,589.39C984.111,589.483 986.113,588.214 986.95,586.22C987.693,584.769 988.344,583.272 988.9,581.74C989.78,579.24 989.76,577.96 989.45,577.52C989.14,577.08 991.45,579.2 992.51,580.24L993.02,580.72L993.21,581.1L996,586.5C996.006,586.577 996.006,586.653 996,586.73C996.2,588.43 997.1,599.22 987.72,600.76Z" style="fill:rgb(231,239,253);fill-rule:nonzero;"/>
    </g>
    <g transform="matrix(1,0,0,1,-28.43,-18.54)">
        <path d="M1043.18,839C1043.18,839 1035.4,844.1 1031.51,843.35C1028.82,843.011 1026.08,843.463 1023.64,844.65C1020.97,847.578 1017.59,849.777 1013.83,851.04C1007.53,853.17 998.74,852.33 993.74,850.67C991.38,849.88 991.19,848.86 992.33,847.61C993.47,846.36 996.49,844.52 999.85,842.52C1006.24,838.72 1013.09,831.23 1013.09,831.23C1013.13,830.214 1013.56,829.251 1014.29,828.54C1014.98,827.937 1015.61,827.267 1016.16,826.54C1017.16,825.37 1018.09,824.14 1018.09,824.14L1041,825C1041,825 1041.39,826.65 1041.7,828.34C1041.96,829.43 1042.07,830.551 1042.02,831.67C1041.91,832.497 1042.14,833.334 1042.67,833.98L1043.08,837.76L1043.18,839Z" style="fill:rgb(101,97,125);fill-rule:nonzero;"/>
    </g>
    <g transform="matrix(1,0,0,1,-28.43,-18.54)">
        <path d="M1091,845.42C1090.73,846.53 1090.39,848.51 1090.24,849.42C1090.24,849.73 1090.17,849.93 1090.17,849.93C1090.17,849.93 1088.32,854 1078.04,855.48C1067.76,856.96 1067.77,852.06 1067.77,852.06L1067.87,850.73C1068.05,848.57 1068.42,844.42 1068.69,843.54C1069.06,842.34 1068.42,837.06 1068.42,837.06L1068.31,831.54L1068.23,827.71L1085.23,825.95C1085.34,827.223 1085.52,828.488 1085.78,829.74C1085.88,830.454 1086.13,831.137 1086.53,831.74C1087.45,832.74 1088.01,837.29 1088.01,837.29C1088.01,837.29 1091.4,843.94 1091,845.42Z" style="fill:rgb(101,97,125);fill-rule:nonzero;"/>
    </g>
    <g transform="matrix(1,0,0,1,-28.43,-18.54)">
        <path d="M1041,825C1041,825 1041.39,826.65 1041.7,828.34C1039.23,828.79 1028.43,830.66 1025.7,829.34C1022.64,827.86 1016.07,827.03 1016.07,827.03L1016.18,826.65C1017.18,825.48 1018.11,824.25 1018.11,824.25L1041,825Z" style="fill-opacity:0.1;fill-rule:nonzero;"/>
    </g>
    <g transform="matrix(1,0,0,1,-28.43,-18.54)">
        <path d="M1085.84,829.77C1081.53,829.04 1072.06,830.77 1068.34,831.57L1068.26,827.74L1085.26,825.98C1085.38,827.254 1085.57,828.519 1085.84,829.77Z" style="fill-opacity:0.1;fill-rule:nonzero;"/>
    </g>
    <g transform="matrix(1,0,0,1,-28.43,-18.54)">
        <path d="M1095.47,689.44L1095.11,702.44C1095.11,702.44 1095.57,722.34 1094.18,725.44C1092.79,728.54 1092.79,741.27 1092.79,741.27C1092.79,741.27 1093.72,747.27 1092.7,748.58C1091.68,749.89 1092.42,754.69 1093.16,757.19C1093.9,759.69 1093.25,765.89 1093.25,765.89L1093.07,800.89C1093.07,800.89 1092.07,809.96 1090.75,811.26C1089.98,812.051 1089.69,813.201 1090.01,814.26C1090.33,815.319 1088.9,819.44 1089.18,820.37C1089.46,821.3 1090.01,823.42 1087.89,824.44C1085.77,825.46 1086.31,828.7 1086.31,828.7C1081.22,827.49 1066.78,830.7 1066.78,830.7C1065.22,827.482 1063.86,824.173 1062.7,820.79C1062.5,820.228 1062.39,819.636 1062.39,819.038C1062.39,816.642 1064.07,814.549 1066.41,814.03C1068.35,813.76 1065.02,810.33 1065.02,810.33C1065.02,810.33 1065.39,809.87 1064.46,806.53C1063.53,803.19 1064.65,794.68 1064.93,792.46C1065.21,790.24 1066.59,779.46 1066.59,779.46C1066.59,779.46 1065.85,765.85 1066.41,765.3C1066.97,764.75 1068.81,759.37 1067.89,757.62C1066.97,755.87 1065.48,744.29 1065.48,743.62C1065.48,742.95 1064.28,727.97 1064.28,727.97C1064.28,727.97 1063.17,717.51 1063.45,715.29C1063.73,713.07 1062.7,704.83 1062.7,704.83C1062.7,697.98 1058.7,690.57 1058.7,690.57L1058.6,690.84L1050,713.6C1050,713.6 1048.61,720.45 1047.41,724.34C1046.65,726.969 1046.05,729.64 1045.6,732.34L1045.52,732.84L1045.44,733.36L1045.38,733.73C1045.38,733.73 1046.02,738.63 1045,740.21C1043.86,742.6 1043.15,745.167 1042.88,747.8C1042.88,749.1 1042.97,754.1 1042.97,754.1C1042.97,754.1 1043.34,764 1042.32,765.1C1041.75,765.593 1041.56,766.406 1041.86,767.1C1042.16,767.794 1043.52,774.6 1042.78,776.54C1042.04,778.48 1042.6,783.02 1042.6,783.02C1042.6,783.02 1041.12,797.37 1040.93,798.11C1040.74,798.85 1039.73,804.59 1040.84,805.05C1041.95,805.51 1044.08,808.29 1044.08,808.29C1044.08,808.29 1044.54,820.42 1042.88,821.34C1041.22,822.26 1042.13,826.99 1042.13,826.99C1042.13,826.99 1028.71,829.58 1025.66,828.1C1022.61,826.62 1016.03,825.79 1016.03,825.79L1016.95,822.79C1016.89,822.9 1016.28,823.89 1015.85,820.1C1015.38,816.1 1019.27,818.1 1019.27,818.1C1019.27,818.1 1022.33,818.84 1017.42,814.03C1012.51,809.22 1014.92,804.31 1015.2,804.31C1015.48,804.31 1016.12,797.18 1016.12,797.18C1016.59,794.677 1016.66,792.114 1016.31,789.59C1015.66,786.26 1015.11,775.89 1015.11,775.89C1015.11,775.89 1015.57,768.02 1014.73,765.15C1013.89,762.28 1015.29,757.15 1015.57,755.89C1015.85,754.63 1014.73,743.67 1014.73,743.67C1015.25,740.7 1015.38,737.674 1015.11,734.67C1014.55,730.87 1015.66,716.89 1015.66,716.89L1017.33,700.79C1017.33,700.79 1018.53,695.79 1018.33,693.79C1018.13,691.79 1019.72,684.63 1019.72,684.63C1019.63,683.11 1019.88,681.589 1020.46,680.18C1021.39,678.33 1021.76,672.18 1021.76,672.18L1030.65,651.82L1035,633.82L1093.78,633.26C1093.78,633.26 1093.99,634.82 1094.35,637.65C1094.71,640.48 1095.21,644.65 1095.77,649.84C1096.28,654.54 1096.84,660.07 1097.39,666.22C1099.18,685.92 1095.47,689.44 1095.47,689.44Z" style="fill:rgb(63,61,86);fill-rule:nonzero;"/>
    </g>
    <g transform="matrix(1,0,0,1,-28.43,-18.54)">
        <path d="M1090,527.35L1076.31,542C1076.31,542 1058.73,535 1060.58,532.55C1061.29,531.62 1061.18,528.68 1060.77,525.44C1060.12,520.31 1058.77,514.44 1058.77,514.44C1058.77,514.44 1089.5,509.44 1086.9,514.62C1086.07,516.574 1086.01,518.769 1086.71,520.77C1087.45,523.124 1088.56,525.345 1090,527.35Z" style="fill:rgb(251,190,190);fill-rule:nonzero;"/>
    </g>
    <g transform="matrix(1,0,0,1,-28.43,-18.54)">
        <path d="M1086.86,514.57C1085.92,516.47 1085.47,516.65 1086.06,518.69C1082.06,523 1076.93,527.69 1070.57,527.69C1067.17,527.694 1063.81,526.906 1060.77,525.39C1060.12,520.26 1058.77,514.39 1058.77,514.39C1058.77,514.39 1089.46,509.39 1086.86,514.57Z" style="fill-opacity:0.1;fill-rule:nonzero;"/>
    </g>
    <g transform="matrix(1,0,0,1,-28.43,-18.54)">
        <path d="M1092.61,505.13C1092.61,517.218 1082.66,527.165 1070.58,527.165C1058.49,527.165 1048.54,517.218 1048.54,505.13L1048.54,504.81C1048.63,492.785 1058.55,482.939 1070.57,482.939C1082.66,482.939 1092.6,492.884 1092.6,504.97C1092.6,505.023 1092.6,505.077 1092.6,505.13L1092.61,505.13Z" style="fill:rgb(251,190,190);fill-rule:nonzero;"/>
    </g>
    <g transform="matrix(1,0,0,1,-28.43,-18.54)">
        <path d="M1095.8,650.48C1092.88,650.48 1083.16,650.58 1072.3,650.76L1072.17,650.76L1068.58,650.82L1068.47,650.82C1055.59,651.02 1042.9,648.51 1037.8,648.98C1026.97,649.98 1041.69,638.98 1041.69,638.98C1049.76,640.934 1058.06,641.772 1066.36,641.47L1069.48,641.31C1079.32,640.75 1089.21,639.83 1094.38,638.31C1094.74,641.15 1095.24,645.31 1095.8,650.48Z" style="fill-opacity:0.1;fill-rule:nonzero;"/>
    </g>
    <g transform="matrix(1,0,0,1,-28.43,-18.54)">
        <path d="M1095.8,649.92C1092.88,649.92 1083.16,650.03 1072.3,650.2L1072.17,650.2L1068.58,650.26L1068.47,650.26C1055.59,650.47 1042.9,647.95 1037.8,648.43C1026.97,649.43 1041.69,638.43 1041.69,638.43C1049.76,640.39 1058.06,641.227 1066.36,640.92L1069.48,640.76C1079.32,640.21 1089.21,639.28 1094.38,637.76C1094.74,640.59 1095.24,644.75 1095.8,649.92Z" style="fill:rgb(95,93,126);fill-rule:nonzero;"/>
    </g>
    <g transform="matrix(1,0,0,1,-28.43,-18.54)">
        <path d="M1064.65,533.46L1047.65,541.46L1034.5,643.1C1034.5,643.1 1042.28,639.58 1046.72,641.8C1051.16,644.02 1064.86,641.99 1064.86,641.99C1064.86,641.99 1074.86,641.43 1076.34,642.55C1077.82,643.67 1095.23,637.92 1095.23,637.92C1095.23,637.92 1098.38,630.92 1095.97,629.77C1093.56,628.62 1096.71,617.77 1096.71,617.77L1095.23,544.45L1092.23,535.01L1084.23,530.19L1076.09,536.67L1072.2,537.23L1064.65,533.46Z" style="fill-opacity:0.1;fill-rule:nonzero;"/>
    </g>
    <g transform="matrix(1,0,0,1,-28.43,-18.54)">
        <path d="M1064.65,532.35L1047.65,540.35L1034.47,642C1034.47,642 1042.25,638.48 1046.69,640.7C1051.13,642.92 1064.83,640.89 1064.83,640.89C1064.83,640.89 1074.83,640.33 1076.31,641.44C1077.79,642.55 1095.2,636.82 1095.2,636.82C1095.2,636.82 1098.35,629.82 1095.94,628.67C1093.53,627.52 1096.68,616.67 1096.68,616.67L1095.2,543.35L1092.2,533.91L1084.2,529.09L1076.06,535.57L1072.17,536.13L1064.65,532.35Z" style="fill:rgb(231,239,253);fill-rule:nonzero;"/>
    </g>
    <g transform="matrix(1,0,0,1,-28.43,-18.54)">
        <path d="M1064.37,537.07C1064.37,537.07 1069.28,542.9 1069.19,544.07C1069.1,545.24 1068.91,548.15 1068.91,548.15L1065.21,555.64C1065.21,555.64 1063.21,564.99 1063.21,566.94C1063.21,568.89 1059.97,585.73 1059.97,585.73L1056,611.68L1051.09,645.68L1056.09,654.29L1062.02,649.29L1069.89,588.75L1071.55,576.81C1071.55,576.81 1073.31,555.33 1073.31,553.11C1073.12,550.411 1072.79,547.723 1072.31,545.06C1071.83,542.397 1073.52,539.5 1078.52,538.21C1083.52,536.92 1078.14,537.93 1078.14,537.93L1075.28,535.62L1072.78,536.62C1072.78,536.62 1065.85,534.48 1064.37,537.07Z" style="fill-opacity:0.1;fill-rule:nonzero;"/>
    </g>
    <g transform="matrix(1,0,0,1,-28.43,-18.54)">
        <path d="M1063.82,536.51C1063.82,536.51 1068.72,542.34 1068.63,543.51C1068.54,544.68 1068.35,547.58 1068.35,547.58L1064.65,555.08C1064.65,555.08 1062.65,564.43 1062.65,566.37C1062.65,568.31 1059.41,585.16 1059.41,585.16L1055.53,611.08L1050.62,645.08L1055.62,653.69L1061.54,648.69L1069.41,588.15L1071.08,576.21C1071.08,576.21 1072.84,554.73 1072.84,552.51C1072.65,549.807 1072.32,547.117 1071.84,544.45C1071.36,541.783 1073.04,538.9 1078.04,537.6C1083.04,536.3 1077.67,537.33 1077.67,537.33L1074.8,535.01L1072.3,536.01C1072.3,536.01 1065.3,533.92 1063.82,536.51Z" style="fill:rgb(0,102,204);fill-rule:nonzero;"/>
    </g>
    <g transform="matrix(1,0,0,1,-28.43,-18.54)">
        <path d="M1060.58,526.79C1060.58,526.79 1059.84,527.35 1059.65,531.05C1059.46,534.75 1056.87,543.05 1056.87,543.05C1056.87,543.05 1066.5,536.39 1071.31,537.13L1060.58,526.79Z" style="fill-opacity:0.1;fill-rule:nonzero;"/>
    </g>
    <g transform="matrix(1,0,0,1,-28.43,-18.54)">
        <path d="M1060.58,525.68C1060.58,525.68 1059.84,526.24 1059.65,529.94C1059.46,533.64 1056.87,541.94 1056.87,541.94C1056.87,541.94 1066.5,535.28 1071.31,536.02L1060.58,525.68Z" style="fill:rgb(231,239,253);fill-rule:nonzero;"/>
    </g>
    <g transform="matrix(1,0,0,1,-28.43,-18.54)">
        <path d="M1086.87,523.83L1071.69,537.16C1071.69,537.16 1084.46,544.75 1086.13,546.6C1087.8,548.45 1089.46,528.46 1089.46,528.46L1086.87,523.83Z" style="fill-opacity:0.1;fill-rule:nonzero;"/>
    </g>
    <g transform="matrix(1,0,0,1,-28.43,-18.54)">
        <path d="M1087.42,522.72L1072.24,536.05C1072.24,536.05 1085.02,543.64 1086.68,545.49C1088.34,547.34 1090.01,527.35 1090.01,527.35L1087.42,522.72Z" style="fill:rgb(231,239,253);fill-rule:nonzero;"/>
    </g>
    <g transform="matrix(1,0,0,1,-28.43,-18.54)">
        <path d="M1061.13,526.79C1061.13,526.79 1059.47,525.96 1057.89,528.37C1056.74,529.939 1055.17,531.155 1053.36,531.88C1051.55,532.605 1036.51,534.57 1035.86,536.79L1027.99,537.25C1027.99,537.25 1025.21,537.62 1024.99,543.46C1024.77,549.3 1023.23,549.84 1023.23,549.84C1023.23,549.84 1019.99,555.58 1020.23,558.54C1020.3,560.373 1019.33,562.099 1017.73,562.99L1029.3,593.07C1029.3,593.07 1029.67,605.48 1027.54,610.01C1025.41,614.54 1021.43,634.64 1021.43,634.64C1021.43,634.64 1023.1,634.27 1023,635.38C1022.9,636.49 1021,648.62 1021,648.62C1021,648.62 1020.44,653.43 1019.52,655.1C1018.6,656.77 1018.52,665.46 1018.52,665.46L1017.04,671.76C1017.04,671.76 1020.55,679.63 1025.92,678.52C1031.29,677.41 1041,656.39 1041,656.39L1047.2,633.71L1052.02,611.31L1053.41,596.13L1055.63,562.52L1058.87,540.31C1058.87,540.31 1062.43,528.37 1061.13,526.79Z" style="fill-opacity:0.1;fill-rule:nonzero;"/>
    </g>
    <g transform="matrix(1,0,0,1,-28.43,-18.54)">
        <path d="M1060.58,525.68C1060.58,525.68 1058.91,524.85 1057.34,527.26C1056.18,528.828 1054.61,530.044 1052.8,530.77C1050.99,531.496 1035.95,533.46 1035.3,535.68L1027.44,536.14C1027.44,536.14 1024.66,536.51 1024.38,542.34C1024.1,548.17 1022.62,548.73 1022.62,548.73C1022.62,548.73 1019.38,554.47 1019.62,557.43C1019.7,559.264 1018.73,560.992 1017.12,561.88L1028.73,592C1028.73,592 1029.1,604.41 1026.97,608.94C1024.84,613.47 1020.86,633.57 1020.86,633.57C1020.86,633.57 1022.53,633.2 1022.44,634.31C1022.35,635.42 1020.44,647.54 1020.44,647.54C1020.44,647.54 1019.89,652.36 1018.96,654.02C1018.03,655.68 1017.96,664.39 1017.96,664.39L1016.48,670.69C1016.48,670.69 1020,678.56 1025.37,677.44C1030.74,676.32 1040.46,655.32 1040.46,655.32L1046.66,632.64L1051.47,610.24L1052.8,595L1055.02,561.39L1058.26,539.18C1058.26,539.18 1061.87,527.26 1060.58,525.68Z" style="fill:rgb(101,97,125);fill-rule:nonzero;"/>
    </g>
    <g transform="matrix(1,0,0,1,-28.43,-18.54)">
        <path d="M1001.15,597.33L995.78,601.03C995.78,601.03 987.57,601.29 981.7,599.85L978.7,598.52L978.1,598.26L978.72,598.46C981.104,599.309 983.693,599.4 986.13,598.72C993.73,596.16 992.89,583.62 992.59,580.78C992.59,580.49 992.54,580.31 992.53,580.24L992.53,580.31C992.637,580.48 992.754,580.644 992.88,580.8L993.22,581.16L996,586.5C996.006,586.577 996.006,586.653 996,586.73L1001.15,597.33Z" style="fill-opacity:0.1;fill-rule:nonzero;"/>
    </g>
    <g transform="matrix(1,0,0,1,-28.43,-18.54)">
        <path d="M1019.75,561.14L1017.16,561.88L1016.79,567.15C1016.79,567.15 1013.79,566.69 1012.9,570.3C1012.54,572.214 1011.75,574.02 1010.59,575.58C1009.43,577.14 1005.5,579.84 1005.22,583.45L1002.07,585.39C1002.07,585.39 994.76,583.72 993.07,580.76C993.07,580.76 996.41,604.64 978.63,598.76C978.63,598.76 998.53,607.46 999.46,608.67C1000.39,609.88 1006.46,613.39 1012.05,610.43C1017.64,607.47 1018.81,602.93 1018.81,602.93C1018.81,602.93 1024.18,595.43 1024.36,594.32C1024.54,593.21 1028.71,591.91 1028.71,591.91L1036.71,572.66L1019.75,561.14Z" style="fill:rgb(101,97,125);fill-rule:nonzero;"/>
    </g>
    <g transform="matrix(1,0,0,1,-28.43,-18.54)">
        <path d="M1084.74,534.94L1087.42,522.72C1087.42,522.72 1088.63,526.72 1089.83,527.63L1093.83,530.63C1093.83,530.63 1097.83,532.48 1099.2,532.48C1100.57,532.48 1108.09,534.48 1109.01,535.48C1109.93,536.48 1113.64,535.76 1113.64,535.76C1113.64,535.76 1116.69,536.76 1119.38,537.43C1122.07,538.1 1123.38,542.52 1122.8,544.28C1122.35,546.057 1122.84,547.948 1124.1,549.28C1125.21,550.39 1125.77,554 1125.77,554C1127.13,554.444 1128.26,555.408 1128.91,556.68C1129.84,558.68 1129.56,563.16 1129.56,563.16L1115.77,582.6C1115.77,582.6 1115.95,590.1 1115.4,591.77C1114.85,593.44 1117.34,621.77 1117.34,621.77L1120.21,670.46C1118.74,671.752 1117.19,672.957 1115.58,674.07C1114.75,674.44 1113.92,656.85 1113.92,656.21C1113.92,655.57 1092.53,624.21 1092.53,624.21C1092.53,624.21 1089.66,619.58 1089.66,618.56C1089.66,617.54 1086.98,608.19 1086.98,608.19L1082.91,590.19L1084.74,534.94Z" style="fill-opacity:0.1;fill-rule:nonzero;"/>
    </g>
    <g transform="matrix(1,0,0,1,-28.43,-18.54)">
        <path d="M1130.69,562.11L1130.69,563.17L1116.91,582.59C1116.91,582.59 1117.1,590.09 1116.54,591.76C1116.22,592.76 1116.92,602.69 1117.54,610.87C1118.01,616.77 1118.44,621.75 1118.44,621.75L1119.66,642.4L1121.31,670.4C1119.84,671.692 1118.29,672.897 1116.68,674.01C1115.85,674.38 1115.02,656.79 1115.02,656.14C1115.02,655.49 1093.63,624.14 1093.63,624.14C1093.63,624.14 1090.76,619.51 1090.76,618.49C1090.76,617.47 1088.08,608.12 1088.08,608.12L1084.01,590.12L1085.86,534.95L1087.43,522.73C1087.43,522.73 1089.75,526.73 1090.95,527.63L1094.95,530.69C1094.95,530.69 1098.95,532.54 1100.32,532.54C1101.69,532.54 1109.21,534.54 1110.13,535.54C1111.05,536.54 1114.76,535.82 1114.76,535.82C1114.76,535.82 1117.82,536.82 1120.5,537.49C1123.18,538.16 1124.5,542.58 1123.92,544.34C1123.47,546.117 1123.96,548.007 1125.22,549.34C1126.33,550.45 1126.89,554.06 1126.89,554.06C1128.25,554.504 1129.38,555.468 1130.03,556.74C1130.57,558.475 1130.8,560.295 1130.69,562.11Z" style="fill:rgb(101,97,125);fill-rule:nonzero;"/>
    </g>
    <g transform="matrix(1,0,0,1,-28.43,-18.54)">
        <path d="M1017.53,808.76C1017.99,808.76 1037.43,809.5 1037.06,812.65C1036.69,815.8 1017.53,808.76 1017.53,808.76Z" style="fill-opacity:0.1;fill-rule:nonzero;"/>
    </g>
    <g transform="matrix(1,0,0,1,-28.43,-18.54)">
        <path d="M1021.88,814C1021.88,814 1034.93,816.13 1031.51,818.07C1028.09,820.01 1021.88,814 1021.88,814Z" style="fill-opacity:0.1;fill-rule:nonzero;"/>
    </g>
    <g transform="matrix(1,0,0,1,-28.43,-18.54)">
        <path d="M1070.39,806.73C1070.39,806.73 1092.05,808.58 1088.81,810.98C1085.57,813.38 1077.89,813.76 1077.52,813.85C1077.15,813.94 1070.39,806.73 1070.39,806.73Z" style="fill-opacity:0.1;fill-rule:nonzero;"/>
    </g>
    <g transform="matrix(1,0,0,1,-28.43,-18.54)">
        <path d="M1067.8,816.26C1067.8,816.26 1079.8,818.26 1080.2,820.61C1080.6,822.96 1067.8,816.26 1067.8,816.26Z" style="fill-opacity:0.1;fill-rule:nonzero;"/>
    </g>
    <g transform="matrix(1,0,0,1,-28.43,-18.54)">
        <path d="M1074.46,760.53C1074.46,760.53 1085.46,763.12 1086.13,764.88L1074.46,760.53Z" style="fill-opacity:0.1;fill-rule:nonzero;"/>
    </g>
    <g transform="matrix(1,0,0,1,-28.43,-18.54)">
        <path d="M1032,768.49C1032,768.49 1026.26,770.16 1031.82,773.49C1037.38,776.82 1032,768.49 1032,768.49Z" style="fill-opacity:0.1;fill-rule:nonzero;"/>
    </g>
    <g transform="matrix(1,0,0,1,-28.43,-18.54)">
        <path d="M1057.43,679.53C1058.08,679.53 1068.17,676.2 1071.69,677.68C1074.21,678.62 1076.87,679.12 1079.55,679.16L1057.43,679.53Z" style="fill-opacity:0.1;fill-rule:nonzero;"/>
    </g>
    <g transform="matrix(1,0,0,1,-28.43,-18.54)">
        <path d="M1058.73,690.08L1058.63,691L1050,713.6C1050,713.6 1048.61,720.45 1047.41,724.34C1046.65,726.969 1046.05,729.64 1045.6,732.34L1053.24,684.97L1058.73,690.08Z" style="fill-opacity:0.1;fill-rule:nonzero;"/>
    </g>
    <g transform="matrix(1,0,0,1,-28.43,-18.54)">
        <path d="M1072.17,650.2L1068.58,650.26L1068.47,650.26L1066.36,640.93L1069.48,640.76L1072.17,650.2Z" style="fill:rgb(63,61,86);fill-rule:nonzero;"/>
    </g>
    <g transform="matrix(1,0,0,1,-28.43,-18.54)">
        <path d="M1115.84,638.9L1113.54,640.8L1105.84,647.13C1105.84,647.13 1085.02,658.24 1079.28,647.69C1074.22,638.39 1097.83,631.75 1103.52,630.3L1104.73,630.01L1115.84,638.9Z" style="fill:rgb(251,190,190);fill-rule:nonzero;"/>
    </g>
    <g transform="matrix(1,0,0,1,-28.43,-18.54)">
        <path d="M1026.88,547.9C1026.88,547.9 1030.95,549.75 1031.88,552.34C1032.81,554.93 1026.88,547.9 1026.88,547.9Z" style="fill-opacity:0.1;fill-rule:nonzero;"/>
    </g>
    <g transform="matrix(1,0,0,1,-28.43,-18.54)">
        <path d="M1014.29,575.67C1014.29,575.67 1008.37,582.89 1010.77,585.67C1013.17,588.45 1014.29,575.67 1014.29,575.67Z" style="fill-opacity:0.1;fill-rule:nonzero;"/>
    </g>
    <g transform="matrix(1,0,0,1,-28.43,-18.54)">
        <path d="M1120.19,552C1120.19,552 1114.64,552.56 1114.45,557.37L1120.19,552Z" style="fill-opacity:0.1;fill-rule:nonzero;"/>
    </g>
    <g transform="matrix(1,0,0,1,-28.43,-18.54)">
        <path d="M1068.72,627.88C1069.28,627.32 1082.05,608.44 1085.02,610.11L1068.72,627.88Z" style="fill-opacity:0.1;fill-rule:nonzero;"/>
    </g>
    <g transform="matrix(1,0,0,1,-28.43,-18.54)">
        <path d="M1092.61,505.13C1092.61,508.759 1091.71,512.332 1090,515.53L1089.84,515.53C1088.44,515.23 1087.71,513.61 1086.65,512.59C1085.31,511.312 1083.29,511.029 1081.65,511.89C1080,512.877 1079.04,514.721 1079.19,516.64C1078.49,513.64 1078.71,510.52 1078.02,507.55C1077.33,504.58 1075.26,501.55 1072.42,501.55C1071.2,501.55 1069.77,502 1068.89,501.08C1068.36,500.53 1068.25,499.66 1067.89,498.99C1065.89,495.7 1059.69,497.36 1057.17,499.05C1054.65,500.74 1051.72,503.42 1048.59,504.86C1048.68,492.835 1058.6,482.989 1070.62,482.989C1082.71,482.989 1092.65,492.934 1092.65,505.02C1092.65,505.073 1092.65,505.127 1092.65,505.18L1092.61,505.13Z" style="fill-opacity:0.1;fill-rule:nonzero;"/>
    </g>
    <g transform="matrix(1,0,0,1,-28.43,-18.54)">
        <path d="M1067.85,498.38C1068.25,499.05 1068.36,499.92 1068.85,500.48C1069.73,501.39 1071.16,500.92 1072.38,500.94C1075.22,500.99 1077.3,504 1077.98,506.94C1078.66,509.88 1078.45,513.06 1079.16,516.02C1079,514.103 1079.95,512.254 1081.61,511.28C1083.25,510.423 1085.26,510.701 1086.61,511.97C1087.67,512.97 1088.4,514.62 1089.8,514.91C1091.2,515.2 1092.54,513.86 1093.04,512.39C1093.4,510.871 1093.67,509.331 1093.84,507.78C1094.47,504.9 1096.36,502.53 1097.4,499.78C1098.64,496.44 1098.61,492.758 1097.31,489.44C1096.61,487.7 1095.58,486.14 1094.88,484.44C1093.81,481.81 1093.53,478.83 1092.23,476.32C1090.08,472.138 1085.17,470.117 1080.7,471.58C1078.7,472.34 1076.94,473.8 1074.9,474.46C1072.16,475.34 1069.24,474.68 1066.41,474.28C1063.58,473.88 1060.41,473.85 1058.17,475.71C1055.55,477.86 1054.83,481.89 1052.37,484.24C1051.37,485.24 1050.05,485.86 1048.96,486.77C1047.77,487.651 1047.06,489.046 1047.05,490.53C1047.22,492.45 1049.05,494.19 1048.4,495.97C1048.16,496.482 1047.82,496.942 1047.4,497.32C1045.34,499.484 1043.81,502.095 1042.92,504.95C1047.92,506.49 1053.24,501.03 1057.11,498.45C1059.65,496.76 1065.82,495.1 1067.85,498.38Z" style="fill:rgb(124,92,92);fill-rule:nonzero;"/>
    </g>
    <g transform="matrix(1,0,0,1,-28.43,-18.54)">
        <path d="M1115.84,638.9L1113.54,640.8C1111.54,637.41 1103.16,630.65 1103.16,630.65L1103.52,630.3L1104.73,630.01L1115.84,638.9Z" style="fill-opacity:0.1;fill-rule:nonzero;"/>
    </g>
    <g transform="matrix(1,0,0,1,-28.43,-18.54)">
        <path d="M1118.06,635.47C1118.06,635.47 1117.24,637.53 1116.38,639.31C1115.52,641.09 1114.59,642.71 1114.55,641.4C1114.45,638.8 1103.72,630.1 1103.72,630.1L1105.17,628.68L1106.86,627.04L1118.06,635.47Z" style="fill:rgb(231,239,253);fill-rule:nonzero;"/>
    </g>
    <g transform="matrix(1,0,0,1,-28.43,-18.54)">
        <path d="M1118.43,621.77L1119.65,642.42C1116.77,637.95 1108.88,626.49 1103.81,626.86L1116.12,612.7C1116.63,612.13 1117.1,611.525 1117.53,610.89C1118,616.79 1118.43,621.77 1118.43,621.77Z" style="fill-opacity:0.1;fill-rule:nonzero;"/>
    </g>
    <g transform="matrix(1,0,0,1,-28.43,-18.54)">
        <path d="M1118.06,635.47C1118.06,635.47 1117.24,637.53 1116.38,639.31C1113.15,634.89 1108.72,629.66 1105.17,628.68L1106.86,627.04L1118.06,635.47Z" style="fill-opacity:0.1;fill-rule:nonzero;"/>
    </g>
    <g transform="matrix(1,0,0,1,-28.43,-18.54)">
        <path d="M1127.32,560.58L1130.65,563.17C1130.65,563.17 1136.21,563.27 1136.76,567.89C1137.31,572.51 1142.41,574.65 1142.41,574.65C1142.41,574.65 1146.2,578.45 1146.2,580.21C1146.2,581.97 1149.07,585.11 1149.07,585.39C1149.07,585.67 1151.85,591.31 1151.48,592.33C1151.11,593.35 1154.48,597.79 1153.42,599.46C1152.59,600.958 1151.85,602.504 1151.2,604.09C1150.55,605.676 1146.85,612.42 1144.63,613.99C1142.41,615.56 1132.23,628.81 1132.23,628.81C1132.23,628.81 1121.3,641.39 1121.3,645.28C1121.3,645.28 1110.66,627.51 1104.36,627.97L1116.67,613.81C1116.67,613.81 1118.8,611.49 1118.9,610.11C1119,608.73 1124.82,602.33 1127.6,602.05C1127.6,602.05 1128.06,598.26 1126.86,598.16C1125.66,598.06 1124.64,595.16 1124.64,595.16C1124.64,595.16 1116.49,585.53 1116.4,579.42C1116.31,573.31 1127.32,560.58 1127.32,560.58Z" style="fill:rgb(101,97,125);fill-rule:nonzero;"/>
    </g>
    <g transform="matrix(1,0,0,1,-28.43,-18.54)">
        <path d="M1132.23,569.37C1132.23,569.37 1124.45,575.11 1126.12,576.97C1127.79,578.83 1132.23,569.37 1132.23,569.37Z" style="fill-opacity:0.1;fill-rule:nonzero;"/>
    </g>
    <g transform="matrix(1,0,0,1,-28.43,-18.54)">
        <path d="M1132.6,593.07C1132.6,593.07 1147.04,588.44 1148.52,593.07L1132.6,593.07Z" style="fill-opacity:0.1;fill-rule:nonzero;"/>
    </g>
    <g transform="matrix(1,0,0,1,-28.43,-18.54)">
        <path d="M1043.18,839C1043.18,839 1035.4,844.1 1031.51,843.35C1028.82,843.011 1026.08,843.463 1023.64,844.65C1020.97,847.578 1017.59,849.777 1013.83,851.04C1007.53,853.17 998.74,852.33 993.74,850.67C991.38,849.88 991.19,848.86 992.33,847.61C997.76,848.69 1009.91,850.84 1013.18,849.28C1016.78,847.367 1020.25,845.201 1023.55,842.8C1026.85,840.399 1031.55,841.69 1032.62,841.69C1033.41,841.69 1039.56,839.15 1043.03,837.69L1043.18,839Z" style="fill-opacity:0.1;fill-rule:nonzero;"/>
    </g>
    <g transform="matrix(1,0,0,1,-28.43,-18.54)">
        <path d="M1090.27,849.45C1090.27,849.76 1090.2,849.96 1090.2,849.96C1090.2,849.96 1088.35,854.03 1078.07,855.51C1067.79,856.99 1067.8,852.09 1067.8,852.09L1067.9,850.76C1071.15,852 1078.25,853.37 1090.27,849.45Z" style="fill-opacity:0.1;fill-rule:nonzero;"/>
    </g>
    <g transform="matrix(1,0,0,1,-28.43,-18.54)">
        <path d="M1030.72,568.26C1030.72,568.26 1030.72,589.37 1028.92,591.45C1027.12,593.53 1030.72,568.26 1030.72,568.26Z" style="fill-opacity:0.1;fill-rule:nonzero;"/>
    </g>
    <g transform="matrix(1,0,0,1,-28.43,-18.54)">
        <path d="M1114.17,575.07L1116.86,582.61C1116.86,582.61 1117.92,575.21 1114.17,575.07Z" style="fill-opacity:0.1;fill-rule:nonzero;"/>
    </g>
    <g opacity="0.1">
        <g transform="matrix(1,0,0,1,-28.43,-18.54)">
            <path d="M1048.72,494.15C1049.4,492.42 1047.62,490.71 1047.39,488.85C1047.15,489.372 1047.05,489.947 1047.09,490.52C1047.21,491.93 1048.25,493.24 1048.52,494.52C1048.6,494.403 1048.66,494.279 1048.72,494.15Z" style="fill-rule:nonzero;"/>
        </g>
        <g transform="matrix(1,0,0,1,-28.43,-18.54)">
            <path d="M1079.44,514.09C1078.78,511.17 1078.98,508.09 1078.3,505.16C1077.62,502.23 1075.54,499.16 1072.7,499.16C1071.48,499.16 1070.05,499.6 1069.17,498.69C1068.63,498.14 1068.53,497.27 1068.17,496.59C1066.17,493.31 1059.97,494.98 1057.44,496.66C1053.66,499.17 1048.44,504.44 1043.6,503.24C1043.37,503.8 1043.15,504.37 1042.97,504.96C1047.97,506.5 1053.29,501.04 1057.16,498.46C1059.69,496.78 1065.86,495.12 1067.89,498.4C1068.29,499.07 1068.4,499.94 1068.89,500.5C1069.77,501.41 1071.2,500.94 1072.42,500.96C1075.26,501.01 1077.34,504.02 1078.02,506.96C1078.7,509.9 1078.49,513.08 1079.2,516.04C1079.15,515.381 1079.23,514.718 1079.44,514.09Z" style="fill-rule:nonzero;"/>
        </g>
        <g transform="matrix(1,0,0,1,-28.43,-18.54)">
            <path d="M1093.36,510.62C1092.86,512.09 1091.54,513.44 1090.11,513.14C1088.68,512.84 1087.99,511.22 1086.93,510.2C1085.59,508.93 1083.57,508.649 1081.93,509.5C1080.36,510.44 1079.42,512.161 1079.47,513.99C1079.84,512.859 1080.62,511.904 1081.65,511.31C1083.29,510.453 1085.3,510.731 1086.65,512C1087.71,513 1088.44,514.65 1089.84,514.94C1091.24,515.23 1092.58,513.89 1093.08,512.42C1093.35,511.556 1093.52,510.663 1093.59,509.76C1093.53,510.052 1093.46,510.339 1093.36,510.62Z" style="fill-rule:nonzero;"/>
        </g>
        <g transform="matrix(1,0,0,1,-28.43,-18.54)">
            <path d="M1097.72,498C1096.72,500.74 1094.79,503.11 1094.16,506C1094.04,506.58 1093.96,507.18 1093.89,507.78C1094.53,504.9 1096.4,502.54 1097.44,499.78C1097.9,498.547 1098.19,497.254 1098.29,495.94C1098.15,496.64 1097.96,497.329 1097.72,498Z" style="fill-rule:nonzero;"/>
        </g>
    </g>
    <circle cx="935.51" cy="546.26" r="0.23" style="fill:rgb(230,232,236);"/>
    <path d="M1030.3,558.03C1030.3,554.382 1027.34,551.42 1023.69,551.42L855.73,551.42C852.082,551.42 849.12,554.382 849.12,558.03L849.12,753.03C849.12,756.678 852.082,759.64 855.73,759.64L1023.69,759.64C1027.34,759.64 1030.3,756.678 1030.3,753.03L1030.3,558.03Z" style="fill:white;"/>
    <path d="M1030.3,558.03C1030.3,554.382 1027.34,551.42 1023.69,551.42L855.73,551.42C852.082,551.42 849.12,554.382 849.12,558.03L849.12,753.03C849.12,756.678 852.082,759.64 855.73,759.64L1023.69,759.64C1027.34,759.64 1030.3,756.678 1030.3,753.03L1030.3,558.03Z" style="fill:rgb(90,87,115);fill-opacity:0.1;"/>
    <path d="M1021.06,568.65C1021.06,565.002 1018.1,562.04 1014.45,562.04L864.97,562.04C861.322,562.04 858.36,565.002 858.36,568.65L858.36,742.41C858.36,746.058 861.322,749.02 864.97,749.02L1014.45,749.02C1018.1,749.02 1021.06,746.058 1021.06,742.41L1021.06,568.65Z" style="fill:white;"/>
    <path d="M993.65,605.57C993.65,602.242 990.948,599.54 987.62,599.54L888.06,599.54C884.732,599.54 882.03,602.242 882.03,605.57L882.03,632.03C882.03,635.358 884.732,638.06 888.06,638.06L987.62,638.06C990.948,638.06 993.65,635.358 993.65,632.03L993.65,605.57Z" style="fill:rgb(0,102,204);"/>
    <rect x="886.13" y="652.15" width="103.43" height="7.86" style="fill:rgb(0,102,204);"/>
    <rect x="868.55" y="668.74" width="142.32" height="7.86" style="fill:rgb(0,102,204);"/>
    <rect x="868.55" y="686.2" width="142.32" height="7.86" style="fill:rgb(0,102,204);"/>
    <rect x="868.55" y="703.66" width="142.32" height="7.86" style="fill:rgb(0,102,204);"/>
    <path d="M426.61,489.2C426.61,485.552 423.648,482.59 420,482.59L6.61,482.59C2.962,482.59 0,485.552 0,489.2L0,684.2C0,687.848 2.962,690.81 6.61,690.81L420,690.81C423.648,690.81 426.61,687.848 426.61,684.2L426.61,489.2Z" style="fill:white;"/>
    <path d="M426.61,489.2C426.61,485.552 423.648,482.59 420,482.59L6.61,482.59C2.962,482.59 0,485.552 0,489.2L0,684.2C0,687.848 2.962,690.81 6.61,690.81L420,690.81C423.648,690.81 426.61,687.848 426.61,684.2L426.61,489.2Z" style="fill:rgb(90,87,115);fill-opacity:0.1;"/>
    <path d="M404.84,499.82C404.84,496.172 401.878,493.21 398.23,493.21L28.37,493.21C24.722,493.21 21.76,496.172 21.76,499.82L21.76,673.58C21.76,677.228 24.722,680.19 28.37,680.19L398.23,680.19C401.878,680.19 404.84,677.228 404.84,673.58L404.84,499.82Z" style="fill:white;"/>
    <path d="M340.32,536.75C340.32,533.422 337.618,530.72 334.29,530.72L83.54,530.72C80.212,530.72 77.51,533.422 77.51,536.75L77.51,563.21C77.51,566.538 80.212,569.24 83.54,569.24L334.29,569.24C337.618,569.24 340.32,566.538 340.32,563.21L340.32,536.75Z" style="fill:rgb(0,102,204);"/>
    <rect x="87.15" y="583.32" width="243.53" height="7.86" style="fill:rgb(0,102,204);"/>
    <rect x="45.75" y="599.91" width="335.1" height="7.86" style="fill:rgb(0,102,204);"/>
    <rect x="45.75" y="617.37" width="335.1" height="7.86" style="fill:rgb(0,102,204);"/>
    <rect x="45.75" y="634.83" width="335.1" height="7.86" style="fill:rgb(0,102,204);"/>
    <g transform="matrix(1,0,0,1,-28.43,-18.54)">
        <path d="M132.7,859.18C133.89,854.84 134.7,851.02 134.7,851.02C134.722,848.119 135.487,845.272 136.92,842.75L136.92,841.55L137.26,832.74C136.731,831.118 136.062,829.546 135.26,828.04C133.78,825.21 135.76,815.12 135.76,815.12C135.76,815.12 142.19,801.05 141.11,791.92C140.03,782.79 154.73,752.09 154.73,752.09C154.769,749.065 154.461,746.045 153.81,743.09C153.692,742.474 153.658,741.845 153.71,741.22C153.705,741.143 153.705,741.067 153.71,740.99L153.71,741.06C154.14,735.06 159.3,724.06 159.3,724.06L159.49,702.66C159.49,702.66 156.95,689.94 162.49,673.21C164.44,667.37 165.72,662.69 166.56,659.07C166.66,658.66 166.75,658.27 166.83,657.89C156.75,655.95 149.05,654.37 149.05,654.37C149.05,654.37 155.88,629.99 160.05,625.84C164.22,621.69 167.88,608.27 167.88,608.27C167.88,608.27 170.62,590.97 167.48,585.77C164.34,580.57 164.2,571.77 164.2,571.77C164.2,571.77 156.78,565.94 155.92,563.45C155.06,560.96 153.69,555.35 153.8,552.45C153.91,549.55 154.97,546.95 154.71,545.4C154.45,543.85 157.22,538.11 156.05,535.29C155.759,534.424 155.624,533.513 155.65,532.6C155.676,531.687 155.65,532.6 155.65,532.52C155.733,530.098 156.051,527.69 156.6,525.33C158.873,523.553 161.498,522.278 164.3,521.59L164.49,520.93L164.99,519.22C165.236,519.067 165.49,518.927 165.75,518.8L165.8,518.17L165.96,515.68L165,510C163,500.14 176.12,499.19 176.12,499.19C176.964,497.723 178.322,496.618 179.93,496.09C182.59,495.27 179.81,510.8 178.54,511.75C177.54,512.46 174.54,517.25 173.09,519.6L172.85,519.99C173.061,520.191 173.254,520.408 173.43,520.64L172.8,524.01L172.7,524.52C173.525,525.627 174.183,526.85 174.65,528.15C175.117,529.45 172.16,530.67 172.53,533.61C172.638,535.897 172.298,538.183 171.53,540.34C171.67,540.19 173.42,538.44 175.08,538.94C176.74,539.44 181.36,541.03 181.36,541.03C181.36,541.03 184.83,541.78 184.48,542.54C184.13,543.3 186.71,546.78 186.71,546.78L196.44,538.25C196.55,537.98 196.65,537.72 196.75,537.45C197.198,536.192 197.533,534.897 197.75,533.58C196.724,533.3 195.721,532.942 194.75,532.51C193.775,532.135 192.904,531.531 192.21,530.75C191.31,529.59 191.21,528.05 190.86,526.64C190.22,523.88 188.72,521.38 187.67,518.73C185.909,514.284 185.444,509.429 186.33,504.73C186.544,503.29 187.092,501.92 187.93,500.73C189.55,498.68 192.36,497.93 194.45,496.33C196.54,494.73 197.94,492.2 200.34,491.03C202.52,489.97 205.11,490.21 207.5,490.69C212.141,491.637 216.566,493.437 220.55,496C221.89,496.87 223.36,497.87 224.95,497.64C226.269,497.289 227.432,496.503 228.25,495.41C228.246,495.363 228.246,495.317 228.25,495.27L228.36,495.16C229.268,497.405 229.671,499.822 229.54,502.24C229.54,502.61 229.54,502.99 229.46,503.36L229.46,503.75C229.45,503.86 229.45,503.97 229.46,504.08C229.455,504.245 229.476,504.411 229.52,504.57C229.696,505.063 229.979,505.511 230.35,505.88C230.622,506.214 230.863,506.572 231.07,506.95C231.07,506.82 231,506.69 230.96,506.56C231.526,507.458 231.825,508.499 231.82,509.56C231.843,510.333 231.559,511.085 231.03,511.65C230.547,512.098 230.017,512.494 229.45,512.83C230.485,520.251 226.769,527.573 220.17,531.12C220.05,531.38 219.93,531.65 219.82,531.92C218.332,535.098 217.612,538.582 217.72,542.09C217.72,542.34 217.72,542.59 217.8,542.84C217.88,543.09 218.03,543.11 218.13,543.25C218.23,543.39 233.63,544 237.41,540.83C241.19,537.66 246.31,549.26 246.31,549.26C246.31,549.26 251.83,550.55 252.98,549.52C254.13,548.49 260.62,549.66 260.62,549.66C263.369,547.392 266.884,546.258 270.44,546.49C272.676,544.924 275.124,543.685 277.71,542.81L277.89,542.75C279.021,542.382 280.222,542.276 281.4,542.44C282.578,542.604 289.27,536.44 291.62,533.13C293.97,529.82 305,517.69 305,517.63L305.07,517.03L305.26,515.21C305.57,515.274 305.884,515.314 306.2,515.33L306.44,514.7C307.116,512.942 307.935,511.243 308.89,509.62C309.845,507.997 308.98,507.31 308.33,506.71C307.68,506.11 308.96,497.71 308.96,497.71C308.96,497.71 316.45,481.91 322.14,494.14C322.14,494.14 333.48,502.35 323.36,511.01C323.36,511.01 319.36,512.75 318.79,514.22C318.39,515.22 316.96,517.84 316,519.61L315.57,520.4L315.68,520.5L315.48,522L315.4,522.59C317.19,523.7 318.4,524.78 318.07,525.59C317.474,526.901 317.048,528.282 316.8,529.7C316.552,531.118 302.66,546 300.64,553.19C300.64,553.19 263.58,573.33 251.64,574.41L253.29,585.25C253.486,588.176 253.532,591.11 253.43,594.04C253.18,596.34 254.37,606.85 254.37,606.85C254.37,606.85 255.84,622.31 257.51,624.53C259.18,626.75 258.51,635.97 258.51,635.97C258.761,640.402 259.39,644.805 260.39,649.13C261.91,655.04 260.39,662.22 260.39,662.22C260.39,662.22 265.9,676.29 251.8,666.35C251.8,666.35 244.72,665.64 236.56,665.05L236.56,665.86C236.56,666.92 236.51,668.06 236.48,669.26C236.28,677.19 235.91,688.11 235.23,696.36C234.03,710.95 228.47,739.69 228.47,739.69L227.91,754.21C228.148,755.586 228.235,756.985 228.17,758.38C228.076,763.503 226.525,768.495 223.7,772.77L222.21,782.42C222.21,782.42 219.36,788.7 219.16,792.51C219.155,792.822 219.181,793.134 219.24,793.44C219.313,793.933 219.337,794.432 219.31,794.93C219.31,799.33 216.23,809.75 216.23,809.75C216.23,809.75 215.66,820.36 214.05,820.91C212.67,821.39 215.63,827.1 216.51,828.74C216.543,828.642 216.566,828.542 216.58,828.44L216.77,828.76C217.064,829.632 217.196,830.55 217.16,831.47C217.281,832.954 216.536,834.381 215.25,835.13C212.16,836.86 210.48,838.33 213.02,839.05C213.958,839.233 214.886,839.463 215.8,839.74L215.95,839.39C216.686,839.708 217.105,840.503 216.95,841.29C216.881,842.547 216.506,843.769 215.86,844.85C214.628,847.579 213.085,850.156 211.26,852.53L210.04,852.35C210.205,852.819 210.427,853.265 210.7,853.68C211.138,854.368 211.734,854.941 212.44,855.35C213.089,855.769 213.817,856.048 214.58,856.17C216.322,856.298 217.929,857.161 219,858.54C220.5,860.65 221.39,863.48 218.16,865.81L206.65,869.29C206.65,869.29 187.01,871.08 188.21,866.74C189.41,862.4 190.21,858.58 190.21,858.58C190.231,855.896 190.875,853.253 192.09,850.86C192.312,850.471 192.559,850.097 192.83,849.74L192.14,849.64C192.14,849.64 191,839.89 189.12,838C188.7,837.55 188.61,837.22 188.72,837C188.55,836.47 189.05,836.18 189.72,836C189.72,836.12 189.81,836.25 189.85,836.38C190.477,836.274 191.114,836.231 191.75,836.25C192.386,836.269 192.58,831.2 190.59,829.25C190.265,828.815 190.141,828.262 190.25,827.73C190.254,827.033 190.352,826.341 190.54,825.67C190.56,825.712 190.583,825.752 190.61,825.79C191.83,821.23 195.61,814.05 195.61,814.05C195.61,814.05 195.94,809.44 194.74,807.54C193.54,805.64 195.87,782.48 195.87,782.48C195.87,782.48 195.82,771.24 197.45,766.07C199.08,760.9 196.14,754.62 196.14,754.62C196.14,754.62 196.14,754.5 196.19,754.29C196.193,754.26 196.193,754.23 196.19,754.2C196.187,754.17 196.29,753.51 196.45,752.44L196.45,752.55C196.89,749.55 197.7,744.24 198.24,741.76C199.01,738.25 198.87,721.3 198.87,721.3L196.28,714L190.71,726.26L184.71,742.66C184.71,742.66 181.9,746.06 181.71,749.66L181.71,750.19C181.735,750.56 181.735,750.93 181.71,751.3C181.718,753.399 181.06,755.448 179.83,757.15C178.6,758.852 178.1,764.94 175.83,766.85C173.56,768.76 173.38,772.61 173.38,772.61C173.38,772.61 170.24,783.89 168.89,785.84C167.76,787.48 167.52,792.11 167.48,793.53L167.48,793.94C167.48,793.94 166.95,798 166.83,801.42L166.83,802.63C166.825,802.604 166.825,802.576 166.83,802.55C166.792,803.479 166.866,804.409 167.05,805.32C167.234,806.231 167.05,805.43 167.05,805.49L167.05,804.91C167.525,807.252 167.71,809.643 167.6,812.03C167.51,816.12 166.7,820.94 164.11,823.69C159.63,828.45 156.96,827.69 156.96,827.69C156.96,827.69 158.79,833.92 161.28,835.25C161.376,835.301 161.466,835.361 161.55,835.43C161.55,835.31 161.55,835.19 161.62,835.08C162.155,835.727 162.394,836.569 162.28,837.4C162.36,840.11 160.48,844.4 158.78,846.4C158.161,846.972 157.408,847.377 156.59,847.58C156.714,847.675 156.845,847.762 156.98,847.84C157.257,848.004 157.545,848.151 157.84,848.28C158.243,848.477 158.675,848.608 159.12,848.67C160.865,848.787 162.477,849.652 163.54,851.04C165.04,853.14 165.93,855.97 162.7,858.3L151.19,861.78C151.19,861.78 131.49,863.52 132.7,859.18Z" style="fill:url(#_Linear3);fill-rule:nonzero;"/>
    </g>
    <g transform="matrix(1,0,0,1,-28.43,-18.54)">
        <path d="M207.05,869.31L218.2,865.82C221.33,863.48 220.47,860.65 219.02,858.54C218.008,857.173 216.447,856.313 214.75,856.19C214.005,856.067 213.295,855.784 212.67,855.36C211.989,854.948 211.417,854.378 211,853.7C210.249,852.394 209.871,850.906 209.91,849.4C209.949,847.894 197.97,845.4 194.53,848.81C193.922,849.429 193.407,850.133 193,850.9C191.82,853.304 191.191,855.942 191.16,858.62C191.129,861.298 190.4,862.43 189.23,866.78C188.06,871.13 207.05,869.31 207.05,869.31Z" style="fill:rgb(45,41,61);fill-rule:nonzero;"/>
    </g>
    <g transform="matrix(1,0,0,1,-28.43,-18.54)">
        <path d="M153.44,861.82L164.59,858.33C167.72,855.99 166.86,853.16 165.41,851.06C164.398,849.686 162.832,848.823 161.13,848.7C160.698,848.643 160.279,848.514 159.89,848.32C159.605,848.187 159.327,848.036 159.06,847.87C156.06,846.06 156.29,841.87 156.29,841.87C156.29,841.87 144.35,837.87 140.91,841.28C140.449,841.74 140.039,842.25 139.69,842.8C138.292,845.341 137.55,848.19 137.53,851.09C137.51,853.99 136.76,854.91 135.6,859.25C134.44,863.59 153.44,861.82 153.44,861.82Z" style="fill:rgb(45,41,61);fill-rule:nonzero;"/>
    </g>
    <g transform="matrix(1,0,0,1,-28.43,-18.54)">
        <path d="M194.52,848.81C193.915,849.43 193.403,850.134 193,850.9L211,853.69C210.249,852.384 209.871,850.896 209.91,849.39C209.949,847.884 198,845.4 194.52,848.81Z" style="fill-opacity:0.1;fill-rule:nonzero;"/>
    </g>
    <g transform="matrix(1,0,0,1,-28.43,-18.54)">
        <path d="M139.69,842.84L139.56,846.23C142.2,850.98 155.85,850.49 159.89,848.32C159.605,848.187 159.327,848.036 159.06,847.87C156.06,846.06 156.29,841.87 156.29,841.87C156.29,841.87 144.35,837.87 140.91,841.28C140.446,841.753 140.037,842.276 139.69,842.84Z" style="fill-opacity:0.1;fill-rule:nonzero;"/>
    </g>
    <g transform="matrix(1,0,0,1,-28.43,-18.54)">
        <path d="M138.1,828.16C138.895,829.669 139.563,831.241 140.1,832.86L139.61,845C142.49,850.2 158.55,849.12 160.81,846.44C163.07,843.76 165.65,836.61 163.24,835.29C160.83,833.97 159.06,827.73 159.06,827.73C159.06,827.73 161.65,828.45 166,823.73C170.35,819.01 169.53,808 168.85,805.36C168.17,802.72 169.3,793.98 169.3,793.98C169.3,793.98 169.38,787.82 170.69,785.87C172,783.92 175.05,772.64 175.05,772.64C175.05,772.64 175.19,768.79 177.42,766.88C179.65,764.97 181.34,757.17 181.34,757.17C182.677,755.261 183.31,752.944 183.13,750.62C182.82,746.76 186.05,742.72 186.05,742.72L191.92,726.32L197.32,714.05L199.81,721.38C199.81,721.38 199.93,738.33 199.18,741.84C198.43,745.35 197.18,754.7 197.18,754.7C197.18,754.7 200.02,760.97 198.44,766.15C196.86,771.33 196.88,782.56 196.88,782.56C196.88,782.56 194.6,805.73 195.76,807.62C196.92,809.51 196.59,814.12 196.59,814.12C196.59,814.12 189.77,827.41 191.69,829.34C193.61,831.27 192.81,836.34 192.81,836.34C192.81,836.34 188.51,836.17 190.28,838.09C192.05,840.01 193,849.68 193,849.68L211.51,852.55C213.284,850.164 214.78,847.584 215.97,844.86C218.65,839.27 215.71,839.77 213.26,839.06C210.81,838.35 212.43,836.87 215.42,835.14C218.41,833.41 216.88,829.19 216.88,829.19C216.88,829.19 212.71,821.48 214.28,820.93C215.85,820.38 216.4,809.77 216.4,809.77C216.4,809.77 219.96,797.27 219.32,793.86C218.68,790.45 222.23,782.42 222.23,782.42L223.67,772.78C227.175,767.414 228.628,760.96 227.76,754.61L228.34,739.69C228.34,739.69 233.78,711 235,696.36C235.76,687.02 236.14,674.25 236.31,666.28C236.41,661.8 236.45,658.84 236.45,658.84L170.28,649.36C170.05,652.675 169.518,655.962 168.69,659.18C167.88,662.81 166.63,667.49 164.69,673.33C159.27,690.06 161.69,702.78 161.69,702.78L161.48,724.18C161.48,724.18 155.08,738.26 156.13,743.23C156.757,746.188 157.052,749.207 157.01,752.23C156.968,755.253 142.77,782.91 143.81,792C144.85,801.09 138.6,815.21 138.6,815.21C138.6,815.21 136.67,825.33 138.1,828.16Z" style="fill:rgb(87,89,136);fill-rule:nonzero;"/>
    </g>
    <g transform="matrix(1,0,0,1,-28.43,-18.54)">
        <path d="M179.17,749.5L159.05,746C159.05,746 170.06,758.16 179.17,749.5Z" style="fill-opacity:0.05;fill-rule:nonzero;"/>
    </g>
    <g transform="matrix(1,0,0,1,-28.43,-18.54)">
        <path d="M162.73,726.39C162.73,726.39 161.73,733.51 166.04,736.39C166,736.37 158.25,734.84 162.73,726.39Z" style="fill-opacity:0.1;fill-rule:nonzero;"/>
    </g>
    <g transform="matrix(1,0,0,1,-28.43,-18.54)">
        <path d="M164.85,703.67C164.85,703.67 181.22,718.24 187.41,717.33C193.6,716.42 164.85,703.67 164.85,703.67Z" style="fill-opacity:0.1;fill-rule:nonzero;"/>
    </g>
    <g transform="matrix(1,0,0,1,-28.43,-18.54)">
        <path d="M204,757C204,757 216.73,760.42 216.92,765.58C217.11,770.74 204,757 204,757Z" style="fill-opacity:0.1;fill-rule:nonzero;"/>
    </g>
    <g transform="matrix(1,0,0,1,-28.43,-18.54)">
        <path d="M198.69,821C198.69,821 216.69,825.08 211.47,827.19C206.25,829.3 197.7,830.82 197.7,830.82C197.7,830.82 191.84,830.92 198.69,821Z" style="fill-opacity:0.05;fill-rule:nonzero;"/>
    </g>
    <g opacity="0.05">
        <g transform="matrix(1,0,0,1,-28.43,-18.54)">
            <path d="M215,831C215.943,830.457 216.591,829.515 216.76,828.44L216.93,828.77C216.93,828.77 218.47,832.98 215.47,834.77C215.13,834.96 214.81,835.16 214.47,835.35C213.94,835.23 213.36,835.13 212.81,834.97C210.37,834.22 212,832.74 215,831Z" style="fill-rule:nonzero;"/>
        </g>
        <g transform="matrix(1,0,0,1,-28.43,-18.54)">
            <path d="M191.66,828.88C191.18,828.4 191.25,827.22 191.66,825.71C192.349,827.104 192.646,828.66 192.52,830.21C192.339,829.707 192.045,829.252 191.66,828.88Z" style="fill-rule:nonzero;"/>
        </g>
        <g transform="matrix(1,0,0,1,-28.43,-18.54)">
            <path d="M197.4,752.48C197.997,754.328 198.333,756.249 198.4,758.19C198.106,756.84 197.684,755.52 197.14,754.25C196.596,752.98 197.25,753.56 197.4,752.48Z" style="fill-rule:nonzero;"/>
        </g>
        <g transform="matrix(1,0,0,1,-28.43,-18.54)">
            <path d="M156.17,742.81C156.068,742.253 156.031,741.686 156.06,741.12C156.25,742.28 156.37,743.35 156.44,744.29C156.36,743.81 156.27,743.32 156.17,742.81Z" style="fill-rule:nonzero;"/>
        </g>
        <g transform="matrix(1,0,0,1,-28.43,-18.54)">
            <path d="M195.73,807.17C195.429,806.053 195.321,804.893 195.41,803.74C195.925,805.127 196.17,806.601 196.13,808.08C196.033,807.762 195.899,807.457 195.73,807.17Z" style="fill-rule:nonzero;"/>
        </g>
        <g transform="matrix(1,0,0,1,-28.43,-18.54)">
            <path d="M190.81,836C191.648,839.125 192.233,842.312 192.56,845.53L211.07,848.4C212.85,846.017 214.35,843.436 215.54,840.71C215.78,840.22 215.96,839.78 216.12,839.38C217.21,839.93 217.61,841.11 216.01,844.43C214.819,847.151 213.323,849.727 211.55,852.11L193,849.26C193,849.26 192,839.52 190.21,837.61C189.38,836.66 190,836.23 190.81,836Z" style="fill-rule:nonzero;"/>
        </g>
        <g transform="matrix(1,0,0,1,-28.43,-18.54)">
            <path d="M216.44,809.35C216.44,809.35 215.88,819.96 214.32,820.51C213.61,818.72 213.15,817.04 213.85,816.79C215.41,816.23 215.98,805.63 215.98,805.63C215.98,805.63 219.54,793.14 218.9,789.72C218.26,786.3 221.8,778.29 221.8,778.29L223.25,768.64C226.755,763.274 228.208,756.82 227.34,750.47L227.91,735.55C227.91,735.55 233.33,706.81 234.51,692.22C235.26,682.88 235.64,670.11 235.82,662.14C235.82,660.7 235.88,659.42 235.9,658.34L236.43,658.42C236.43,658.42 236.43,661.42 236.29,665.85C236.12,673.85 235.74,686.6 234.98,695.94C233.8,710.52 228.39,739.27 228.39,739.27L227.81,754.18C228.678,760.529 227.229,766.982 223.73,772.35L222.27,782C222.27,782 218.72,790 219.36,793.44C220,796.88 216.44,809.35 216.44,809.35Z" style="fill-rule:nonzero;"/>
        </g>
        <g transform="matrix(1,0,0,1,-28.43,-18.54)">
            <path d="M160.35,842.31C161.941,840.181 163.041,837.725 163.57,835.12C165.4,836.9 162.97,843.47 160.82,846.02C158.67,848.57 142.5,849.78 139.62,844.59L139.73,841.66C143.73,845.94 158.21,844.85 160.35,842.31Z" style="fill-rule:nonzero;"/>
        </g>
        <g transform="matrix(1,0,0,1,-28.43,-18.54)">
            <path d="M137.64,824C138.435,825.509 139.103,827.081 139.64,828.7L139.55,830.85C139.131,829.78 138.657,828.732 138.13,827.71C137.689,826.484 137.512,825.179 137.61,823.88L137.64,824Z" style="fill-rule:nonzero;"/>
        </g>
        <g transform="matrix(1,0,0,1,-28.43,-18.54)">
            <path d="M160,827.32C159.459,826.115 158.998,824.876 158.62,823.61C158.242,822.344 161.21,824.32 165.55,819.56C168.71,816.09 169.14,809.34 168.88,804.9C169.56,807.55 170.37,818.51 166.03,823.27C163.17,826.39 161.08,827.16 160,827.32Z" style="fill-rule:nonzero;"/>
        </g>
        <g transform="matrix(1,0,0,1,-28.43,-18.54)">
            <path d="M169.31,793.52C168.921,796.542 168.701,799.583 168.65,802.63C168.59,802.145 168.504,801.665 168.39,801.19C167.72,798.54 168.83,789.81 168.83,789.81C168.83,789.81 168.92,783.65 170.22,781.7C171.52,779.75 174.58,768.47 174.58,768.47C174.58,768.47 174.73,764.63 176.96,762.71C179.19,760.79 180.88,753 180.88,753C182.213,751.088 182.845,748.774 182.67,746.45C182.36,742.59 185.59,738.55 185.59,738.55L191.46,722.15L196.86,709.88L199.35,717.22L199.35,719.56L197.35,713.56L191.95,725.82L186.08,742.23C186.08,742.23 182.85,746.23 183.16,750.13C183.34,752.454 182.707,754.771 181.37,756.68C180.033,758.589 179.68,764.47 177.45,766.38C175.22,768.29 175.08,772.14 175.08,772.14C175.08,772.14 172.02,783.42 170.72,785.38C169.42,787.34 169.31,793.52 169.31,793.52Z" style="fill-rule:nonzero;"/>
        </g>
    </g>
    <g transform="matrix(1,0,0,1,-28.43,-18.54)">
        <path d="M167.28,510.1L168.22,515.76L168.06,518.26L167.94,520.1L174.33,521.01L175.1,519.71C176.52,517.36 179.46,512.57 180.39,511.85C181.61,510.9 184.33,495.37 181.75,496.19C180.177,496.732 178.859,497.836 178.05,499.29C177.241,500.744 165.39,500.25 167.28,510.1Z" style="fill:rgb(255,205,211);fill-rule:nonzero;"/>
    </g>
    <g transform="matrix(1,0,0,1,-28.43,-18.54)">
        <path d="M167.94,520.1L174.33,521.01L175.1,519.71C173.407,517.643 170.471,517.039 168.1,518.27L167.94,520.1Z" style="fill-opacity:0.1;fill-rule:nonzero;"/>
    </g>
    <g transform="matrix(1,0,0,1,-28.43,-18.54)">
        <path d="M166.2,523.08L174.59,525.37L174.81,524.11L175.42,520.74C174.331,519.176 172.541,518.241 170.635,518.241C169.43,518.241 168.254,518.614 167.27,519.31L166.79,521.02L166.2,523.08Z" style="fill:rgb(220,230,242);fill-rule:nonzero;"/>
    </g>
    <g transform="matrix(1,0,0,1,-28.43,-18.54)">
        <path d="M303.74,516L312.58,521.2C312.58,521.2 312.95,520.49 313.47,519.52C314.4,517.75 315.78,515.09 316.17,514.13C316.76,512.66 320.6,510.91 320.6,510.91C330.41,502.24 319.44,494.05 319.44,494.05C313.94,481.82 306.68,497.63 306.68,497.63C306.68,497.63 305.43,506.06 306.06,506.63C306.69,507.2 306.6,509.54 306.6,509.54C305.668,511.165 304.872,512.864 304.22,514.62C303.91,515.45 303.74,516 303.74,516Z" style="fill:rgb(255,205,211);fill-rule:nonzero;"/>
    </g>
    <g transform="matrix(1,0,0,1,-28.43,-18.54)">
        <path d="M303.74,516L312.58,521.2C312.58,521.2 312.95,520.49 313.47,519.52C312.23,518.41 307.85,514.52 306.36,514.68C305.648,514.751 304.932,514.751 304.22,514.68C303.91,515.45 303.74,516 303.74,516Z" style="fill-opacity:0.1;fill-rule:nonzero;"/>
    </g>
    <g transform="matrix(1,0,0,1,-28.43,-18.54)">
        <path d="M302.71,518.67L312.71,524.06L312.99,521.88L313.19,520.38C313.19,520.38 307.51,515.12 305.77,515.24C304.883,515.329 303.987,515.292 303.11,515.13L302.93,516.95L302.71,518.67Z" style="fill:rgb(220,230,242);fill-rule:nonzero;"/>
    </g>
    <g transform="matrix(1,0,0,1,-28.43,-18.54)">
        <path d="M190.45,548.34C190.45,548.34 234.52,555.04 226.35,552.04C220.66,549.94 218.51,546.19 218.19,542.11C218.08,538.609 218.764,535.129 220.19,531.93C221.348,529.18 222.778,526.554 224.46,524.09C226.142,521.626 191.34,504.18 197.46,521.36C198.406,523.959 198.949,526.687 199.07,529.45C199.166,532.192 198.766,534.93 197.89,537.53C196.453,541.749 193.878,545.491 190.45,548.34Z" style="fill:rgb(255,205,211);fill-rule:nonzero;"/>
    </g>
    <g transform="matrix(1,0,0,1,-28.43,-18.54)">
        <path d="M197.5,521.36C198.446,523.959 198.989,526.687 199.11,529.45C202.19,532.24 205.69,532.2 210.18,532.37C213.63,532.51 217.41,533.49 220.18,531.93C221.338,529.18 222.768,526.554 224.45,524.09C226.132,521.626 191.38,504.18 197.5,521.36Z" style="fill-opacity:0.1;fill-rule:nonzero;"/>
    </g>
    <circle cx="183.01" cy="496.73" r="18.31" style="fill:rgb(255,205,211);"/>
    <g transform="matrix(1,0,0,1,-28.43,-18.54)">
        <path d="M190.45,548.34C190.45,548.34 234.52,555.04 226.35,552.04C220.66,549.94 218.51,546.19 218.19,542.11C216.08,539.64 211.72,537.75 208.91,536.72C206.352,535.757 203.558,535.603 200.91,536.28C199.854,536.546 198.843,536.967 197.91,537.53C196.468,541.752 193.885,545.494 190.45,548.34Z" style="fill-opacity:0.1;fill-rule:nonzero;"/>
    </g>
    <g transform="matrix(1,0,0,1,-28.43,-18.54)">
        <path d="M166.2,523.08L174.59,525.37L174.81,524.11C173.063,521.506 169.854,520.266 166.81,521.02L166.2,523.08Z" style="fill-opacity:0.1;fill-rule:nonzero;"/>
    </g>
    <g transform="matrix(1,0,0,1,-28.43,-18.54)">
        <path d="M302.71,518.67L312.71,524.06L312.99,521.88C309.749,520.006 306.373,518.375 302.89,517L302.71,518.67Z" style="fill-opacity:0.1;fill-rule:nonzero;"/>
    </g>
    <g transform="matrix(1,0,0,1,-28.43,-18.54)">
        <path d="M168.65,659.18C185.65,662.55 209.95,667.01 213.86,665.98C217.11,665.13 227.36,665.63 236.27,666.28C236.37,661.8 236.41,658.84 236.41,658.84L170.24,649.36C170.01,652.675 169.478,655.962 168.65,659.18Z" style="fill-opacity:0.1;fill-rule:nonzero;"/>
    </g>
    <g transform="matrix(1,0,0,1,-28.43,-18.54)">
        <path d="M151.72,654.5C151.72,654.5 207.78,666.36 213.91,664.75C220.04,663.14 251.06,666.33 251.06,666.33C264.69,676.25 259.38,662.19 259.38,662.19C259.38,662.19 260.89,655.01 259.38,649.1C258.413,644.771 257.807,640.369 257.57,635.94C257.333,631.511 258.24,626.72 256.63,624.51C255.02,622.3 253.63,606.83 253.63,606.83C253.63,606.83 252.5,596.32 252.74,594.02C252.98,591.72 252.62,585.23 252.62,585.23L251.03,574.39C262.62,573.3 298.51,553.12 298.51,553.12C300.51,545.96 314.2,529.54 314.2,529.54C314.446,528.125 314.862,526.745 315.44,525.43C316.44,523.01 302.81,517.56 302.81,517.56C302.81,517.56 292,529.77 289.76,533.07C287.52,536.37 279.85,542.39 279.85,542.39C278.708,542.231 277.544,542.337 276.45,542.7L276.27,542.7C273.771,543.586 271.413,544.829 269.27,546.39C265.807,546.174 262.392,547.311 259.75,549.56C257.108,551.809 253.48,548.4 252.37,549.43C251.26,550.46 245.91,549.18 245.91,549.18C245.91,549.18 240.91,537.6 237.3,540.77C233.69,543.94 218.63,543.21 218.63,543.21C216.74,540.47 211.94,538.38 208.94,537.28C206.383,536.311 203.588,536.158 200.94,536.84C199.791,537.123 198.699,537.6 197.71,538.25L188.27,546.81C188.27,546.81 185.78,543.33 186.12,542.57C186.46,541.81 183.12,541.07 183.12,541.07C183.12,541.07 178.71,539.51 177.04,538.99C175.37,538.47 173.74,540.23 173.6,540.39C174.363,538.232 174.703,535.947 174.6,533.66C174.25,530.72 176.65,528.19 176.65,528.19C171.78,514.76 159.21,525.37 159.21,525.37C159.21,525.37 157.54,532.54 158.67,535.37C159.8,538.2 157.11,543.93 157.35,545.48C157.59,547.03 156.58,549.61 156.47,552.53C156.36,555.45 157.68,561.05 158.47,563.53C159.26,566.01 166.47,571.85 166.47,571.85C166.47,571.85 166.6,580.63 169.63,585.85C172.66,591.07 170,608.35 170,608.35C170,608.35 166.4,621.76 162.39,625.92C158.38,630.08 151.72,654.5 151.72,654.5Z" style="fill:rgb(101,102,145);fill-rule:nonzero;"/>
    </g>
    <g transform="matrix(1,0,0,1,-28.43,-18.54)">
        <path d="M237.88,556.48C237.88,556.48 239.77,551.48 241.32,551.07C242.874,550.565 244.391,549.954 245.86,549.24L244.94,547.31C244.94,547.31 239.1,548.68 238.12,550.31C237.14,551.94 237.88,556.48 237.88,556.48Z" style="fill-opacity:0.1;fill-rule:nonzero;"/>
    </g>
    <g transform="matrix(1,0,0,1,-28.43,-18.54)">
        <path d="M269.22,546.45C269.47,548 283.1,549.91 283.1,549.91L276.45,542.7L276.28,542.7C273.756,543.599 271.378,544.862 269.22,546.45Z" style="fill-opacity:0.1;fill-rule:nonzero;"/>
    </g>
    <circle cx="281.2" cy="508.32" r="1.23" style="fill:rgb(87,89,136);"/>
    <circle cx="279.53" cy="510.72" r="1.23" style="fill:rgb(87,89,136);"/>
    <circle cx="277.9" cy="512.93" r="1.23" style="fill:rgb(87,89,136);"/>
    <circle cx="276.2" cy="515.33" r="1.23" style="fill:rgb(87,89,136);"/>
    <circle cx="131.25" cy="509.62" r="1" style="fill:rgb(87,89,136);"/>
    <circle cx="131.01" cy="511.88" r="1" style="fill:rgb(87,89,136);"/>
    <circle cx="130.78" cy="514.14" r="1" style="fill:rgb(87,89,136);"/>
    <g transform="matrix(1,0,0,1,-28.43,-18.54)">
        <path d="M236.2,598.15C236.35,597.98 200,640.42 174.06,614.09C174.06,614.09 216.36,621.49 236.2,598.15Z" style="fill-opacity:0.1;fill-rule:nonzero;"/>
    </g>
    <g transform="matrix(1,0,0,1,-28.43,-18.54)">
        <path d="M255.24,621.68C255.24,621.68 234.47,621.45 232.07,627.33L231.83,633.54C233.004,634.248 234.464,634.305 235.69,633.69C237.83,632.64 250.61,626.75 254.92,629.99L255.24,621.68Z" style="fill-opacity:0.1;fill-rule:nonzero;"/>
    </g>
    <g transform="matrix(1,0,0,1,-28.43,-18.54)">
        <path d="M254.85,621.66C254.85,621.66 235,621.44 232.7,627.05L232.47,632.97C233.592,633.651 234.99,633.704 236.16,633.11C238.16,632.11 250.43,626.5 254.55,629.58L254.85,621.66Z" style="fill:rgb(101,102,145);fill-rule:nonzero;"/>
    </g>
    <g transform="matrix(1,0,0,1,-28.43,-18.54)">
        <path d="M245.65,576.2C243.338,581.021 240.462,585.549 237.08,589.69C233.385,594.269 228.966,598.214 224,601.37C219.034,604.526 245.19,579 245.65,576.2Z" style="fill-opacity:0.1;fill-rule:nonzero;"/>
    </g>
    <g transform="matrix(1,0,0,1,-28.43,-18.54)">
        <path d="M253.36,552.36C253.36,552.36 249.36,567.17 240.21,571.9L253.36,552.36Z" style="fill-opacity:0.1;fill-rule:nonzero;"/>
    </g>
    <g transform="matrix(1,0,0,1,-28.43,-18.54)">
        <path d="M258.61,554.07C258.71,553.8 261.23,566.01 246.4,572.14C246.4,572.14 252.67,570.27 258.61,554.07Z" style="fill-opacity:0.1;fill-rule:nonzero;"/>
    </g>
    <g transform="matrix(1,0,0,1,-28.43,-18.54)">
        <path d="M168.42,540.57C168.65,540.57 161.05,545.02 158.95,547.13C159,547.13 164.05,540.09 168.42,540.57Z" style="fill-opacity:0.1;fill-rule:nonzero;"/>
    </g>
    <g transform="matrix(1,0,0,1,-28.43,-18.54)">
        <path d="M215.75,532.05C215.562,533.02 215.016,533.885 214.22,534.47C213.673,534.71 213.076,534.816 212.48,534.78C206.89,534.92 201.07,534.94 196,532.59C195.051,532.213 194.21,531.609 193.55,530.83C192.67,529.67 192.55,528.14 192.24,526.72C191.62,523.96 190.17,521.47 189.16,518.82C187.459,514.359 187.02,509.514 187.89,504.82C188.09,503.385 188.621,502.015 189.44,500.82C191,498.77 193.73,498.02 195.75,496.41C197.77,494.8 199.13,492.28 201.47,491.1C203.57,490.04 206.08,490.27 208.39,490.76C212.924,491.71 217.235,493.52 221.09,496.09C222.38,496.96 223.8,497.95 225.34,497.72C226.66,497.354 227.812,496.541 228.6,495.42C229.59,497.963 229.954,500.707 229.66,503.42C229.59,503.817 229.59,504.223 229.66,504.62C229.831,505.108 230.104,505.555 230.46,505.93C231.77,507.58 232.54,510.14 231.12,511.7C230.5,512.38 229.57,512.7 228.97,513.43C227.89,514.67 228.16,516.53 228.12,518.18C228.156,518.753 227.994,519.322 227.66,519.79C227.03,520.324 226.166,520.494 225.38,520.24C224.609,519.977 223.793,519.868 222.98,519.92C222.113,520.169 221.354,520.705 220.83,521.44C218.12,524.58 217,528.15 215.75,532.05Z" style="fill:rgb(45,41,61);fill-rule:nonzero;"/>
    </g>
    <g opacity="0.1">
        <g transform="matrix(1,0,0,1,-28.43,-18.54)">
            <path d="M193,529.39C193.656,530.175 194.499,530.783 195.45,531.16C200.52,533.51 206.34,533.48 211.93,533.35C212.527,533.388 213.125,533.278 213.67,533.03C214.467,532.45 215.015,531.588 215.2,530.62C216.43,526.71 217.57,523.15 220.28,519.97C220.803,519.232 221.561,518.692 222.43,518.44C223.243,518.393 224.058,518.502 224.83,518.76C225.615,519.02 226.482,518.849 227.11,518.31C227.445,517.846 227.607,517.28 227.57,516.71C227.57,515.06 227.34,513.2 228.42,511.95C229.02,511.26 229.95,510.95 230.57,510.23C231.389,509.193 231.577,507.786 231.06,506.57C231.98,508.16 232.33,510.17 231.13,511.48C230.51,512.16 229.59,512.48 228.98,513.21C227.9,514.45 228.18,516.31 228.14,517.96C228.178,518.535 228.011,519.105 227.67,519.57C227.041,520.105 226.176,520.276 225.39,520.02C224.622,519.757 223.81,519.648 223,519.7C222.127,519.95 221.365,520.49 220.84,521.23C218.14,524.4 217,527.97 215.76,531.87C215.693,533.406 214.411,534.634 212.873,534.634C212.748,534.634 212.624,534.626 212.5,534.61C206.91,534.74 201.09,534.76 196.01,532.41C195.062,532.032 194.221,531.428 193.56,530.65C193.23,530.193 192.983,529.682 192.83,529.14C192.88,529.228 192.937,529.311 193,529.39Z" style="fill-rule:nonzero;"/>
        </g>
        <g transform="matrix(1,0,0,1,-28.43,-18.54)">
            <path d="M229.62,504.1C229.372,503.811 229.194,503.469 229.1,503.1C229.03,502.703 229.03,502.297 229.1,501.9C229.342,499.662 229.138,497.399 228.5,495.24L228.6,495.13C229.599,497.671 229.966,500.416 229.67,503.13C229.624,503.451 229.608,503.776 229.62,504.1Z" style="fill-rule:nonzero;"/>
        </g>
    </g>
    <g transform="matrix(1,0,0,1,-28.43,-18.54)">
        <path d="M218.58,543.27C218.58,543.27 195.58,545.42 193.68,541.9" style="fill-opacity:0.1;fill-rule:nonzero;"/>
    </g>
    <g transform="matrix(1,0,0,1,-28.43,-18.54)">
        <path d="M174.51,532.1C174.51,532.1 161.8,531.63 158.83,536.28" style="fill-opacity:0.1;fill-rule:nonzero;"/>
    </g>
    <defs>
        <linearGradient id="_Linear1" x1="0" y1="0" x2="1" y2="0" gradientUnits="userSpaceOnUse" gradientTransform="matrix(3.29632e-14,-538.33,538.33,3.29632e-14,551.46,688.44)"><stop offset="0" style="stop-color:rgb(128,128,128);stop-opacity:0.25"/><stop offset="0.54" style="stop-color:rgb(128,128,128);stop-opacity:0.12"/><stop offset="1" style="stop-color:rgb(128,128,128);stop-opacity:0.1"/></linearGradient>
        <linearGradient id="_Linear2" x1="0" y1="0" x2="1" y2="0" gradientUnits="userSpaceOnUse" gradientTransform="matrix(9.20098e-12,-150263,150263,9.20098e-12,204878,332492)"><stop offset="0" style="stop-color:rgb(128,128,128);stop-opacity:0.25"/><stop offset="0.54" style="stop-color:rgb(128,128,128);stop-opacity:0.12"/><stop offset="1" style="stop-color:rgb(128,128,128);stop-opacity:0.1"/></linearGradient>
        <linearGradient id="_Linear3" x1="0" y1="0" x2="1" y2="0" gradientUnits="userSpaceOnUse" gradientTransform="matrix(2998.11,-146186,146186,2998.11,43182.9,331243)"><stop offset="0" style="stop-color:rgb(128,128,128);stop-opacity:0.25"/><stop offset="0.54" style="stop-color:rgb(128,128,128);stop-opacity:0.12"/><stop offset="1" style="stop-color:rgb(128,128,128);stop-opacity:0.1"/></linearGradient>
    </defs>
</svg>
