<svg id="Layer_1" data-name="Layer 1" xmlns="http://www.w3.org/2000/svg" viewBox="0 0 20 17"><path d="M19,9.21a4.43,4.43,0,0,1-.54,1.09,8.29,8.29,0,0,0,.27-2.53A8.17,8.17,0,0,0,4,3.56c-.08.12-.17.24-.25.37a8.09,8.09,0,0,0-1,2.5A7.57,7.57,0,0,1,3,4.06a5.48,5.48,0,0,0-1.86.55h0a2,2,0,0,0-.89.88h0a.47.47,0,0,0-.06.15v.47a.33.33,0,0,0,0,.14.09.09,0,0,0,0,.07v.36a.09.09,0,0,0,0,.07l.06.16h0a1.42,1.42,0,0,0,.08.18h0c0,.07.07.13.1.19h0a1.27,1.27,0,0,0,.13.19h0l.15.2h0c.06.07.12.15.19.22h0l.21.22h0l.24.23h0l.26.24h0l.29.24h0l.3.24a22,22,0,0,0,6.52,3.17c.48.16,1,.29,1.43.42-3-.41-5.44-.91-7.72-2.39a8.16,8.16,0,0,0,14.4,2.83c1.55-.2,2.61-.74,2.88-1.6A2.7,2.7,0,0,0,19,9.21ZM9.68,9a1.29,1.29,0,0,0,.27.45,1,1,0,0,0,.4.29,1.43,1.43,0,0,0,.5.09h.37l.3-.1V9H11a.16.16,0,0,1-.06-.13V8.31h1.55v1.83a2.49,2.49,0,0,1-.73.36l-.44.08h-.5a2.42,2.42,0,0,1-.88-.17A2.19,2.19,0,0,1,8.77,9.24a2.42,2.42,0,0,1-.17-.88,2.52,2.52,0,0,1,.17-.9,2,2,0,0,1,.46-.7A2.11,2.11,0,0,1,10,6.3a2.57,2.57,0,0,1,1-.16,2.17,2.17,0,0,1,.51,0,3.17,3.17,0,0,1,.44.12,1.85,1.85,0,0,1,.37.19,2.37,2.37,0,0,1,.3.23l-.29.45a.18.18,0,0,1-.23.09.33.33,0,0,1-.19-.06L11.59,7A.85.85,0,0,0,11.37,7h-.5a1.25,1.25,0,0,0-.51.1,1.08,1.08,0,0,0-.39.28,1.29,1.29,0,0,0-.25.44,1.58,1.58,0,0,0-.08.57A1.84,1.84,0,0,0,9.68,9Z" style="fill:#fff"/></svg>