<svg width="98" height="98" fill="none" xmlns="http://www.w3.org/2000/svg"><g filter="url(#a)"><path opacity=".24" d="M26.542 71.458C11.76 66.978 1 53.245 1 37 1 17.118 17.118 1 37 1c16.245 0 29.977 10.76 34.458 25.542C86.24 31.022 97 44.755 97 61c0 19.882-16.118 36-36 36-16.245 0-29.977-10.76-34.458-25.542Z" fill="#9DB7D1"/><g filter="url(#b)"><path fill-rule="evenodd" clip-rule="evenodd" d="M19 28a3 3 0 0 1 3-3h54a3 3 0 0 1 3 3v42a3 3 0 0 1-3 3H22a3 3 0 0 1-3-3V28Z" fill="#F2EFFD"/></g><path d="M25 44a1 1 0 0 1 1-1h8a1 1 0 1 1 0 2h-8a1 1 0 0 1-1-1ZM25 49a1 1 0 0 1 1-1h8a1 1 0 1 1 0 2h-8a1 1 0 0 1-1-1ZM25 54a1 1 0 0 1 1-1h8a1 1 0 1 1 0 2h-8a1 1 0 0 1-1-1ZM25 32a1 1 0 0 1 1-1h8a1 1 0 1 1 0 2h-8a1 1 0 0 1-1-1ZM72 31a1 1 0 1 0 0 2 1 1 0 0 0 0-2Z" fill="#002838"/><path fill-rule="evenodd" clip-rule="evenodd" d="M22 25a3 3 0 0 0-3 3v42a3 3 0 0 0 3 3h54a3 3 0 0 0 3-3V28a3 3 0 0 0-3-3H22Zm19 46h35a1 1 0 0 0 1-1V39H41v32Zm-2-32v32H22a1 1 0 0 1-1-1V39h18Zm38-2v-9a1 1 0 0 0-1-1H22a1 1 0 0 0-1 1v9h56Z" fill="#002838"/></g><defs><filter id="a" x=".5" y=".5" width="97" height="97" filterUnits="userSpaceOnUse" color-interpolation-filters="sRGB"><feFlood flood-opacity="0" result="BackgroundImageFix"/><feBlend in="SourceGraphic" in2="BackgroundImageFix" result="shape"/><feGaussianBlur stdDeviation=".25" result="effect1_foregroundBlur_230:999"/></filter><filter id="b" x="19" y="25" width="62" height="50" filterUnits="userSpaceOnUse" color-interpolation-filters="sRGB"><feFlood flood-opacity="0" result="BackgroundImageFix"/><feColorMatrix in="SourceAlpha" values="0 0 0 0 0 0 0 0 0 0 0 0 0 0 0 0 0 0 127 0" result="hardAlpha"/><feOffset dx="2" dy="2"/><feColorMatrix values="0 0 0 0 0 0 0 0 0 0 0 0 0 0 0 0 0 0 0.16 0"/><feBlend in2="BackgroundImageFix" result="effect1_dropShadow_230:999"/><feBlend in="SourceGraphic" in2="effect1_dropShadow_230:999" result="shape"/><feColorMatrix in="SourceAlpha" values="0 0 0 0 0 0 0 0 0 0 0 0 0 0 0 0 0 0 127 0" result="hardAlpha"/><feOffset dx="4" dy="4"/><feComposite in2="hardAlpha" operator="arithmetic" k2="-1" k3="1"/><feColorMatrix values="0 0 0 0 1 0 0 0 0 1 0 0 0 0 1 0 0 0 1 0"/><feBlend in2="shape" result="effect2_innerShadow_230:999"/></filter></defs></svg>