<svg width="98" height="98" fill="none" xmlns="http://www.w3.org/2000/svg"><g filter="url(#a)"><circle opacity=".24" cx="49" cy="49" r="48" fill="#9DB7D1"/><g filter="url(#b)"><path fill-rule="evenodd" clip-rule="evenodd" d="M48.782 19.024a1 1 0 0 1 .436 0l26 5.8A1 1 0 0 1 76 25.8v.042c0 10.114 0 17.755-.409 23.68-.408 5.93-1.232 10.257-2.946 13.699-1.732 3.477-4.326 5.958-8.087 8.288-3.714 2.302-8.64 4.5-15.081 7.373l-.07.031a1 1 0 0 1-.814 0l-.07-.03c-6.441-2.874-11.367-5.072-15.081-7.374-3.76-2.33-6.355-4.81-8.087-8.288-1.714-3.442-2.538-7.77-2.946-13.7C22 43.598 22 35.957 22 25.842V25.8a1 1 0 0 1 .782-.976l26-5.8Z" fill="#F2EFFD"/></g><path d="M61.707 42.707a1 1 0 0 0-1.414-1.414L47 54.586l-8.293-8.293a1 1 0 0 0-1.414 1.414l9 9a1 1 0 0 0 1.414 0l14-14Z" fill="#002838"/><path fill-rule="evenodd" clip-rule="evenodd" d="M49.218 19.024a1 1 0 0 0-.436 0l-26 5.8A1 1 0 0 0 22 25.8v.042c0 10.114 0 17.755.409 23.68.409 5.93 1.232 10.257 2.946 13.699 1.732 3.477 4.326 5.958 8.087 8.288 3.714 2.302 8.64 4.5 15.081 7.373l.07.031a1 1 0 0 0 .814 0l.07-.03c6.441-2.874 11.367-5.072 15.081-7.374 3.76-2.33 6.355-4.81 8.087-8.288 1.714-3.442 2.538-7.77 2.946-13.7C76 43.598 76 35.957 76 25.842V25.8a1 1 0 0 0-.782-.976l-26-5.8Zm-24.814 30.36C24.01 43.691 24 36.364 24 26.602l25-5.577 25 5.577c0 9.762-.011 17.089-.404 22.782-.404 5.852-1.205 9.862-2.741 12.945-1.518 3.048-3.799 5.28-7.35 7.48-3.51 2.175-8.187 4.277-14.505 7.096-6.318-2.819-10.994-4.92-14.505-7.096-3.551-2.2-5.832-4.432-7.35-7.48-1.536-3.083-2.337-7.093-2.741-12.945Z" fill="#002838"/></g><defs><filter id="a" x=".5" y=".5" width="97" height="97" filterUnits="userSpaceOnUse" color-interpolation-filters="sRGB"><feFlood flood-opacity="0" result="BackgroundImageFix"/><feBlend in="SourceGraphic" in2="BackgroundImageFix" result="shape"/><feGaussianBlur stdDeviation=".25" result="effect1_foregroundBlur_550:3193"/></filter><filter id="b" x="22" y="19" width="56" height="62" filterUnits="userSpaceOnUse" color-interpolation-filters="sRGB"><feFlood flood-opacity="0" result="BackgroundImageFix"/><feColorMatrix in="SourceAlpha" values="0 0 0 0 0 0 0 0 0 0 0 0 0 0 0 0 0 0 127 0" result="hardAlpha"/><feOffset dx="2" dy="2"/><feColorMatrix values="0 0 0 0 0 0 0 0 0 0 0 0 0 0 0 0 0 0 0.16 0"/><feBlend in2="BackgroundImageFix" result="effect1_dropShadow_550:3193"/><feBlend in="SourceGraphic" in2="effect1_dropShadow_550:3193" result="shape"/><feColorMatrix in="SourceAlpha" values="0 0 0 0 0 0 0 0 0 0 0 0 0 0 0 0 0 0 127 0" result="hardAlpha"/><feOffset dx="4" dy="4"/><feComposite in2="hardAlpha" operator="arithmetic" k2="-1" k3="1"/><feColorMatrix values="0 0 0 0 1 0 0 0 0 1 0 0 0 0 1 0 0 0 1 0"/><feBlend in2="shape" result="effect2_innerShadow_550:3193"/></filter></defs></svg>