<svg width="98" height="98" fill="none" xmlns="http://www.w3.org/2000/svg"><g filter="url(#a)"><circle opacity=".24" cx="49" cy="49" r="48" fill="#9DB7D1"/><g filter="url(#b)"><rect x="22" y="22" width="44" height="44" rx="5" fill="#F2EFFD"/></g><g filter="url(#c)"><rect x="32" y="32" width="44" height="44" rx="5" fill="#F2EFFD"/></g><path d="M27 22a5 5 0 0 0-5 5v34a5 5 0 0 0 5 5 1 1 0 1 0 0-2 3 3 0 0 1-3-3V27a3 3 0 0 1 3-3h34a3 3 0 0 1 3 3 1 1 0 1 0 2 0 5 5 0 0 0-5-5H27Z" fill="#002838"/><path fill-rule="evenodd" clip-rule="evenodd" d="M37 32a5 5 0 0 0-5 5v34a5 5 0 0 0 5 5h34a5 5 0 0 0 5-5V37a5 5 0 0 0-5-5H37Zm-3 5a3 3 0 0 1 3-3h34a3 3 0 0 1 3 3v34a3 3 0 0 1-3 3H37a3 3 0 0 1-3-3V37Z" fill="#002838"/></g><defs><filter id="a" x=".5" y=".5" width="97" height="97" filterUnits="userSpaceOnUse" color-interpolation-filters="sRGB"><feFlood flood-opacity="0" result="BackgroundImageFix"/><feBlend in="SourceGraphic" in2="BackgroundImageFix" result="shape"/><feGaussianBlur stdDeviation=".25" result="effect1_foregroundBlur_550:3188"/></filter><filter id="b" x="22" y="22" width="46" height="46" filterUnits="userSpaceOnUse" color-interpolation-filters="sRGB"><feFlood flood-opacity="0" result="BackgroundImageFix"/><feColorMatrix in="SourceAlpha" values="0 0 0 0 0 0 0 0 0 0 0 0 0 0 0 0 0 0 127 0" result="hardAlpha"/><feOffset dx="2" dy="2"/><feColorMatrix values="0 0 0 0 0 0 0 0 0 0 0 0 0 0 0 0 0 0 0.16 0"/><feBlend in2="BackgroundImageFix" result="effect1_dropShadow_550:3188"/><feBlend in="SourceGraphic" in2="effect1_dropShadow_550:3188" result="shape"/><feColorMatrix in="SourceAlpha" values="0 0 0 0 0 0 0 0 0 0 0 0 0 0 0 0 0 0 127 0" result="hardAlpha"/><feOffset dx="4" dy="4"/><feComposite in2="hardAlpha" operator="arithmetic" k2="-1" k3="1"/><feColorMatrix values="0 0 0 0 1 0 0 0 0 1 0 0 0 0 1 0 0 0 1 0"/><feBlend in2="shape" result="effect2_innerShadow_550:3188"/></filter><filter id="c" x="32" y="32" width="46" height="46" filterUnits="userSpaceOnUse" color-interpolation-filters="sRGB"><feFlood flood-opacity="0" result="BackgroundImageFix"/><feColorMatrix in="SourceAlpha" values="0 0 0 0 0 0 0 0 0 0 0 0 0 0 0 0 0 0 127 0" result="hardAlpha"/><feOffset dx="2" dy="2"/><feColorMatrix values="0 0 0 0 0 0 0 0 0 0 0 0 0 0 0 0 0 0 0.16 0"/><feBlend in2="BackgroundImageFix" result="effect1_dropShadow_550:3188"/><feBlend in="SourceGraphic" in2="effect1_dropShadow_550:3188" result="shape"/><feColorMatrix in="SourceAlpha" values="0 0 0 0 0 0 0 0 0 0 0 0 0 0 0 0 0 0 127 0" result="hardAlpha"/><feOffset dx="4" dy="4"/><feComposite in2="hardAlpha" operator="arithmetic" k2="-1" k3="1"/><feColorMatrix values="0 0 0 0 1 0 0 0 0 1 0 0 0 0 1 0 0 0 1 0"/><feBlend in2="shape" result="effect2_innerShadow_550:3188"/></filter></defs></svg>