<?xml version="1.0" encoding="utf-8"?>
<!-- Generator: Adobe Illustrator 25.0.1, SVG Export Plug-In . SVG Version: 6.00 Build 0)  -->
<svg version="1.1" id="Layer_1" focusable="false" xmlns="http://www.w3.org/2000/svg" xmlns:xlink="http://www.w3.org/1999/xlink"
	 x="0px" y="0px" viewBox="0 0 512 512" style="enable-background:new 0 0 512 512;" xml:space="preserve">
<style type="text/css">
	.st0{fill:#0066CC;}
</style>
<path class="st0" d="M448,0H64C28.7,0,0,28.7,0,64v288c0,35.3,28.7,64,64,64h96v84c0,7.1,5.8,12,12,12c2.4,0,4.9-0.7,7.1-2.4
	L304,416h144c35.3,0,64-28.7,64-64V64C512,28.7,483.3,0,448,0z M464,352c0,8.8-7.2,16-16,16H288l-12.8,9.6L208,428v-60H64
	c-8.8,0-16-7.2-16-16V64c0-8.8,7.2-16,16-16h384c8.8,0,16,7.2,16,16V352z M336,184h-56v-56c0-8.8-7.2-16-16-16h-16
	c-8.8,0-16,7.2-16,16v56h-56c-8.8,0-16,7.2-16,16v16c0,8.8,7.2,16,16,16h56v56c0,8.8,7.2,16,16,16h16c8.8,0,16-7.2,16-16v-56h56
	c8.8,0,16-7.2,16-16v-16C352,191.2,344.8,184,336,184z"/>
</svg>
