<svg width="64" height="64" fill="none" xmlns="http://www.w3.org/2000/svg"><g filter="url(#a)"><circle cx="32" cy="32" r="29.333" fill="#F2EFFD"/></g><path d="M45.36 8.914C32.599 1.547 16.282 5.92 8.914 18.68 1.546 31.44 5.919 47.758 18.68 55.126c.406.234.815.457 1.228.668a1.334 1.334 0 0 1-1.213 2.376 29.9 29.9 0 0 1-1.35-.733C3.309 49.332-1.5 31.383 6.604 17.346 14.708 3.309 32.657-1.501 46.694 6.604c.446.257.883.524 1.31.801a1.334 1.334 0 1 1-1.451 2.24 27.131 27.131 0 0 0-1.193-.73ZM50.89 11.264a1.334 1.334 0 0 1 1.887-.001c.73.728 1.416 1.491 2.057 2.283a1.334 1.334 0 1 1-2.074 1.679 26.459 26.459 0 0 0-1.868-2.075 1.334 1.334 0 0 1-.001-1.886ZM58.173 18.695a1.334 1.334 0 1 0-2.379 1.21c.423.831.802 1.683 1.135 2.552a1.334 1.334 0 1 0 2.491-.954 29.434 29.434 0 0 0-1.247-2.808ZM59.48 26.32a1.334 1.334 0 0 1 1.528 1.108 29.4 29.4 0 0 1 .323 3.055 1.334 1.334 0 1 1-2.664.142 26.766 26.766 0 0 0-.294-2.778 1.334 1.334 0 0 1 1.108-1.527ZM61.014 36.611a1.334 1.334 0 1 0-2.635-.416 26.456 26.456 0 0 1-.58 2.73 1.334 1.334 0 0 0 2.576.693c.267-.996.48-2 .64-3.007ZM57.588 43.55c.656.335.917 1.139.582 1.795a29.9 29.9 0 0 1-1.535 2.659 1.334 1.334 0 0 1-2.24-1.451 27.204 27.204 0 0 0 1.398-2.421 1.334 1.334 0 0 1 1.795-.582ZM52.777 52.777a1.334 1.334 0 0 0-1.888-1.885 26.437 26.437 0 0 1-2.074 1.868 1.334 1.334 0 0 0 1.678 2.074 29.127 29.127 0 0 0 2.284-2.057ZM45.929 56.38c.334.656.072 1.46-.585 1.793-.915.465-1.852.881-2.807 1.247a1.334 1.334 0 0 1-.954-2.491 26.733 26.733 0 0 0 2.552-1.134 1.334 1.334 0 0 1 1.794.584ZM36.612 61.008a1.334 1.334 0 0 0-.42-2.635c-.918.146-1.845.245-2.777.294a1.334 1.334 0 1 0 .142 2.664 29.455 29.455 0 0 0 3.055-.323ZM28.954 59.905a1.334 1.334 0 0 1-1.526 1.11 29.149 29.149 0 0 1-3.006-.64 1.334 1.334 0 1 1 .692-2.577c.905.243 1.816.437 2.731.581a1.334 1.334 0 0 1 1.11 1.526Z" fill="#002838"/><path d="M34.666 20a1.333 1.333 0 0 0-2.276-.943l-5.333 5.334a1.333 1.333 0 1 0 1.886 1.885L32 23.22V44a1.333 1.333 0 0 0 2.666 0V20Z" fill="#002838"/><defs><filter id="a" x="2.667" y="2.667" width="60.666" height="60.667" filterUnits="userSpaceOnUse" color-interpolation-filters="sRGB"><feFlood flood-opacity="0" result="BackgroundImageFix"/><feColorMatrix in="SourceAlpha" values="0 0 0 0 0 0 0 0 0 0 0 0 0 0 0 0 0 0 127 0" result="hardAlpha"/><feOffset dx="2" dy="2"/><feColorMatrix values="0 0 0 0 0 0 0 0 0 0 0 0 0 0 0 0 0 0 0.16 0"/><feBlend in2="BackgroundImageFix" result="effect1_dropShadow"/><feBlend in="SourceGraphic" in2="effect1_dropShadow" result="shape"/><feColorMatrix in="SourceAlpha" values="0 0 0 0 0 0 0 0 0 0 0 0 0 0 0 0 0 0 127 0" result="hardAlpha"/><feOffset dx="4" dy="4"/><feComposite in2="hardAlpha" operator="arithmetic" k2="-1" k3="1"/><feColorMatrix values="0 0 0 0 1 0 0 0 0 1 0 0 0 0 1 0 0 0 1 0"/><feBlend in2="shape" result="effect2_innerShadow"/></filter></defs></svg>