<svg width="64" height="64" fill="none" xmlns="http://www.w3.org/2000/svg"><g filter="url(#a)"><circle cx="32" cy="32" r="29.333" fill="#F2EFFD"/></g><path d="M8.914 18.68C16.282 5.919 32.599 1.547 45.36 8.914c.406.235.804.478 1.193.73a1.334 1.334 0 1 0 1.45-2.239 29.772 29.772 0 0 0-1.309-.801C32.657-1.501 14.708 3.309 6.604 17.346c-8.105 14.037-3.296 31.986 10.742 40.09a29.9 29.9 0 0 0 1.349.734 1.334 1.334 0 0 0 1.213-2.376 27.09 27.09 0 0 1-1.228-.668C5.919 47.758 1.546 31.44 8.914 18.68ZM52.777 11.263a1.334 1.334 0 1 0-1.885 1.887 26.459 26.459 0 0 1 1.868 2.075 1.334 1.334 0 1 0 2.074-1.679 29.108 29.108 0 0 0-2.057-2.283ZM58.173 18.695a1.334 1.334 0 1 0-2.379 1.21c.423.831.802 1.683 1.135 2.552a1.334 1.334 0 1 0 2.491-.954 29.434 29.434 0 0 0-1.247-2.808ZM61.008 27.428a1.334 1.334 0 1 0-2.635.42c.146.918.244 1.845.294 2.777a1.334 1.334 0 1 0 2.664-.142 29.4 29.4 0 0 0-.323-3.055ZM61.014 36.611a1.334 1.334 0 1 0-2.635-.416 26.456 26.456 0 0 1-.58 2.73 1.334 1.334 0 0 0 2.576.693c.267-.996.48-2 .64-3.007ZM58.17 45.345a1.334 1.334 0 1 0-2.377-1.213 27.143 27.143 0 0 1-1.397 2.42 1.334 1.334 0 1 0 2.239 1.452 29.811 29.811 0 0 0 1.535-2.66ZM52.777 52.777a1.334 1.334 0 0 0-1.888-1.885 26.437 26.437 0 0 1-2.074 1.868 1.334 1.334 0 0 0 1.678 2.074 29.127 29.127 0 0 0 2.284-2.057ZM45.344 58.173a1.334 1.334 0 0 0-1.209-2.378c-.831.422-1.684.8-2.552 1.134a1.334 1.334 0 0 0 .954 2.491 29.434 29.434 0 0 0 2.807-1.247ZM36.612 61.008a1.334 1.334 0 0 0-.42-2.635c-.918.146-1.845.245-2.777.294a1.334 1.334 0 1 0 .142 2.664 29.455 29.455 0 0 0 3.055-.323ZM27.428 61.015a1.334 1.334 0 0 0 .417-2.636 26.482 26.482 0 0 1-2.73-.58 1.334 1.334 0 0 0-.693 2.576c.996.268 2 .48 3.006.64Z" fill="#002838"/><path fill-rule="evenodd" clip-rule="evenodd" d="M24.666 26.685C24.666 22.854 28.098 20 32 20c3.903 0 7.333 2.854 7.333 6.685 0 2.12-1.067 4.026-2.7 5.278C38.65 33.31 40 35.523 40 38.019c0 4.172-3.722 7.314-8 7.314-4.279 0-8-3.142-8-7.314a1.333 1.333 0 0 1 2.666 0c0 2.434 2.249 4.648 5.334 4.648 3.085 0 5.333-2.214 5.333-4.648 0-2.163-1.736-4.202-4.211-4.665A1.338 1.338 0 0 1 32 32.05a1.334 1.334 0 0 1 1.096-1.325c2.111-.44 3.57-2.21 3.57-4.04 0-2.08-1.941-4.018-4.666-4.018-2.725 0-4.667 1.938-4.667 4.018a1.333 1.333 0 0 1-2.666 0Z" fill="#002838"/><defs><filter id="a" x="2.667" y="2.667" width="60.666" height="60.667" filterUnits="userSpaceOnUse" color-interpolation-filters="sRGB"><feFlood flood-opacity="0" result="BackgroundImageFix"/><feColorMatrix in="SourceAlpha" values="0 0 0 0 0 0 0 0 0 0 0 0 0 0 0 0 0 0 127 0" result="hardAlpha"/><feOffset dx="2" dy="2"/><feColorMatrix values="0 0 0 0 0 0 0 0 0 0 0 0 0 0 0 0 0 0 0.16 0"/><feBlend in2="BackgroundImageFix" result="effect1_dropShadow"/><feBlend in="SourceGraphic" in2="effect1_dropShadow" result="shape"/><feColorMatrix in="SourceAlpha" values="0 0 0 0 0 0 0 0 0 0 0 0 0 0 0 0 0 0 127 0" result="hardAlpha"/><feOffset dx="4" dy="4"/><feComposite in2="hardAlpha" operator="arithmetic" k2="-1" k3="1"/><feColorMatrix values="0 0 0 0 1 0 0 0 0 1 0 0 0 0 1 0 0 0 1 0"/><feBlend in2="shape" result="effect2_innerShadow"/></filter></defs></svg>