<svg width="98" height="98" fill="none" xmlns="http://www.w3.org/2000/svg"><g filter="url(#a)"><path opacity=".24" d="M26.542 71.458C11.76 66.978 1 53.245 1 37 1 17.118 17.118 1 37 1c16.245 0 29.977 10.76 34.458 25.542C86.24 31.022 97 44.755 97 61c0 19.882-16.118 36-36 36-16.245 0-29.977-10.76-34.458-25.542Z" fill="#9DB7D1"/><g filter="url(#b)"><path fill-rule="evenodd" clip-rule="evenodd" d="M26 37.845a.963.963 0 0 0 0 .068V38c0 5.348 3.229 9.941 7.843 11.937C26.665 52.68 22 61.182 22 72a1 1 0 0 0 1 1h32a1 1 0 0 0 1-1c0-10.818-4.665-19.32-11.843-22.063C48.77 47.941 52 43.347 52 38v-.156C51.914 30.736 46.127 25 39 25s-12.916 5.737-13 12.845Z" fill="#F2EFFD"/></g><g filter="url(#c)"><path fill-rule="evenodd" clip-rule="evenodd" d="M46 37.845a.963.963 0 0 0 0 .068V38c0 5.348 3.229 9.941 7.843 11.937C46.665 52.68 42 61.182 42 72a1 1 0 0 0 1 1h32a1 1 0 0 0 1-1c0-10.818-4.665-19.32-11.843-22.063C68.77 47.941 72 43.347 72 38v-.156C71.914 30.736 66.127 25 59 25s-12.916 5.737-13 12.845Z" fill="#F2EFFD"/></g><path d="M38.948 27c-6.075 0-11 4.925-11 11s4.925 11 11 11H39a1 1 0 1 1 0 2c-8.168 0-14.65 7.83-14.986 20H37a1 1 0 1 1 0 2H23a1 1 0 0 1-1-1c0-10.804 4.653-19.299 11.816-22.052-4.628-1.99-7.868-6.591-7.868-11.948 0-7.18 5.82-13 13-13 1.931 0 3.767.422 5.417 1.18a1 1 0 0 1-.834 1.817A10.956 10.956 0 0 0 38.948 27ZM60 56a1 1 0 1 1-2 0 1 1 0 0 1 2 0ZM59 62a1 1 0 1 0 0-2 1 1 0 0 0 0 2ZM60 66a1 1 0 1 1-2 0 1 1 0 0 1 2 0Z" fill="#002838"/><path fill-rule="evenodd" clip-rule="evenodd" d="M46 37.913v-.068C46.085 30.737 51.873 25 59 25s12.915 5.736 13 12.844a.978.978 0 0 1 0 .068V38c0 5.348-3.229 9.941-7.843 11.937C71.335 52.68 76 61.182 76 72a1 1 0 0 1-1 1H43a1 1 0 0 1-1-1c0-10.818 4.665-19.32 11.843-22.063C49.23 47.941 46 43.347 46 38v-.087ZM59 51c-8.168 0-14.65 7.83-14.986 20h29.972C73.65 58.83 67.168 51 59 51Zm0-2c5.403 0 9.895-3.895 10.824-9.03-1.094.644-2.309 1.065-3.725 1.028-2.212-.058-4.68-1.225-7.743-3.802-1.423-1.197-2.603-1.803-3.586-2.052a4.203 4.203 0 0 0-2.554.117c-.784.284-1.526.78-2.288 1.4-.378.309-.75.638-1.13.978l-.132.117c-.217.195-.438.393-.66.587C48.185 44.259 53.04 49 59 49Zm0-22c-5.183 0-9.528 3.584-10.693 8.41.118-.101.237-.2.358-.3.833-.677 1.778-1.334 2.87-1.73a6.202 6.202 0 0 1 3.726-.175c1.361.346 2.806 1.135 4.383 2.46 2.936 2.47 4.97 3.293 6.507 3.333 1.373.036 2.543-.546 3.834-1.572C69.687 31.618 64.883 27 59 27Z" fill="#002838"/></g><defs><filter id="a" x=".5" y=".5" width="97" height="97" filterUnits="userSpaceOnUse" color-interpolation-filters="sRGB"><feFlood flood-opacity="0" result="BackgroundImageFix"/><feBlend in="SourceGraphic" in2="BackgroundImageFix" result="shape"/><feGaussianBlur stdDeviation=".25" result="effect1_foregroundBlur_230:986"/></filter><filter id="b" x="22" y="25" width="36" height="50" filterUnits="userSpaceOnUse" color-interpolation-filters="sRGB"><feFlood flood-opacity="0" result="BackgroundImageFix"/><feColorMatrix in="SourceAlpha" values="0 0 0 0 0 0 0 0 0 0 0 0 0 0 0 0 0 0 127 0" result="hardAlpha"/><feOffset dx="2" dy="2"/><feColorMatrix values="0 0 0 0 0 0 0 0 0 0 0 0 0 0 0 0 0 0 0.16 0"/><feBlend in2="BackgroundImageFix" result="effect1_dropShadow_230:986"/><feBlend in="SourceGraphic" in2="effect1_dropShadow_230:986" result="shape"/><feColorMatrix in="SourceAlpha" values="0 0 0 0 0 0 0 0 0 0 0 0 0 0 0 0 0 0 127 0" result="hardAlpha"/><feOffset dx="4" dy="4"/><feComposite in2="hardAlpha" operator="arithmetic" k2="-1" k3="1"/><feColorMatrix values="0 0 0 0 1 0 0 0 0 1 0 0 0 0 1 0 0 0 1 0"/><feBlend in2="shape" result="effect2_innerShadow_230:986"/></filter><filter id="c" x="42" y="25" width="36" height="50" filterUnits="userSpaceOnUse" color-interpolation-filters="sRGB"><feFlood flood-opacity="0" result="BackgroundImageFix"/><feColorMatrix in="SourceAlpha" values="0 0 0 0 0 0 0 0 0 0 0 0 0 0 0 0 0 0 127 0" result="hardAlpha"/><feOffset dx="2" dy="2"/><feColorMatrix values="0 0 0 0 0 0 0 0 0 0 0 0 0 0 0 0 0 0 0.16 0"/><feBlend in2="BackgroundImageFix" result="effect1_dropShadow_230:986"/><feBlend in="SourceGraphic" in2="effect1_dropShadow_230:986" result="shape"/><feColorMatrix in="SourceAlpha" values="0 0 0 0 0 0 0 0 0 0 0 0 0 0 0 0 0 0 127 0" result="hardAlpha"/><feOffset dx="4" dy="4"/><feComposite in2="hardAlpha" operator="arithmetic" k2="-1" k3="1"/><feColorMatrix values="0 0 0 0 1 0 0 0 0 1 0 0 0 0 1 0 0 0 1 0"/><feBlend in2="shape" result="effect2_innerShadow_230:986"/></filter></defs></svg>