<?xml version="1.0" encoding="utf-8"?>
<!-- Generator: Adobe Illustrator 24.3.0, SVG Export Plug-In . SVG Version: 6.00 Build 0)  -->
<svg version="1.1" id="Layer_1" focusable="false" xmlns="http://www.w3.org/2000/svg" xmlns:xlink="http://www.w3.org/1999/xlink"
	 x="0px" y="0px" viewBox="0 0 512 512" style="enable-background:new 0 0 512 512;" xml:space="preserve">
<style type="text/css">
	.st0{fill:#0066CC;}
</style>
<path class="st0" d="M12.4,148l232.9,105.7c6.8,3.1,14.5,3.1,21.3,0L499.6,148c16.5-7.5,16.5-32.5,0-40L266.6,2.3
	c-6.8-3.1-14.5-3.1-21.3,0L12.4,108C-4.1,115.5-4.1,140.5,12.4,148z M499.6,236.3L441.5,210l-161.6,73.3c-7.6,3.4-15.6,5.2-23.9,5.2
	s-16.3-1.7-23.9-5.2L70.5,210l-58.1,26.3c-16.5,7.5-16.5,32.5,0,40l232.9,105.6c6.8,3.1,14.5,3.1,21.3,0l232.9-105.6
	C516.1,268.8,516.1,243.8,499.6,236.3L499.6,236.3z M499.6,364.1l-57.9-26.2l-161.9,73.4c-7.6,3.4-15.6,5.2-23.9,5.2
	s-16.3-1.7-23.9-5.2L70.3,337.9l-57.9,26.2c-16.5,7.5-16.5,32.5,0,40l232.9,105.6c6.8,3.1,14.5,3.1,21.3,0l232.9-105.6
	C516.1,396.6,516.1,371.6,499.6,364.1z"/>
</svg>
